<svg width="356" height="238" viewBox="0 0 356 238" fill="none" xmlns="http://www.w3.org/2000/svg">
<g clip-path="url(#clip0_2_1234)">
<path d="M355.131 0H0.87085V238H355.131V0Z" fill="#CCEFF6"/>
<path d="M262.4 83.355V88.1346H195.86V83.355H262.4ZM208.839 85.9429C208.839 85.722 208.774 85.5062 208.653 85.3227C208.532 85.1392 208.359 84.9961 208.158 84.9116C207.956 84.8271 207.734 84.8052 207.521 84.8482C207.307 84.8912 207.11 84.9976 206.956 85.1541C206.801 85.3101 206.696 85.5092 206.654 85.7257C206.611 85.9422 206.633 86.1669 206.716 86.3708C206.8 86.575 206.941 86.7493 207.122 86.8723C207.304 86.995 207.517 87.0607 207.735 87.061C207.881 87.0618 208.025 87.0332 208.16 86.9773C208.295 86.9213 208.417 86.8386 208.52 86.7341C208.623 86.6299 208.705 86.5061 208.76 86.3696C208.816 86.2332 208.844 86.0868 208.843 85.9392L208.839 85.9429ZM204.496 85.9429C204.496 85.722 204.431 85.5062 204.309 85.3227C204.188 85.1392 204.016 84.9961 203.814 84.9116C203.613 84.8271 203.391 84.8052 203.177 84.8482C202.963 84.8912 202.767 84.9976 202.612 85.1537C202.458 85.3098 202.353 85.5085 202.31 85.725C202.268 85.9415 202.289 86.1661 202.372 86.3704C202.456 86.5743 202.597 86.7489 202.778 86.872C202.959 86.9947 203.172 87.0607 203.39 87.061C203.536 87.0618 203.681 87.0332 203.816 86.9773C203.951 86.9213 204.073 86.8386 204.176 86.7344C204.279 86.6299 204.361 86.5061 204.416 86.3696C204.472 86.2332 204.5 86.0868 204.499 85.9392L204.496 85.9429ZM200.151 85.9429C200.151 85.722 200.086 85.5062 199.965 85.3227C199.843 85.1392 199.671 84.9961 199.47 84.9116C199.268 84.8271 199.046 84.8052 198.832 84.8482C198.618 84.8912 198.422 84.9976 198.268 85.1541C198.113 85.3101 198.008 85.5092 197.966 85.7257C197.923 85.9422 197.945 86.1669 198.028 86.3708C198.112 86.575 198.253 86.7493 198.434 86.8723C198.616 86.995 198.829 87.0607 199.047 87.061C199.193 87.0621 199.338 87.034 199.473 86.978C199.608 86.922 199.731 86.8397 199.834 86.7352C199.938 86.631 200.019 86.5068 200.075 86.37C200.131 86.2336 200.159 86.0872 200.158 85.9392L200.151 85.9429Z" fill="#006B99"/>
<path d="M249.132 183.232H176.522L167.391 176.687L140.075 157.107L140.116 156.922C140.507 157.044 140.915 157.107 141.326 157.107H209.855C210.575 157.108 211.284 156.915 211.906 156.548L249.132 183.232ZM209.591 173.193H229.122L223.384 169.081L210.64 159.943H151.688L156.795 163.606L170.169 173.193H209.591ZM193.661 180.72H222L214.935 175.656H186.524L193.589 180.72H193.661Z" fill="#CCEFF6"/>
<path d="M229.121 173.193H209.591V173.077L204.266 169.261H223.26L223.383 169.082L229.121 173.193Z" fill="#CCEFF6"/>
<path d="M178.511 163.606L173.404 159.943H210.64L223.383 169.081L223.26 169.26H204.266L209.59 173.077V173.193H170.165L156.79 163.606H178.511Z" fill="#CCEFF6"/>
<path d="M222 180.72H193.66H193.589L186.524 175.656H214.863H214.935L222 180.72Z" fill="#F7CEDC"/>
<path d="M213.932 128.287V152.983C213.932 153.525 213.827 154.061 213.622 154.562C213.417 155.063 213.116 155.517 212.738 155.9C212.359 156.283 211.91 156.587 211.415 156.794C210.92 157.001 210.39 157.107 209.855 157.107H141.325C140.79 157.107 140.26 157.001 139.766 156.794C139.271 156.587 138.822 156.283 138.443 155.9C138.065 155.517 137.765 155.062 137.56 154.561C137.356 154.061 137.251 153.524 137.251 152.983V103.594C137.251 102.499 137.68 101.45 138.444 100.677C139.208 99.9029 140.245 99.468 141.325 99.4673H209.855C210.39 99.4673 210.92 99.5737 211.415 99.7813C211.91 99.9885 212.36 100.293 212.739 100.676C213.117 101.059 213.418 101.514 213.622 102.015C213.827 102.516 213.933 103.053 213.932 103.595V128.287ZM210.829 150.727V105.846C210.829 104.986 210.492 104.162 209.892 103.554C209.291 102.946 208.477 102.605 207.628 102.605H143.553C142.703 102.605 141.889 102.946 141.289 103.554C140.689 104.162 140.352 104.986 140.352 105.846V150.727C140.352 151.586 140.689 152.411 141.289 153.018C141.889 153.626 142.703 153.967 143.553 153.967H207.627C208.476 153.967 209.29 153.626 209.891 153.018C210.491 152.411 210.828 151.586 210.828 150.727H210.829Z" fill="#CCEFF6"/>
<path d="M210.828 105.846V119.72H210.22V119.487C210.22 115.527 208.017 113.591 205.324 113.591H205.036C204.861 113.592 204.695 113.522 204.571 113.398C204.448 113.273 204.378 113.105 204.378 112.929V111.883C204.799 111.672 205.154 111.347 205.403 110.943C205.651 110.539 205.783 110.072 205.783 109.597V108.176C205.783 107.5 205.518 106.851 205.045 106.372C204.573 105.894 203.932 105.625 203.264 105.625C202.595 105.625 201.954 105.894 201.482 106.372C201.009 106.851 200.743 107.5 200.743 108.176V109.597C200.744 110.072 200.876 110.539 201.124 110.943C201.372 111.347 201.728 111.672 202.149 111.883V112.932C202.149 113.108 202.08 113.276 201.957 113.401C201.834 113.526 201.667 113.597 201.492 113.599C200.743 113.574 199.996 113.706 199.3 113.989C198.604 114.272 197.974 114.698 197.45 115.241C196.926 115.784 196.519 116.432 196.256 117.143C195.993 117.854 195.879 118.612 195.922 119.37H195.86V102.607H207.628C208.476 102.607 209.29 102.948 209.89 103.555C210.49 104.163 210.828 104.986 210.828 105.846Z" fill="#F7CEDC"/>
<path d="M210.147 152.527L210.283 152.537C209.991 152.977 209.596 153.338 209.133 153.587C208.67 153.836 208.154 153.966 207.63 153.966H195.86V153.606H195.922C195.879 152.847 195.993 152.089 196.256 151.378C196.519 150.667 196.926 150.019 197.45 149.477C197.974 148.933 198.604 148.507 199.3 148.224C199.996 147.942 200.743 147.809 201.492 147.835C201.578 147.835 201.664 147.818 201.744 147.785C201.823 147.752 201.896 147.703 201.957 147.642C202.018 147.58 202.066 147.507 202.1 147.426C202.133 147.346 202.15 147.259 202.15 147.172V146.123C201.728 145.912 201.373 145.587 201.125 145.183C200.876 144.778 200.745 144.312 200.744 143.836V142.417C200.744 141.74 201.01 141.091 201.482 140.613C201.955 140.134 202.596 139.866 203.264 139.866C203.933 139.866 204.574 140.134 205.046 140.613C205.519 141.091 205.784 141.74 205.784 142.417V143.836C205.784 144.312 205.652 144.778 205.404 145.183C205.156 145.587 204.8 145.912 204.378 146.123V147.174C204.379 147.35 204.449 147.519 204.572 147.643C204.695 147.767 204.863 147.837 205.036 147.837H205.325C207.73 147.834 209.743 149.379 210.147 152.527Z" fill="#006B99"/>
<path d="M210.221 136.453V136.789H195.86V136.327H195.922C195.88 135.57 195.993 134.811 196.257 134.1C196.52 133.389 196.926 132.742 197.45 132.199C197.974 131.656 198.604 131.23 199.3 130.947C199.996 130.665 200.743 130.532 201.492 130.558C201.667 130.558 201.834 130.487 201.958 130.363C202.081 130.238 202.15 130.07 202.15 129.894V128.846C201.728 128.635 201.373 128.31 201.125 127.905C200.876 127.501 200.745 127.035 200.744 126.558V125.139C200.744 124.462 201.01 123.813 201.482 123.335C201.955 122.857 202.596 122.588 203.264 122.588C203.933 122.588 204.574 122.857 205.046 123.335C205.519 123.813 205.784 124.462 205.784 125.139V126.561C205.784 127.037 205.652 127.504 205.404 127.908C205.156 128.312 204.8 128.638 204.378 128.849V129.892C204.379 130.068 204.449 130.237 204.572 130.361C204.695 130.485 204.863 130.555 205.036 130.555H205.325C208.018 130.558 210.221 132.496 210.221 136.453Z" fill="#006B99"/>
<path d="M210.221 119.491V119.724H195.86V119.364H195.922C195.881 118.606 195.995 117.848 196.258 117.138C196.522 116.428 196.928 115.781 197.452 115.239C197.976 114.696 198.606 114.271 199.302 113.988C199.997 113.706 200.743 113.574 201.492 113.599C201.667 113.599 201.834 113.529 201.958 113.405C202.08 113.281 202.149 113.112 202.15 112.937V111.883C201.728 111.673 201.373 111.347 201.125 110.943C200.876 110.538 200.745 110.072 200.744 109.596V108.176C200.744 107.499 201.01 106.851 201.482 106.372C201.955 105.894 202.596 105.625 203.264 105.625C203.933 105.625 204.574 105.894 205.046 106.372C205.519 106.851 205.784 107.499 205.784 108.176V109.596C205.784 110.072 205.652 110.538 205.403 110.943C205.155 111.347 204.8 111.673 204.378 111.883V112.932C204.379 113.108 204.449 113.277 204.572 113.401C204.695 113.525 204.863 113.595 205.036 113.595H205.325C208.018 113.599 210.221 115.533 210.221 119.491Z" fill="#006B99"/>
<path d="M203.394 84.824C203.612 84.8236 203.826 84.8885 204.008 85.0112C204.19 85.1335 204.332 85.3081 204.416 85.512C204.499 85.7163 204.522 85.9413 204.479 86.1582C204.437 86.3751 204.332 86.5741 204.177 86.7306C204.023 86.887 203.826 86.9938 203.612 87.0368C203.398 87.0798 203.175 87.0575 202.974 86.973C202.772 86.8881 202.6 86.7447 202.478 86.5608C202.357 86.3765 202.293 86.1604 202.293 85.9395C202.293 85.6436 202.409 85.3604 202.616 85.1513C202.822 84.9422 203.102 84.8247 203.394 84.824Z" fill="#FFCEB6"/>
<path d="M199.05 84.824C199.269 84.8236 199.482 84.8889 199.664 85.0116C199.846 85.1343 199.988 85.3085 200.071 85.5128C200.155 85.717 200.177 85.9417 200.135 86.1586C200.092 86.3754 199.987 86.5745 199.832 86.7309C199.678 86.8874 199.481 86.9938 199.267 87.0368C199.053 87.0798 198.831 87.0575 198.629 86.9726C198.427 86.8881 198.255 86.7447 198.134 86.5608C198.013 86.3765 197.948 86.1604 197.949 85.9395C197.949 85.6436 198.065 85.36 198.272 85.1509C198.478 84.9419 198.758 84.8243 199.05 84.824Z" fill="#CCEFF6"/>
<path d="M184.829 51.6245V56.4086H93.4576V51.6245H184.829ZM106.444 54.2132C106.444 53.9923 106.379 53.7765 106.258 53.593C106.136 53.4095 105.964 53.2664 105.763 53.1819C105.561 53.0977 105.339 53.0755 105.125 53.1185C104.911 53.1619 104.715 53.2683 104.56 53.4243C104.406 53.5804 104.301 53.7795 104.258 53.996C104.216 54.2129 104.237 54.4371 104.321 54.6414C104.405 54.8453 104.546 55.0199 104.727 55.1426C104.908 55.2653 105.122 55.3309 105.34 55.3313C105.485 55.3317 105.629 55.3028 105.763 55.2468C105.897 55.1904 106.019 55.1081 106.121 55.0043C106.224 54.9005 106.305 54.7771 106.36 54.6414C106.416 54.5057 106.444 54.36 106.444 54.2132ZM102.1 54.2132C102.1 53.9926 102.035 53.7765 101.914 53.593C101.793 53.4095 101.621 53.2664 101.419 53.1823C101.218 53.0977 100.996 53.0755 100.782 53.1185C100.568 53.1615 100.372 53.2679 100.217 53.424C100.063 53.58 99.9575 53.7791 99.9151 53.9956C99.8723 54.2121 99.8941 54.4364 99.9771 54.6407C100.06 54.8449 100.201 55.0192 100.383 55.1422C100.564 55.2649 100.777 55.3309 100.995 55.3313C101.141 55.3317 101.284 55.3031 101.418 55.2468C101.553 55.1908 101.675 55.1085 101.777 55.0047C101.88 54.9009 101.961 54.7775 102.017 54.6418C102.072 54.5057 102.101 54.3604 102.1 54.2132ZM97.7559 54.2132C97.7559 53.9923 97.691 53.7765 97.5696 53.593C97.4482 53.4095 97.2758 53.2664 97.0744 53.1819C96.8729 53.0977 96.6511 53.0755 96.4371 53.1185C96.223 53.1619 96.0267 53.2683 95.8725 53.4243C95.7178 53.5804 95.613 53.7795 95.5702 53.996C95.5278 54.2129 95.5496 54.4371 95.633 54.6414C95.7164 54.8453 95.8577 55.0199 96.0389 55.1426C96.2204 55.2653 96.4334 55.3309 96.6518 55.3313C96.7969 55.3317 96.9404 55.3028 97.0747 55.2468C97.2087 55.1904 97.3305 55.1081 97.433 55.0043C97.5356 54.9005 97.6168 54.7771 97.6725 54.6414C97.7279 54.5057 97.7563 54.36 97.7559 54.2132Z" fill="#006B99"/>
<path d="M181.679 120.631V122.827L179.532 121.747C179.753 121.377 180.071 121.078 180.449 120.881C180.829 120.684 181.255 120.597 181.679 120.631Z" fill="#FFCEB6"/>
<path d="M173.404 159.943L178.511 163.606H156.791L151.683 159.943H173.404Z" fill="#CCEFF6"/>
<path d="M163.723 75.9446C163.802 76.0024 163.868 76.0766 163.916 76.1622C163.965 76.2479 163.995 76.3428 164.004 76.441C164.014 76.5392 164.003 76.6386 163.972 76.732C163.941 76.8254 163.891 76.9114 163.825 76.9841L161.869 79.076L159.846 81.2362L156.042 85.3074L155.818 85.3389C155.731 85.2422 155.631 85.1588 155.52 85.0906C155.277 84.9352 154.998 84.8466 154.711 84.8333V84.827L159.879 79.2236L162.813 76.0354C162.878 75.965 162.956 75.9086 163.043 75.8701C163.13 75.8319 163.224 75.8119 163.319 75.8123C163.464 75.8126 163.605 75.859 163.723 75.9446Z" fill="#006B99"/>
<path d="M159.322 111.55L161.658 112.728C161.201 114.164 159.321 113.692 159.321 113.692L159.322 111.55Z" fill="#FFCEB6"/>
<path d="M158.289 68.3765V70.573L156.145 69.4927C156.365 69.1238 156.682 68.8243 157.061 68.6274C157.44 68.4302 157.865 68.3435 158.289 68.3765Z" fill="#FFCEB6"/>
<path d="M156.787 88.6217C157.123 89.5615 156.089 90.512 156.089 90.512C155.298 89.9622 153.669 90.7129 153.201 91.6112C151.778 91.4166 151.813 90.6659 152.311 89.9593C152.652 89.4996 153.076 89.1103 153.562 88.8126C154.675 88.135 156.452 87.6831 156.787 88.6217Z" fill="#FFCEB6"/>
<path d="M155.67 86.9412C156.937 87.6678 156.787 88.6217 156.787 88.6217C156.452 87.683 154.674 88.1349 153.56 88.8107C153.075 89.1084 152.65 89.4977 152.31 89.9577L152.148 89.8469C152.018 89.8399 151.889 89.8198 151.763 89.7876C150.715 89.5236 151.338 88.5624 151.382 88.493C151.94 88.2784 152.468 87.9922 152.955 87.6415C153.095 87.5321 153.214 87.3968 153.305 87.243L153.407 87.2582C153.407 87.2582 154.823 86.4545 155.67 86.9412Z" fill="#FFCEB6"/>
<path d="M153.2 91.6091C153.669 90.709 155.298 89.9602 156.089 90.51C156.881 91.0601 156.433 92.5578 154.56 94.7065C154.11 95.3037 153.535 95.7916 152.875 96.1341C152.215 96.477 151.487 96.6657 150.746 96.6868L149.412 99.4294V99.4672H142.548V99.4312L145.412 93.2896L148.071 88.1589C148.242 87.8771 148.489 87.6495 148.782 87.5027C149.953 86.8647 151.22 86.4295 152.533 86.2148C152.676 86.2056 152.818 86.2204 152.956 86.259C153.051 86.2882 153.139 86.3401 153.211 86.4098C153.283 86.4795 153.339 86.5652 153.373 86.6604C153.407 86.7553 153.418 86.8573 153.407 86.9577C153.395 87.0582 153.361 87.1542 153.306 87.2391C153.215 87.393 153.096 87.5283 152.956 87.6376C152.469 87.9883 151.941 88.2745 151.383 88.4892C151.212 88.5585 151.051 88.6245 150.908 88.6782L150.933 88.7468L146.502 93.4905C146.436 93.5628 146.386 93.6484 146.355 93.7419C146.324 93.8353 146.313 93.9343 146.323 94.0321C146.333 94.13 146.363 94.2249 146.411 94.3102C146.46 94.3958 146.525 94.4696 146.604 94.5274C146.723 94.613 146.865 94.659 147.011 94.6586C147.106 94.6586 147.2 94.639 147.287 94.6004C147.374 94.5623 147.452 94.5059 147.517 94.4355L151.653 90.0069L151.764 89.7837C151.89 89.8163 152.019 89.836 152.149 89.843L152.31 89.9539C151.813 90.6642 151.779 91.4149 153.2 91.6091Z" fill="#FFCEB6"/>
<path d="M155.819 85.3422C156.4 86.021 155.671 86.9411 155.671 86.9411C154.823 86.454 153.411 87.2551 153.411 87.2551L153.309 87.2399C153.364 87.1553 153.398 87.059 153.41 86.9585C153.422 86.858 153.41 86.7561 153.376 86.6612C153.342 86.5659 153.287 86.4803 153.214 86.4106C153.142 86.3409 153.054 86.289 152.959 86.2597C152.821 86.2211 152.678 86.2063 152.536 86.2156C152.756 85.82 153.071 85.4868 153.451 85.2462C153.831 85.0059 154.265 84.8658 154.712 84.8391C154.999 84.8525 155.278 84.9411 155.521 85.0964C155.632 85.1639 155.732 85.2465 155.819 85.3422Z" fill="#FFCEB6"/>
<path d="M155.522 153.604V153.965H143.553C143.033 153.966 142.521 153.838 142.061 153.593C141.602 153.348 141.209 152.992 140.916 152.558L140.962 152.526C141.365 149.376 143.379 147.833 145.781 147.833H146.073C146.246 147.833 146.412 147.763 146.535 147.639C146.658 147.515 146.727 147.346 146.727 147.171V146.121C146.306 145.911 145.951 145.585 145.703 145.181C145.455 144.777 145.324 144.31 145.325 143.835V142.415C145.318 142.076 145.379 141.739 145.503 141.424C145.626 141.109 145.811 140.823 146.046 140.58C146.28 140.338 146.56 140.146 146.869 140.015C147.178 139.884 147.509 139.816 147.844 139.816C148.179 139.816 148.511 139.884 148.82 140.015C149.128 140.146 149.408 140.338 149.643 140.58C149.877 140.823 150.062 141.109 150.186 141.424C150.309 141.739 150.37 142.076 150.364 142.415V143.835C150.364 144.311 150.232 144.777 149.984 145.181C149.736 145.585 149.381 145.911 148.959 146.121V147.174C148.959 147.35 149.028 147.518 149.151 147.642C149.273 147.766 149.44 147.836 149.613 147.836C150.363 147.811 151.11 147.943 151.806 148.225C152.503 148.508 153.133 148.934 153.657 149.477C154.182 150.02 154.589 150.668 154.852 151.379C155.115 152.09 155.229 152.849 155.187 153.607L155.522 153.604Z" fill="#006B99"/>
<path d="M155.522 136.789V153.605H155.187C155.23 152.847 155.116 152.088 154.853 151.377C154.59 150.665 154.183 150.018 153.659 149.474C153.134 148.932 152.504 148.505 151.807 148.223C151.111 147.94 150.364 147.808 149.614 147.834C149.441 147.834 149.274 147.764 149.152 147.64C149.029 147.516 148.96 147.347 148.96 147.172V146.122C149.381 145.912 149.736 145.586 149.985 145.182C150.233 144.778 150.365 144.312 150.365 143.836V142.416C150.352 141.748 150.081 141.111 149.61 140.643C149.139 140.175 148.505 139.913 147.845 139.913C147.185 139.913 146.551 140.175 146.08 140.643C145.609 141.111 145.338 141.748 145.326 142.416V143.836C145.325 144.311 145.456 144.778 145.704 145.182C145.952 145.586 146.307 145.912 146.728 146.122V147.174C146.728 147.35 146.659 147.519 146.536 147.643C146.414 147.767 146.247 147.837 146.073 147.837H145.782C143.381 147.837 141.366 149.382 140.962 152.53L140.916 152.561C140.549 152.023 140.353 151.384 140.354 150.73V136.789H155.522Z" fill="#F7CEDC"/>
<path d="M155.522 136.328V136.789H140.888V136.453C140.888 132.493 143.091 130.558 145.779 130.558H146.07C146.244 130.558 146.41 130.487 146.533 130.363C146.656 130.239 146.725 130.07 146.725 129.894V128.846C146.303 128.635 145.949 128.309 145.701 127.905C145.453 127.501 145.322 127.034 145.322 126.559V125.139C145.316 124.8 145.377 124.463 145.5 124.148C145.624 123.833 145.809 123.546 146.043 123.304C146.278 123.062 146.558 122.87 146.866 122.739C147.175 122.608 147.507 122.54 147.842 122.54C148.177 122.54 148.508 122.608 148.817 122.739C149.126 122.87 149.406 123.062 149.64 123.304C149.875 123.546 150.06 123.833 150.183 124.148C150.307 124.463 150.368 124.8 150.361 125.139V126.561C150.361 127.037 150.23 127.504 149.981 127.908C149.733 128.312 149.378 128.638 148.957 128.849V129.892C148.957 130.067 149.026 130.236 149.148 130.36C149.271 130.484 149.437 130.554 149.611 130.555C150.361 130.529 151.107 130.661 151.804 130.944C152.5 131.226 153.13 131.652 153.655 132.195C154.179 132.738 154.586 133.386 154.849 134.097C155.113 134.808 155.227 135.567 155.184 136.325L155.522 136.328Z" fill="#006B99"/>
<path d="M155.522 119.366V119.726H140.888V119.492C140.888 115.532 143.091 113.596 145.779 113.596H146.07C146.243 113.596 146.41 113.526 146.533 113.402C146.655 113.278 146.724 113.11 146.725 112.934V111.883C146.303 111.672 145.949 111.346 145.701 110.942C145.453 110.538 145.322 110.072 145.322 109.596V108.176C145.316 107.837 145.377 107.5 145.5 107.185C145.624 106.87 145.809 106.583 146.043 106.341C146.278 106.099 146.558 105.907 146.866 105.776C147.175 105.645 147.507 105.577 147.842 105.577C148.177 105.577 148.508 105.645 148.817 105.776C149.126 105.907 149.406 106.099 149.64 106.341C149.875 106.583 150.06 106.87 150.183 107.185C150.307 107.5 150.368 107.837 150.361 108.176V109.596C150.361 110.072 150.23 110.538 149.981 110.943C149.733 111.347 149.378 111.672 148.957 111.883V112.932C148.957 113.108 149.026 113.276 149.148 113.4C149.271 113.525 149.437 113.595 149.611 113.595C150.361 113.569 151.108 113.701 151.804 113.984C152.5 114.266 153.131 114.692 153.655 115.235C154.18 115.779 154.586 116.426 154.85 117.137C155.113 117.848 155.227 118.607 155.184 119.366H155.522Z" fill="#006B99"/>
<path d="M151.764 89.7871L151.652 90.0103L147.52 94.4388C147.455 94.5093 147.376 94.5656 147.29 94.6038C147.203 94.6424 147.108 94.6624 147.014 94.6624C146.868 94.6624 146.726 94.6164 146.607 94.5308C146.528 94.4729 146.463 94.3992 146.414 94.3139C146.366 94.2283 146.335 94.1337 146.326 94.0355C146.316 93.9376 146.327 93.8387 146.358 93.7452C146.389 93.6518 146.439 93.5662 146.505 93.4939L150.936 88.7502L150.911 88.6816C151.054 88.6279 151.215 88.5619 151.386 88.4929C151.343 88.5619 150.715 89.5235 151.764 89.7871Z" fill="#006B99"/>
<path d="M135.933 59.2957L138.272 60.4738C137.819 61.9085 135.936 61.438 135.936 61.438L135.933 59.2957Z" fill="#FFCEB6"/>
<path d="M137.251 105.336V115.408H133.05V115.303L130.186 111.883C130.757 110.538 131.062 109.093 131.082 107.63C131.082 105.93 129.978 103.809 129.025 102.293L133.05 99.4673L137.251 105.336Z" fill="#FFCEB6"/>
<path d="M128.187 56.4089V91.7542L128.143 91.8442C127.554 91.5751 126.934 91.3801 126.297 91.2637L126.325 91.1225V56.4089H128.187Z" fill="#CCEFF6"/>
<path d="M121.698 83.4453C122.204 84.4659 121.643 85.9495 120.575 86.0844C120.197 86.1378 119.811 86.0752 119.468 85.9043C119.908 85.2448 120.243 84.5196 120.464 83.7556C120.594 83.4379 120.808 83.0924 121.016 82.6531C121.311 82.8481 121.547 83.1224 121.698 83.4453Z" fill="#006B99"/>
<path d="M118.151 90.0323L121.58 91.1259C121.58 91.1259 119.694 93.2368 114.608 93.5129C111.419 93.6201 108.266 92.7908 105.532 91.1259L109.851 89.3194L107.049 86.3796C107.068 86.3796 106.68 83.2471 106.699 83.2445C107.232 83.1751 110.99 86.5524 111.297 86.106L112.129 86.3003C112.945 86.8671 113.837 87.3116 114.779 87.62L114.81 87.63C115.083 87.7335 117.137 88.4968 118.071 88.7856H118.088L118.096 88.9583L118.151 90.0323Z" fill="#FFCEB6"/>
<path d="M119.386 83.0464C119.288 83.1176 119.183 83.1799 119.074 83.2318C119.074 83.2318 118.007 82.996 117.614 82.9615C117.302 82.9337 115.527 83.022 114.844 83.0624C114.677 83.0687 114.577 83.075 114.577 83.075C115.021 83.4598 115.49 83.8145 115.979 84.1371C116.242 84.3321 116.545 84.4629 116.866 84.5197C117.187 84.5764 117.516 84.5575 117.829 84.464C118.412 84.0689 118.937 83.5918 119.386 83.0464ZM105.926 78.6175C106.413 78.0777 107.089 78.3754 107.527 78.6772C107.976 79.0064 108.521 79.1743 109.076 79.1543C111.998 78.9596 112.616 74.54 112.799 72.9692C112.799 72.9692 116.805 73.4085 118.099 74.0558C118.223 74.1188 118.347 74.1882 118.468 74.2575C119.738 75.0126 120.677 76.2289 121.094 77.6592L121.063 77.7489C120.982 77.9847 120.911 78.1415 120.911 78.1415C121.292 78.9715 121.435 79.8939 121.32 80.8021C121.203 81.4739 120.995 82.1259 120.702 82.7402C120.426 83.3345 120.134 83.7986 119.961 84.2264C119.664 85.2537 119.211 86.2283 118.62 87.1158C118.447 87.3252 118.238 87.5021 118.003 87.6378C117.78 87.7653 117.536 87.8494 117.283 87.8854C116.588 87.9673 115.883 87.9173 115.207 87.7378C115.077 87.7063 114.94 87.6719 114.813 87.6315L114.781 87.6214C113.84 87.3126 112.948 86.8685 112.132 86.3021L110.68 86.1074C110.962 85.7582 111.134 85.33 111.171 84.88C111.208 84.4303 111.109 83.9792 110.888 83.5873C110.354 82.7395 109.969 82.3999 108.616 83.0068C108.289 83.1784 108.019 83.4438 107.841 83.7701L107.747 84.1968C106.839 83.6666 104.813 80.8959 105.681 79.0112C105.741 78.867 105.823 78.7343 105.926 78.6175Z" fill="#FFCEB6"/>
<path d="M112.792 72.9533C112.794 72.9585 112.794 72.9641 112.792 72.9693C112.601 74.6564 111.899 79.6196 108.396 79.1265C108.149 79.0898 107.916 78.9864 107.722 78.8273C107.319 78.5007 106.494 77.9795 105.923 78.6179C105.82 78.7347 105.736 78.867 105.674 79.0101C104.805 80.8952 106.438 82.4407 107.346 82.9708L108.079 83.4802C107.917 83.7597 107.827 84.0763 107.819 84.4003C107.81 84.7243 107.882 85.0454 108.029 85.3338C108.411 86.4237 109.286 86.3002 109.954 86.3166L109.848 89.3194L105.528 91.1259C103.641 91.4465 101.81 92.043 100.093 92.8964C98.4822 88.367 103.782 80.8878 105.256 76.487C105.411 76.0281 105.221 72.6671 107.651 69.8938C108.883 68.8888 110.325 68.1826 111.868 67.8297C112.046 67.7829 112.216 67.7411 112.38 67.7047C113.994 67.3978 115.662 67.6217 117.141 68.3431C118.62 69.0649 119.832 70.2467 120.6 71.7155C122.679 76.004 121.09 77.6562 121.09 77.6562C120.674 76.2264 119.735 75.0101 118.465 74.2549C117.362 73.3333 116.058 72.6923 114.661 72.3854C112.753 72.074 112.78 72.8436 112.792 72.9533Z" fill="#006B99"/>
<path d="M118.466 74.2574C118.345 74.1881 118.22 74.1188 118.096 74.0558C116.802 73.4085 112.796 72.9692 112.796 72.9692C112.798 72.964 112.798 72.9584 112.796 72.9533C112.784 72.8432 112.756 72.0735 114.664 72.3879C116.06 72.6956 117.363 73.3366 118.466 74.2574Z" fill="#006B99"/>
<path d="M118.028 87.6856L118.087 88.7855H118.071C117.137 88.4964 115.083 87.7331 114.81 87.6296C114.94 87.67 115.077 87.7045 115.204 87.736C115.881 87.9155 116.585 87.9655 117.28 87.8836C117.533 87.8476 117.777 87.7635 117.999 87.6359L118.028 87.6856Z" fill="#006B99"/>
<path d="M109.789 86.1623C109.385 86.2113 108.976 86.1134 108.637 85.8862C108.297 85.6589 108.048 85.3171 107.934 84.9212C107.851 84.685 107.821 84.4333 107.847 84.1838C107.873 83.9347 107.953 83.6945 108.083 83.481C108.207 83.27 108.394 83.1043 108.617 83.0068C108.808 82.8923 109.023 82.82 109.244 82.7951C109.466 82.7707 109.69 82.7936 109.903 82.863C110.115 82.9323 110.31 83.0465 110.475 83.1981C110.641 83.3493 110.773 83.5343 110.862 83.7412C110.996 84.037 111.052 84.3629 111.025 84.6869C110.998 85.0113 110.889 85.323 110.708 85.5918C110.61 85.7442 110.482 85.8736 110.331 85.9714C110.18 86.0693 110.01 86.1334 109.833 86.1598C109.818 86.159 109.805 86.1623 109.789 86.1623Z" fill="#CCEFF6"/>
<path d="M105.532 106.476L105.259 115.408H96.2477V106.103L105.532 106.476Z" fill="#FFCEB6"/>
<path d="M100.995 53.0981C101.213 53.0978 101.427 53.163 101.609 53.2857C101.79 53.4084 101.932 53.5827 102.016 53.7869C102.1 53.9912 102.122 54.2159 102.079 54.4327C102.037 54.6496 101.931 54.8487 101.777 55.0051C101.623 55.1616 101.426 55.2679 101.212 55.311C100.997 55.354 100.775 55.3317 100.574 55.2468C100.372 55.1623 100.2 55.0188 100.079 54.8346C99.9575 54.6507 99.8929 54.4346 99.8933 54.2136C99.8937 53.9178 100.01 53.6342 100.216 53.4251C100.423 53.216 100.703 53.0985 100.995 53.0981Z" fill="#FFCEB6"/>
<path d="M96.6515 53.0981C96.8699 53.0978 97.0836 53.163 97.2651 53.2857C97.4471 53.4084 97.5888 53.5827 97.6722 53.7869C97.7559 53.9912 97.7781 54.2159 97.7356 54.4327C97.6932 54.6496 97.588 54.8487 97.4334 55.0051C97.2792 55.1616 97.0821 55.2679 96.8681 55.311C96.6537 55.354 96.4319 55.3317 96.23 55.2468C96.0286 55.1623 95.8562 55.0188 95.7348 54.8346C95.6138 54.6507 95.5496 54.4346 95.5499 54.2136C95.5499 53.9178 95.6662 53.6342 95.8728 53.4251C96.0791 53.216 96.3592 53.0985 96.6515 53.0981Z" fill="#CCEFF6"/>
<path d="M211.906 156.548C211.283 156.915 210.575 157.108 209.855 157.107H141.325C140.79 157.107 140.26 157.001 139.766 156.794C139.271 156.587 138.822 156.283 138.443 155.9C138.065 155.517 137.765 155.062 137.56 154.561C137.356 154.061 137.251 153.524 137.251 152.983V103.594C137.251 102.499 137.68 101.45 138.444 100.677C139.208 99.9029 140.245 99.468 141.325 99.4673H209.855C210.39 99.4673 210.92 99.5737 211.415 99.7813C211.91 99.9885 212.36 100.293 212.739 100.676C213.117 101.059 213.418 101.514 213.622 102.015C213.827 102.516 213.933 103.053 213.932 103.595V152.985C213.932 153.706 213.745 154.415 213.389 155.04C213.034 155.666 212.522 156.185 211.906 156.548Z" stroke="#006B99" stroke-width="3.23435" stroke-linecap="round" stroke-linejoin="round"/>
<path d="M155.522 153.966H143.553C142.704 153.966 141.889 153.624 141.289 153.016C140.689 152.409 140.352 151.584 140.352 150.725V105.845C140.352 104.986 140.689 104.162 141.289 103.554C141.889 102.946 142.704 102.605 143.553 102.605H207.627C208.476 102.605 209.29 102.946 209.891 103.554C210.491 104.162 210.828 104.986 210.828 105.845V150.727C210.828 151.586 210.491 152.41 209.891 153.018C209.29 153.626 208.476 153.967 207.627 153.967H155.522V153.966Z" stroke="#006B99" stroke-width="3.23435" stroke-linecap="round" stroke-linejoin="round"/>
<path d="M171.576 101.3H176.86" stroke="#006B99" stroke-width="3.23435" stroke-linecap="round" stroke-linejoin="round"/>
<path d="M155.521 102.607V119.365V119.724V136.328V136.789V153.605V153.965" stroke="#006B99" stroke-width="3.23435" stroke-linecap="round" stroke-linejoin="round"/>
<path d="M195.86 102.607V119.365V119.724V136.328V136.789V153.605V153.965" stroke="#006B99" stroke-width="3.23435" stroke-linecap="round" stroke-linejoin="round"/>
<path d="M140.354 119.724H140.888H155.521" stroke="#006B99" stroke-width="3.23435" stroke-linecap="round" stroke-linejoin="round"/>
<path d="M140.354 136.789H140.888H155.521" stroke="#006B99" stroke-width="3.23435" stroke-linecap="round" stroke-linejoin="round"/>
<path d="M155.187 119.366C155.229 118.608 155.114 117.849 154.851 117.139C154.587 116.428 154.18 115.781 153.656 115.238C153.132 114.696 152.501 114.27 151.805 113.988C151.109 113.705 150.363 113.573 149.613 113.599C149.44 113.599 149.273 113.529 149.151 113.405C149.028 113.281 148.959 113.113 148.959 112.937V111.883C149.381 111.672 149.736 111.347 149.984 110.942C150.232 110.539 150.364 110.072 150.364 109.596V108.176C150.351 107.508 150.081 106.871 149.61 106.403C149.138 105.935 148.504 105.673 147.844 105.673C147.184 105.673 146.55 105.935 146.079 106.403C145.608 106.871 145.338 107.508 145.325 108.176V109.596C145.325 110.072 145.456 110.538 145.704 110.942C145.952 111.346 146.306 111.672 146.727 111.883V112.932C146.727 113.108 146.658 113.276 146.535 113.401C146.412 113.525 146.246 113.595 146.073 113.595H145.781C143.091 113.595 140.891 115.533 140.891 119.491" stroke="#006B99" stroke-width="3.23435" stroke-linecap="round" stroke-linejoin="round"/>
<path d="M155.187 136.328C155.229 135.57 155.115 134.811 154.852 134.1C154.589 133.389 154.181 132.741 153.657 132.198C153.133 131.655 152.502 131.229 151.806 130.946C151.11 130.664 150.363 130.532 149.613 130.558C149.44 130.557 149.273 130.487 149.151 130.362C149.028 130.238 148.959 130.07 148.959 129.894V128.845C149.38 128.635 149.735 128.31 149.983 127.906C150.232 127.503 150.364 127.037 150.365 126.561V125.139C150.352 124.471 150.081 123.834 149.61 123.366C149.139 122.898 148.505 122.636 147.845 122.636C147.185 122.636 146.551 122.898 146.08 123.366C145.609 123.834 145.338 124.471 145.326 125.139V126.561C145.325 127.037 145.456 127.503 145.704 127.908C145.952 128.312 146.307 128.638 146.728 128.848V129.892C146.728 130.067 146.659 130.236 146.536 130.36C146.414 130.485 146.247 130.555 146.073 130.555H145.782C143.091 130.555 140.891 132.493 140.891 136.451" stroke="#006B99" stroke-width="3.23435" stroke-linecap="round" stroke-linejoin="round"/>
<path d="M155.186 153.605C155.229 152.846 155.115 152.088 154.852 151.377C154.589 150.665 154.182 150.017 153.657 149.474C153.133 148.931 152.502 148.505 151.806 148.222C151.11 147.94 150.363 147.808 149.613 147.834C149.44 147.834 149.273 147.764 149.151 147.64C149.028 147.516 148.959 147.347 148.959 147.171V146.122C149.38 145.911 149.736 145.586 149.983 145.182C150.232 144.778 150.364 144.311 150.364 143.835V142.416C150.351 141.748 150.08 141.111 149.609 140.643C149.138 140.175 148.504 139.913 147.844 139.913C147.184 139.913 146.55 140.175 146.079 140.643C145.608 141.111 145.337 141.748 145.325 142.416V143.835C145.324 144.311 145.455 144.777 145.703 145.181C145.951 145.586 146.305 145.911 146.727 146.122V147.174C146.727 147.35 146.658 147.518 146.535 147.643C146.412 147.767 146.246 147.837 146.072 147.837H145.781C143.38 147.837 141.365 149.382 140.961 152.53" stroke="#006B99" stroke-width="3.23435" stroke-linecap="round" stroke-linejoin="round"/>
<path d="M210.83 119.724H210.221H195.897" stroke="#006B99" stroke-width="3.23435" stroke-linecap="round" stroke-linejoin="round"/>
<path d="M210.83 136.789H210.221H195.897" stroke="#006B99" stroke-width="3.23435" stroke-linecap="round" stroke-linejoin="round"/>
<path d="M195.922 119.366C195.88 118.608 195.994 117.85 196.257 117.139C196.521 116.429 196.927 115.782 197.451 115.24C197.975 114.697 198.605 114.271 199.301 113.988C199.997 113.706 200.743 113.574 201.492 113.599C201.666 113.599 201.834 113.529 201.958 113.405C202.08 113.281 202.149 113.112 202.15 112.937V111.883C201.728 111.673 201.373 111.347 201.125 110.943C200.876 110.538 200.745 110.072 200.744 109.596V108.176C200.744 107.499 201.01 106.851 201.482 106.372C201.955 105.894 202.596 105.625 203.264 105.625C203.932 105.625 204.573 105.894 205.046 106.372C205.519 106.851 205.784 107.499 205.784 108.176V109.596C205.784 110.072 205.652 110.538 205.403 110.943C205.155 111.347 204.8 111.673 204.378 111.883V112.932C204.379 113.108 204.448 113.277 204.572 113.401C204.695 113.525 204.862 113.595 205.036 113.595H205.324C208.018 113.595 210.221 115.533 210.221 119.491" stroke="#006B99" stroke-width="3.23435" stroke-linecap="round" stroke-linejoin="round"/>
<path d="M195.922 136.327C195.88 135.57 195.993 134.811 196.256 134.1C196.52 133.389 196.926 132.742 197.45 132.199C197.974 131.656 198.604 131.23 199.3 130.947C199.996 130.665 200.743 130.532 201.492 130.558C201.667 130.558 201.834 130.487 201.958 130.362C202.081 130.238 202.15 130.07 202.15 129.894V128.846C201.728 128.635 201.373 128.31 201.125 127.905C200.876 127.501 200.745 127.035 200.744 126.558V125.139C200.744 124.462 201.01 123.813 201.482 123.335C201.955 122.857 202.596 122.588 203.264 122.588C203.933 122.588 204.574 122.857 205.046 123.335C205.519 123.813 205.784 124.462 205.784 125.139V126.561C205.784 127.037 205.652 127.504 205.404 127.908C205.155 128.312 204.8 128.638 204.378 128.848V129.892C204.379 130.068 204.449 130.237 204.572 130.361C204.695 130.485 204.862 130.555 205.036 130.555H205.324C208.018 130.555 210.221 132.493 210.221 136.451" stroke="#006B99" stroke-width="3.23435" stroke-linecap="round" stroke-linejoin="round"/>
<path d="M195.922 153.604C195.879 152.847 195.993 152.088 196.256 151.377C196.519 150.666 196.926 150.019 197.45 149.475C197.974 148.932 198.604 148.506 199.3 148.224C199.996 147.941 200.743 147.808 201.492 147.834C201.578 147.834 201.664 147.817 201.744 147.784C201.823 147.751 201.896 147.702 201.957 147.641C202.018 147.579 202.066 147.506 202.1 147.425C202.133 147.345 202.15 147.259 202.15 147.171V146.122C201.728 145.911 201.373 145.586 201.125 145.182C200.876 144.778 200.745 144.311 200.744 143.835V142.416C200.744 141.739 201.01 141.091 201.482 140.612C201.955 140.134 202.596 139.865 203.264 139.865C203.933 139.865 204.574 140.134 205.046 140.612C205.519 141.091 205.784 141.739 205.784 142.416V143.835C205.784 144.311 205.652 144.778 205.404 145.182C205.155 145.586 204.8 145.911 204.378 146.122V147.174C204.379 147.35 204.449 147.519 204.572 147.643C204.695 147.767 204.863 147.837 205.036 147.837H205.325C207.725 147.837 209.743 149.382 210.147 152.53" stroke="#006B99" stroke-width="3.23435" stroke-linecap="round" stroke-linejoin="round"/>
<path d="M195.86 99.4654V88.1344V83.3511H262.404V88.1344V128.286H213.933" stroke="#006B99" stroke-width="3.23435" stroke-linecap="round" stroke-linejoin="round"/>
<path d="M195.86 88.1345H262.404" stroke="#006B99" stroke-width="3.23435" stroke-linecap="round" stroke-linejoin="round"/>
<path d="M200.158 85.9395C200.159 86.1604 200.094 86.3765 199.973 86.5604C199.852 86.7443 199.68 86.8877 199.478 86.9726C199.277 87.0575 199.055 87.0798 198.841 87.0372C198.627 86.9941 198.43 86.8881 198.275 86.732C198.121 86.576 198.016 86.3769 197.973 86.1604C197.93 85.9435 197.952 85.7189 198.035 85.5146C198.118 85.3104 198.26 85.1357 198.441 85.013C198.622 84.89 198.836 84.8243 199.054 84.824C199.199 84.824 199.342 84.8525 199.476 84.9085C199.61 84.9645 199.732 85.0464 199.835 85.1502C199.937 85.2536 200.018 85.3767 200.074 85.512C200.129 85.6473 200.158 85.7927 200.158 85.9395Z" stroke="#006B99" stroke-width="3.23435" stroke-linecap="round" stroke-linejoin="round"/>
<path d="M204.499 85.9395C204.5 86.1604 204.435 86.3762 204.315 86.5604C204.193 86.7443 204.022 86.8878 203.82 86.9726C203.618 87.0572 203.396 87.0798 203.182 87.0372C202.968 86.9942 202.772 86.8881 202.617 86.7324C202.462 86.5764 202.357 86.3773 202.314 86.1608C202.271 85.9443 202.293 85.7196 202.376 85.5154C202.459 85.3111 202.6 85.1365 202.781 85.0134C202.963 84.8903 203.176 84.8243 203.394 84.824C203.539 84.8236 203.683 84.8521 203.817 84.9081C203.951 84.9641 204.072 85.046 204.175 85.1498C204.278 85.2533 204.359 85.3763 204.415 85.512C204.471 85.6473 204.499 85.7927 204.499 85.9395Z" stroke="#006B99" stroke-width="3.23435" stroke-linecap="round" stroke-linejoin="round"/>
<path d="M208.843 85.9395C208.844 86.1604 208.779 86.3765 208.658 86.5604C208.537 86.7443 208.365 86.8878 208.163 86.9726C207.962 87.0575 207.74 87.0798 207.526 87.0372C207.312 86.9942 207.115 86.8881 206.96 86.7321C206.806 86.576 206.7 86.3769 206.657 86.1604C206.615 85.9435 206.636 85.7189 206.72 85.5146C206.803 85.3104 206.944 85.1357 207.126 85.013C207.307 84.89 207.521 84.8243 207.739 84.824C207.884 84.8236 208.027 84.8521 208.161 84.9081C208.295 84.9641 208.417 85.046 208.52 85.1498C208.622 85.2533 208.703 85.3763 208.759 85.512C208.814 85.6473 208.843 85.7927 208.843 85.9395Z" stroke="#006B99" stroke-width="3.23435" stroke-linecap="round" stroke-linejoin="round"/>
<path d="M137.251 115.408H133.049H128.187H105.258H96.2477H93.4609V56.4086V51.6245H184.829V56.4086V99.4655" stroke="#006B99" stroke-width="3.23435" stroke-linecap="round" stroke-linejoin="round"/>
<path d="M93.4609 56.4089H126.325H128.187H184.829" stroke="#006B99" stroke-width="3.23435" stroke-linecap="round" stroke-linejoin="round"/>
<path d="M97.7559 54.2136C97.7563 54.4346 97.6917 54.6507 97.571 54.8346C97.45 55.0185 97.2777 55.1619 97.0762 55.2468C96.8747 55.3317 96.6529 55.354 96.4385 55.3113C96.2245 55.2683 96.0278 55.1623 95.8732 55.0062C95.7185 54.8502 95.6134 54.6511 95.5706 54.4346C95.5278 54.2177 95.5492 53.9931 95.6326 53.7888C95.716 53.5845 95.8573 53.4099 96.0385 53.2872C96.22 53.1641 96.4333 53.0985 96.6514 53.0981C96.9441 53.0981 97.2245 53.2153 97.4319 53.4244C97.6389 53.6335 97.7555 53.9174 97.7559 54.2136Z" stroke="#006B99" stroke-width="3.23435" stroke-linecap="round" stroke-linejoin="round"/>
<path d="M102.1 54.2136C102.101 54.4346 102.036 54.6503 101.915 54.8342C101.794 55.0185 101.622 55.1619 101.421 55.2464C101.219 55.3313 100.997 55.354 100.783 55.3113C100.569 55.2683 100.372 55.1623 100.218 55.0066C100.063 54.8505 99.9579 54.6514 99.9151 54.4349C99.8719 54.2185 99.8933 53.9938 99.9767 53.7895C100.06 53.5853 100.201 53.4107 100.382 53.2876C100.563 53.1645 100.777 53.0985 100.995 53.0981C101.14 53.0981 101.283 53.1267 101.417 53.1827C101.551 53.2386 101.673 53.3206 101.776 53.424C101.879 53.5278 101.96 53.6509 102.016 53.7862C102.071 53.9215 102.1 54.0668 102.1 54.2136Z" stroke="#006B99" stroke-width="3.23435" stroke-linecap="round" stroke-linejoin="round"/>
<path d="M106.444 54.2136C106.444 54.4346 106.38 54.6507 106.259 54.8346C106.138 55.0185 105.966 55.1619 105.764 55.2468C105.563 55.3317 105.341 55.354 105.127 55.3113C104.912 55.2683 104.716 55.1623 104.561 55.0062C104.407 54.8502 104.301 54.6511 104.258 54.4346C104.216 54.2177 104.237 53.9931 104.32 53.7888C104.404 53.5845 104.545 53.4099 104.727 53.2872C104.908 53.1641 105.121 53.0985 105.34 53.0981C105.632 53.0981 105.913 53.2153 106.12 53.4244C106.327 53.6335 106.443 53.9174 106.444 54.2136Z" stroke="#006B99" stroke-width="3.23435" stroke-linecap="round" stroke-linejoin="round"/>
<path d="M167.391 176.687L140.075 157.107V158.187C140.074 158.922 140.248 159.646 140.582 160.299C140.916 160.952 141.399 161.514 141.992 161.938L174.447 185.202C175.8 186.169 177.415 186.689 179.071 186.69H245.859C246.29 186.691 246.716 186.605 247.114 186.438C247.511 186.272 247.873 186.028 248.177 185.72C248.482 185.412 248.723 185.046 248.888 184.643C249.052 184.241 249.137 183.809 249.137 183.374V183.235" stroke="#006B99" stroke-width="3.23435" stroke-linecap="round" stroke-linejoin="round"/>
<path d="M211.906 156.548L249.132 183.232H176.522" stroke="#006B99" stroke-width="3.23435" stroke-linecap="round" stroke-linejoin="round"/>
<path d="M206.339 96.2773H251.922" stroke="#006B99" stroke-width="3.23435" stroke-linecap="round" stroke-linejoin="round"/>
<path d="M214.407 106.643H251.922" stroke="#006B99" stroke-width="3.23435" stroke-linecap="round" stroke-linejoin="round"/>
<path d="M214.407 117.009H251.922" stroke="#006B99" stroke-width="3.23435" stroke-linecap="round" stroke-linejoin="round"/>
<path d="M120.007 143.93H135.1" stroke="#006B99" stroke-width="3.23435" stroke-linecap="round" stroke-linejoin="round"/>
<path d="M216.201 143.93H237.499" stroke="#006B99" stroke-width="3.23435" stroke-linecap="round" stroke-linejoin="round"/>
<path d="M167.391 176.687L176.523 183.232V186.188" stroke="#006B99" stroke-width="3.23435" stroke-linecap="round" stroke-linejoin="round"/>
<path d="M193.589 180.72L186.524 175.656H214.863" stroke="#F7CEDC" stroke-width="3.23435" stroke-linecap="round" stroke-linejoin="round"/>
<path d="M214.935 175.656L222 180.72H193.661" stroke="#006B99" stroke-width="3.23435" stroke-linecap="round" stroke-linejoin="round"/>
<path d="M229.122 173.193H209.591H170.165L156.791 163.606L151.683 159.943H173.404H210.64L223.384 169.081L229.122 173.193Z" stroke="#006B99" stroke-width="3.23435" stroke-linecap="round" stroke-linejoin="round"/>
<path d="M156.79 163.606H178.511H207.745" stroke="#006B99" stroke-width="3.23435" stroke-linecap="round" stroke-linejoin="round"/>
<path d="M172.306 169.261H204.266H223.26" stroke="#006B99" stroke-width="3.23435" stroke-linecap="round" stroke-linejoin="round"/>
<path d="M173.405 159.943L178.512 163.606L183.836 167.423" stroke="#006B99" stroke-width="3.23435" stroke-linecap="round" stroke-linejoin="round"/>
<path d="M199.159 165.598L204.267 169.26L209.591 173.077" stroke="#006B99" stroke-width="3.23435" stroke-linecap="round" stroke-linejoin="round"/>
<path d="M182.97 132.862C183.818 132.862 184.656 133.031 185.439 133.359C186.221 133.688 186.932 134.169 187.531 134.775C188.13 135.382 188.605 136.102 188.929 136.894C189.252 137.686 189.419 138.535 189.419 139.392C189.42 139.413 189.42 139.434 189.419 139.455C189.419 141.186 188.74 142.846 187.531 144.07C186.322 145.294 184.682 145.981 182.972 145.981C181.262 145.981 179.623 145.294 178.414 144.07C177.205 142.846 176.526 141.186 176.526 139.455C176.524 139.434 176.524 139.413 176.526 139.392C176.525 137.661 177.204 136.001 178.413 134.776C179.621 133.552 181.261 132.863 182.97 132.862Z" stroke="#006B99" stroke-width="3.23435" stroke-linecap="round" stroke-linejoin="round"/>
<path d="M182.971 128.724V132.863V139.457V145.921V149.562" stroke="#006B99" stroke-width="3.23435" stroke-linecap="round" stroke-linejoin="round"/>
<path d="M193.263 139.457H189.415H182.971H176.526H172.678" stroke="#006B99" stroke-width="3.23435" stroke-linecap="round" stroke-linejoin="round"/>
<path d="M159.497 79.104C159.536 77.3998 160.232 75.7786 161.437 74.5875C162.642 73.3964 164.259 72.7295 165.943 72.7295C167.627 72.7295 169.244 73.3964 170.449 74.5875C171.653 75.7786 172.35 77.3998 172.389 79.104C172.391 79.1262 172.391 79.1484 172.389 79.1707C172.374 80.7084 171.823 82.1913 170.832 83.3579C169.843 84.5242 168.478 85.2997 166.978 85.5474C165.479 85.7947 163.941 85.4985 162.637 84.7107C161.332 83.9229 160.344 82.694 159.847 81.2408" stroke="#006B99" stroke-width="3.23435" stroke-linecap="round" stroke-linejoin="round"/>
<path d="M165.945 68.436V72.5766V79.1701V85.6314V89.2751" stroke="#006B99" stroke-width="3.23435" stroke-linecap="round" stroke-linejoin="round"/>
<path d="M159.816 79.1702H159.497H155.652" stroke="#006B99" stroke-width="3.23435" stroke-linecap="round" stroke-linejoin="round"/>
<path d="M176.237 79.1702H172.389H165.944H161.969" stroke="#006B99" stroke-width="3.23435" stroke-linecap="round" stroke-linejoin="round"/>
<path d="M159.322 113.692V117.911L169.528 116.698L181.679 115.254V120.631V122.827L179.532 121.743L169.528 116.698L161.659 112.728L159.322 111.55V113.692Z" stroke="#006B99" stroke-width="3.23435" stroke-linecap="round" stroke-linejoin="round"/>
<path d="M159.322 113.69C159.322 113.69 161.202 114.161 161.659 112.725" stroke="#006B99" stroke-width="3.23435" stroke-linecap="round" stroke-linejoin="round"/>
<path d="M179.53 121.743C179.751 121.374 180.068 121.075 180.448 120.879C180.827 120.683 181.252 120.597 181.677 120.631" stroke="#006B99" stroke-width="3.23435" stroke-linecap="round" stroke-linejoin="round"/>
<path d="M135.933 61.438V65.6594L146.141 64.4442L158.289 62.9987V68.3771V70.5725L156.142 69.4885L146.141 64.4442L138.269 60.4738L135.933 59.2957V61.438Z" stroke="#006B99" stroke-width="3.23435" stroke-linecap="round" stroke-linejoin="round"/>
<path d="M135.933 61.4376C135.933 61.4376 137.816 61.9084 138.269 60.4734" stroke="#006B99" stroke-width="3.23435" stroke-linecap="round" stroke-linejoin="round"/>
<path d="M156.145 69.4931C156.366 69.1246 156.683 68.8258 157.063 68.6293C157.442 68.4332 157.867 68.3472 158.292 68.3817" stroke="#006B99" stroke-width="3.23435" stroke-linecap="round" stroke-linejoin="round"/>
<path d="M172.665 136.381H165.1V133.24V128.723H169.563H172.665V136.381Z" stroke="#006B99" stroke-width="3.23435" stroke-linecap="round" stroke-linejoin="round"/>
<path d="M169.563 133.24H165.1H161.998V125.582H169.563V128.723V133.24Z" stroke="#006B99" stroke-width="3.23435" stroke-linecap="round" stroke-linejoin="round"/>
<path d="M161.998 125.582L165.1 128.723" stroke="#006B99" stroke-width="3.23435" stroke-linecap="round" stroke-linejoin="round"/>
<path d="M169.563 125.582L172.665 128.723" stroke="#006B99" stroke-width="3.23435" stroke-linecap="round" stroke-linejoin="round"/>
<path d="M169.563 133.24L172.665 136.381" stroke="#006B99" stroke-width="3.23435" stroke-linecap="round" stroke-linejoin="round"/>
<path d="M161.998 133.24L165.1 136.381" stroke="#006B99" stroke-width="3.23435" stroke-linecap="round" stroke-linejoin="round"/>
<path d="M144.744 87.0015H137.179V83.8601V79.3433H141.642H144.744V87.0015Z" stroke="#006B99" stroke-width="3.23435" stroke-linecap="round" stroke-linejoin="round"/>
<path d="M141.642 83.8597H137.179H134.077V76.2014H141.642V79.3429V83.8597Z" stroke="#006B99" stroke-width="3.23435" stroke-linecap="round" stroke-linejoin="round"/>
<path d="M134.077 76.2014L137.179 79.3429" stroke="#006B99" stroke-width="3.23435" stroke-linecap="round" stroke-linejoin="round"/>
<path d="M141.642 76.2014L144.745 79.3429" stroke="#006B99" stroke-width="3.23435" stroke-linecap="round" stroke-linejoin="round"/>
<path d="M141.642 83.8599L144.745 87.0013" stroke="#006B99" stroke-width="3.23435" stroke-linecap="round" stroke-linejoin="round"/>
<path d="M134.077 83.8599L137.179 87.0013" stroke="#006B99" stroke-width="3.23435" stroke-linecap="round" stroke-linejoin="round"/>
<path d="M161.687 146.179C161.687 146.179 160.418 146.701 160.354 147.612C160.29 148.522 161.449 148.525 161.964 148.004C161.983 147.383 161.918 146.761 161.772 146.157C161.719 145.949 161.643 145.747 161.545 145.557C161.064 144.646 160.257 144.775 159.969 145.394" stroke="#006B99" stroke-width="3.23435" stroke-linecap="round" stroke-linejoin="round"/>
<path d="M186.238 108.469C186.238 108.469 184.969 108.99 184.905 109.904C184.841 110.819 186 110.819 186.515 110.297C186.534 109.674 186.469 109.052 186.323 108.447C186.271 108.24 186.195 108.04 186.096 107.85C185.615 106.936 184.809 107.068 184.52 107.687" stroke="#006B99" stroke-width="3.23435" stroke-linecap="round" stroke-linejoin="round"/>
<path d="M163.548 145.921H165.1" stroke="#006B99" stroke-width="3.23435" stroke-linecap="round" stroke-linejoin="round"/>
<path d="M163.548 147.178H165.1" stroke="#006B99" stroke-width="3.23435" stroke-linecap="round" stroke-linejoin="round"/>
<path d="M166.548 145.528C166.625 144.538 168.959 144.52 168.509 146.235C168.202 147.401 166.594 148.356 166.594 148.356H169.226" stroke="#006B99" stroke-width="3.23435" stroke-linecap="round" stroke-linejoin="round"/>
<path d="M177.28 107.767C177.36 106.782 179.694 106.759 179.236 108.471C178.929 109.641 177.324 110.595 177.324 110.595H179.953" stroke="#006B99" stroke-width="3.23435" stroke-linecap="round" stroke-linejoin="round"/>
<path d="M171.902 106.499C171.955 105.836 173.522 105.823 173.218 106.974C173.013 107.752 171.936 108.396 171.936 108.396H173.698" stroke="#006B99" stroke-width="3.23435" stroke-linecap="round" stroke-linejoin="round"/>
<path d="M170.94 147.781C172.007 149.031 173.637 148.243 173.084 146.971C172.531 145.699 171.04 146.609 170.94 147.781Z" stroke="#006B99" stroke-width="3.23435" stroke-linecap="round" stroke-linejoin="round"/>
<path d="M171.921 144.329C171.282 145.017 169.876 146.528 170.943 147.781" stroke="#006B99" stroke-width="3.23435" stroke-linecap="round" stroke-linejoin="round"/>
<path d="M182.042 107.51V108.513V109.514" stroke="#006B99" stroke-width="3.23435" stroke-linecap="round" stroke-linejoin="round"/>
<path d="M180.938 108.512H182.043H183.067" stroke="#006B99" stroke-width="3.23435" stroke-linecap="round" stroke-linejoin="round"/>
<path d="M176.404 106.015C175.489 106.297 174.729 108.06 175.014 109.3C175.09 109.829 175.301 110.329 175.625 110.751C175.948 111.173 176.375 111.503 176.862 111.709" stroke="#006B99" stroke-width="3.23435" stroke-linecap="round" stroke-linejoin="round"/>
<path d="M187.203 106.015C188.119 106.297 188.879 108.06 188.593 109.3C188.516 109.828 188.306 110.327 187.983 110.749C187.659 111.171 187.234 111.501 186.747 111.707" stroke="#006B99" stroke-width="3.23435" stroke-linecap="round" stroke-linejoin="round"/>
<path d="M126.325 56.4089V91.1258" stroke="#006B99" stroke-width="3.23435" stroke-linecap="round" stroke-linejoin="round"/>
<path d="M128.187 56.4089V91.7542" stroke="#006B99" stroke-width="3.23435" stroke-linecap="round" stroke-linejoin="round"/>
<path d="M105.532 104.887V106.476L96.2477 106.103L95.227 106.063C95.227 106.063 95.2956 98.7362 97.2064 95.4231C97.9209 94.3284 98.9194 93.4539 100.093 92.8963C101.811 92.0414 103.643 91.4435 105.532 91.1221C108.267 92.7873 111.419 93.6162 114.608 93.5095C119.695 93.2329 121.58 91.1221 121.58 91.1221C123.152 90.9437 124.739 90.9912 126.297 91.2633C126.934 91.3801 127.554 91.5751 128.143 91.8442C128.593 92.0481 129.007 92.3239 129.37 92.6613C131.138 94.5197 132.69 96.5779 133.993 98.7959L133.047 99.4617L129.025 102.293" stroke="#006B99" stroke-width="3.23435" stroke-linecap="round" stroke-linejoin="round"/>
<path d="M96.2477 106.103V115.408" stroke="#006B99" stroke-width="3.23435" stroke-linecap="round" stroke-linejoin="round"/>
<path d="M105.532 106.477L105.259 115.408" stroke="#006B99" stroke-width="3.23435" stroke-linecap="round" stroke-linejoin="round"/>
<path d="M127.656 100.333C127.656 100.333 128.295 101.137 129.025 102.293C129.978 103.809 131.079 105.93 131.082 107.63C131.062 109.093 130.757 110.538 130.186 111.883C129.683 113.113 129.01 114.265 128.187 115.303" stroke="#006B99" stroke-width="3.23435" stroke-linecap="round" stroke-linejoin="round"/>
<path d="M120.609 106.103C120.609 106.103 120.845 110.557 119.204 112.558" stroke="#006B99" stroke-width="3.23435" stroke-linecap="round" stroke-linejoin="round"/>
<path d="M120.017 78.9067C119.735 78.7825 119.434 78.7058 119.128 78.6798C118.84 78.6187 118.541 78.6372 118.262 78.7339" stroke="#006B99" stroke-width="3.23435" stroke-linecap="round" stroke-linejoin="round"/>
<path d="M113.491 78.5841C113.838 78.4973 114.191 78.4343 114.546 78.3954C114.835 78.3383 115.135 78.3613 115.412 78.4618" stroke="#006B99" stroke-width="3.23435" stroke-linecap="round" stroke-linejoin="round"/>
<path d="M117.857 77.7056C117.738 77.961 117.677 78.2405 117.68 78.523C117.682 78.8055 117.748 79.0835 117.872 79.3367C118.056 79.9588 118.643 80.6213 118.54 81.2088C118.436 81.7968 117.366 82.0315 116.74 81.8587" stroke="#006B99" stroke-width="3.23435" stroke-linecap="round" stroke-linejoin="round"/>
<path d="M114.779 87.62C113.838 87.3116 112.946 86.8671 112.13 86.3003" stroke="#006B99" stroke-width="3.23435" stroke-linecap="round" stroke-linejoin="round"/>
<path d="M120.699 82.7383C120.424 83.3322 120.132 83.7967 119.958 84.2241C119.66 85.2514 119.209 86.226 118.618 87.1135C118.442 87.3237 118.232 87.5005 117.995 87.6358C117.773 87.7633 117.529 87.8471 117.276 87.8831C116.581 87.9654 115.877 87.9153 115.2 87.7355C115.069 87.704 114.933 87.6699 114.806 87.6295" stroke="#006B99" stroke-width="3.23435" stroke-linecap="round" stroke-linejoin="round"/>
<path d="M121.059 77.7471C120.978 77.9832 120.907 78.1397 120.907 78.1397C121.289 78.9697 121.432 79.892 121.317 80.8003C121.198 81.472 120.988 82.1241 120.695 82.7384" stroke="#006B99" stroke-width="3.23435" stroke-linecap="round" stroke-linejoin="round"/>
<path d="M112.709 77.4583C113.491 76.9641 114.41 76.738 115.329 76.814C116.334 76.9867 116.39 77.3385 116.396 77.3541" stroke="#006B99" stroke-width="3.23435" stroke-linecap="round" stroke-linejoin="round"/>
<path d="M120.73 76.9145C120.436 76.8856 120.139 76.9037 119.849 76.9675C119.418 77.0505 118.993 77.1684 118.581 77.3197" stroke="#006B99" stroke-width="3.23435" stroke-linecap="round" stroke-linejoin="round"/>
<path d="M119.391 83.0439C119.292 83.1151 119.187 83.1774 119.078 83.2293C118.648 83.4113 118.187 83.5088 117.721 83.5155C116.75 83.4732 115.786 83.3223 114.847 83.0654C114.646 83.015 114.506 82.9754 114.46 82.9646" stroke="#006B99" stroke-width="3.23435" stroke-linecap="round" stroke-linejoin="round"/>
<path d="M114.442 82.9614C114.442 82.9614 114.494 83.0055 114.579 83.0804C115.023 83.4649 115.491 83.8196 115.981 84.1425C116.244 84.3375 116.547 84.4684 116.868 84.5251C117.189 84.5818 117.518 84.5626 117.831 84.4691C118.415 84.0728 118.941 83.5935 119.391 83.0463" stroke="#006B99" stroke-width="3.23435" stroke-linecap="round" stroke-linejoin="round"/>
<path d="M118.028 87.686L118.089 88.7859L118.098 88.9587L118.156 90.0323" stroke="#006B99" stroke-width="3.23435" stroke-linecap="round" stroke-linejoin="round"/>
<path d="M121.58 91.1258L118.152 90.0322" stroke="#006B99" stroke-width="3.23435" stroke-linecap="round" stroke-linejoin="round"/>
<path d="M109.957 86.3164L109.851 89.3192L105.532 91.1257" stroke="#006B99" stroke-width="3.23435" stroke-linecap="round" stroke-linejoin="round"/>
<path d="M107.965 79.0415C107.965 79.0415 106.708 77.7469 105.926 78.6174C105.824 78.7345 105.74 78.8669 105.677 79.01C104.809 80.8947 106.664 82.9644 108.078 83.4801" stroke="#006B99" stroke-width="3.23435" stroke-linecap="round" stroke-linejoin="round"/>
<path d="M105.926 78.6174V78.6245" stroke="#006B99" stroke-width="3.23435" stroke-linecap="round" stroke-linejoin="round"/>
<path d="M110.708 85.5907C110.89 85.3227 111.001 85.0109 111.028 84.6862C111.055 84.3618 110.998 84.0356 110.862 83.7401C110.772 83.534 110.64 83.3494 110.475 83.1985C110.309 83.0472 110.114 82.9334 109.902 82.8641C109.69 82.7948 109.466 82.7718 109.244 82.7959C109.023 82.8204 108.809 82.8919 108.617 83.0057C108.395 83.1051 108.209 83.2708 108.083 83.4799C107.953 83.6934 107.873 83.9336 107.847 84.1831C107.821 84.4322 107.851 84.6839 107.934 84.9201C108.049 85.3149 108.299 85.656 108.638 85.8828C108.977 86.1101 109.385 86.2087 109.789 86.1616C109.802 86.1616 109.814 86.1616 109.827 86.1616C110.005 86.1353 110.176 86.0708 110.328 85.9726C110.48 85.8739 110.61 85.7438 110.708 85.5907Z" stroke="#006B99" stroke-width="3.23435" stroke-linecap="round" stroke-linejoin="round"/>
<path d="M119.464 85.905C119.807 86.0774 120.193 86.14 120.572 86.0852C121.639 85.9498 122.201 84.4647 121.696 83.446C121.545 83.122 121.308 82.8477 121.009 82.6545" stroke="#006B99" stroke-width="3.23435" stroke-linecap="round" stroke-linejoin="round"/>
<path d="M114.575 83.0779C114.575 83.0779 114.677 83.0716 114.842 83.0653C115.525 83.0245 117.299 82.9363 117.612 82.9644C118.001 82.9959 119.071 83.2343 119.071 83.2343" stroke="#006B99" stroke-width="3.23435" stroke-linecap="round" stroke-linejoin="round"/>
<path d="M114.779 87.6199L114.81 87.6299C115.083 87.7333 117.137 88.4966 118.071 88.7854" stroke="#006B99" stroke-width="3.23435" stroke-linecap="round" stroke-linejoin="round"/>
<path d="M112.792 72.9533C112.78 72.8432 112.753 72.0735 114.66 72.3879C116.057 72.6952 117.362 73.3362 118.464 74.2574L118.474 74.2663" stroke="#006B99" stroke-width="3.23435" stroke-linecap="round" stroke-linejoin="round"/>
<path d="M109.042 70.2331C109.042 70.2331 112.356 70.0414 112.793 72.953C112.795 72.9586 112.795 72.9641 112.793 72.9693" stroke="#006B99" stroke-width="3.23435" stroke-linecap="round" stroke-linejoin="round"/>
<path d="M108.04 79.0226C112.13 80.5833 112.592 74.7219 112.794 72.9691C112.794 72.9691 116.794 73.4084 118.093 74.0557C118.217 74.1187 118.342 74.188 118.463 74.2574C119.733 75.0125 120.671 76.2288 121.088 77.6591C121.088 77.6591 122.677 76.0071 120.598 71.718C119.829 70.2492 118.617 69.0673 117.138 68.3455C115.659 67.6241 113.991 67.4002 112.377 67.7072C112.212 67.7435 112.042 67.7854 111.865 67.8321C110.322 68.185 108.88 68.8912 107.649 69.8963C105.219 72.6696 105.408 76.0305 105.253 76.4894C103.779 80.8902 98.4795 88.3713 100.09 92.8988" stroke="#006B99" stroke-width="3.23435" stroke-linecap="round" stroke-linejoin="round"/>
<path d="M151.385 88.4899C151.943 88.2753 152.472 87.9891 152.958 87.6384C153.099 87.529 153.218 87.3937 153.309 87.2399C153.363 87.155 153.398 87.0589 153.409 86.9585C153.421 86.858 153.41 86.7561 153.376 86.6612C153.342 86.5659 153.286 86.4803 153.214 86.4106C153.141 86.3409 153.054 86.289 152.958 86.2597C152.821 86.2211 152.678 86.2063 152.536 86.2156C151.223 86.4302 149.955 86.8654 148.785 87.5034C148.491 87.6499 148.244 87.8775 148.073 88.1596L145.414 93.2903L142.548 99.4312" stroke="#006B99" stroke-width="3.23435" stroke-linecap="round" stroke-linejoin="round"/>
<path d="M150.315 88.8989C150.315 88.8989 150.559 88.8169 150.907 88.6816C151.05 88.6279 151.211 88.5619 151.382 88.4929" stroke="#006B99" stroke-width="3.23435" stroke-linecap="round" stroke-linejoin="round"/>
<path d="M133.049 99.4656L137.251 105.336" stroke="#006B99" stroke-width="3.23435" stroke-linecap="round" stroke-linejoin="round"/>
<path d="M130.186 111.883L133.05 115.303" stroke="#006B99" stroke-width="3.23435" stroke-linecap="round" stroke-linejoin="round"/>
<path d="M149.411 99.4314L150.746 96.6889C151.487 96.6677 152.214 96.4787 152.874 96.1361C153.534 95.7936 154.11 95.3057 154.559 94.7085C156.433 92.5598 156.876 91.061 156.089 90.512C155.301 89.963 153.668 90.7129 153.199 91.6112C152.731 92.5094 153.091 93.7346 155.366 92.0134" stroke="#006B99" stroke-width="3.23435" stroke-linecap="round" stroke-linejoin="round"/>
<path d="M156.089 90.5103C156.089 90.5103 157.123 89.5613 156.787 88.6201C156.452 87.6784 154.674 88.1329 153.56 88.8091C153.075 89.1068 152.651 89.4961 152.31 89.9558C151.813 90.6623 151.777 91.413 153.2 91.6073" stroke="#006B99" stroke-width="3.23435" stroke-linecap="round" stroke-linejoin="round"/>
<path d="M156.787 88.6215C156.787 88.6215 156.936 87.6677 155.67 86.9411C154.823 86.4543 153.411 87.2555 153.411 87.2555" stroke="#006B99" stroke-width="3.23435" stroke-linecap="round" stroke-linejoin="round"/>
<path d="M151.386 88.49C151.342 88.5593 150.719 89.521 151.767 89.7845C151.893 89.8172 152.022 89.8368 152.152 89.8438" stroke="#006B99" stroke-width="3.23435" stroke-linecap="round" stroke-linejoin="round"/>
<path d="M156.043 85.3111L159.847 81.2399L161.869 79.0793L163.826 76.9874C163.951 76.8517 164.017 76.6712 164.01 76.4858C164.003 76.3001 163.924 76.1251 163.79 75.9987C163.655 75.8727 163.477 75.8055 163.294 75.8122C163.111 75.8189 162.938 75.8993 162.813 76.0354L159.879 79.2236L154.715 84.8303" stroke="#006B99" stroke-width="3.23435" stroke-linecap="round" stroke-linejoin="round"/>
<path d="M150.932 88.7502L146.501 93.4939C146.436 93.5662 146.386 93.6519 146.355 93.7453C146.324 93.8387 146.313 93.9377 146.322 94.0356C146.332 94.1334 146.362 94.2283 146.411 94.3136C146.459 94.3992 146.525 94.473 146.604 94.5308C146.722 94.6165 146.865 94.6624 147.01 94.6621C147.105 94.6621 147.199 94.6424 147.286 94.6039C147.373 94.5657 147.451 94.5093 147.516 94.4389L151.653 90.0103" stroke="#006B99" stroke-width="3.23435" stroke-linecap="round" stroke-linejoin="round"/>
<path d="M155.671 86.9412C155.671 86.9412 156.4 86.0211 155.819 85.3427C155.732 85.2456 155.632 85.1622 155.521 85.0939C155.278 84.9386 154.999 84.85 154.712 84.8367C154.265 84.8634 153.831 85.0035 153.451 85.2437C153.071 85.4843 152.756 85.8176 152.536 86.2128" stroke="#006B99" stroke-width="3.23435" stroke-linecap="round" stroke-linejoin="round"/>
</g>
<defs>
<clipPath id="clip0_2_1234">
<rect width="354.26" height="238" fill="white" transform="translate(0.87085)"/>
</clipPath>
</defs>
</svg>
