<svg width="56" height="55" viewBox="0 0 56 55" fill="none" xmlns="http://www.w3.org/2000/svg">
<path fill-rule="evenodd" clip-rule="evenodd" d="M16.3788 9.52405C13.9019 9.93714 15.5691 11.6138 17.6172 11.9054C19.332 12.1484 22.6186 12.1484 29.6919 12.1241C38.3132 12.0998 42.0047 12.197 42.5525 12.44C43.91 13.0718 44.5055 15.5018 44.8866 22.087C45.0295 24.4197 45.3152 27.9189 45.5295 29.8628C46.1964 36.1078 45.5772 36.7153 37.7418 37.0312C34.7171 37.1527 30.7875 37.3957 29.0251 37.5658C20.7848 38.3677 15.6643 38.2218 12.8064 37.0555C10.4248 36.0835 10.5439 35.3059 10.4725 33.6778C10.3058 30.5189 10.3772 24.0795 10.6868 18.2233C10.9487 13.3148 11.2584 12.3428 12.8064 11.6138C13.759 11.1764 13.4256 10.6661 12.2348 10.7147C10.4486 10.8119 9.06732 11.4194 8.80535 14.2625C8.47193 17.7616 6.35224 36.9826 10.1628 38.6107C12.6634 39.6799 17.0218 40.7247 18.7365 40.7247C19.9273 40.7247 19.8798 42.0855 18.689 42.45C15.9502 43.2519 17.8792 45.1959 21.4992 45.3417C28.8345 45.5846 39.5518 44.9772 39.6471 44.2725C39.7423 43.5678 38.1943 41.964 37.3845 41.964C37.1225 41.964 36.9557 41.6481 36.9557 41.1864C36.9557 40.5303 36.9558 39.6069 37.694 39.6069C40.8616 39.6069 42.5525 39.4611 43.5051 39.2424C48.1492 38.2218 48.3398 35.0143 48.2922 33.1433C48.1255 25.4889 46.7203 18.1747 46.7203 16.4495C46.6965 13.4606 44.9818 10.5203 41.3141 9.98574C39.8852 9.54835 18.8319 9.11095 16.3788 9.52405ZM28.8107 24.3954C28.5249 24.0795 25.7623 20.9449 25.0002 20.143C24.0475 19.1467 23.0711 19.4626 21.0229 21.3822C19.9749 22.3785 18.3317 23.8608 17.3552 24.7113C13.9734 27.6273 13.7113 28.9394 16.4979 28.9394C17.4505 28.9394 17.903 28.5992 20.7372 25.6347C24.4048 21.7953 24.0714 21.8196 27.2628 24.9786C29.4061 27.0926 29.1441 27.117 32.6213 24.3468C35.6221 21.5038 37.3369 19.6084 39.5041 17.3971C41.6475 15.2102 38.3609 14.2139 36.6224 15.7204C34.5742 17.4457 28.8345 24.3711 28.8107 24.3954ZM36.5271 23.2533C36.0984 24.3711 36.3128 31.8311 36.7891 32.2928C37.9561 33.4835 38.6706 30.932 38.5991 25.8777C38.5515 23.0832 37.2178 21.4066 36.5271 23.2533ZM22.7376 26.2908C21.9994 28.2834 22.6186 33.7265 24.119 33.4592C25.6193 33.1919 24.5953 27.1898 24.2619 26.3151C24.0475 25.6833 22.9758 25.659 22.7376 26.2908ZM32.4307 26.8496C32.0258 27.3599 31.621 31.1264 31.883 32.147C32.3355 33.9694 34.2169 33.1676 34.2169 31.1507C34.2169 27.7731 33.3595 25.7076 32.4307 26.8496ZM18.8795 29.4497C18.5222 29.8142 18.665 32.5358 19.0937 33.1189C19.8559 34.1881 20.5227 33.5078 20.5227 31.6367C20.4989 29.6927 19.6892 28.5993 18.8795 29.4497ZM27.0959 29.4497C26.4767 30.0815 26.9054 32.6815 27.6675 33.046C28.8822 33.6049 29.287 32.0741 28.5487 29.6441C28.4297 29.2067 27.4532 29.0852 27.0959 29.4497ZM33.2406 40.0201C34.1932 40.2874 33.836 41.1621 33.9312 41.964L22.9282 42.1584C22.9282 42.0855 23.1188 40.1658 23.1188 40.2873C23.8808 40.263 30.8589 39.9715 31.8116 39.8986C32.1926 39.85 32.8595 39.9229 33.2406 40.0201Z" fill="#006B99"/>
</svg>
