<svg width="482" height="479" viewBox="0 0 482 479" fill="none" xmlns="http://www.w3.org/2000/svg">
<path d="M372.068 163.284H138.383V154.053C138.384 151.351 139.458 148.759 141.369 146.848C143.281 144.937 145.873 143.863 148.576 143.863H368.954C368.578 145.694 368.39 147.557 368.388 149.426C368.388 149.505 368.388 149.575 368.388 149.651H174.925V157.416H369.375L369.563 157.363C370.178 159.423 371.018 161.408 372.068 163.284Z" fill="#CCEFF6"/>
<path d="M265.518 314.621C267.01 314.621 268.471 315.063 269.712 315.893C270.954 316.722 271.924 317.901 272.495 319.28C273.066 320.66 273.217 322.177 272.926 323.643C272.635 325.107 271.914 326.452 270.858 327.508C269.802 328.563 268.457 329.284 266.993 329.575C265.527 329.866 264.009 329.715 262.63 329.144C261.25 328.573 260.069 327.605 259.242 326.362C258.412 325.12 257.969 323.66 257.969 322.168C257.971 320.167 258.766 318.248 260.182 316.834C261.597 315.418 263.515 314.623 265.518 314.621Z" fill="#F7CEDC"/>
<path d="M401.713 201.153V288.092C399.922 288.862 398.18 289.741 396.497 290.726L392.561 289.395L392.663 289.09V184.632L401.713 201.153Z" fill="#F7CEDC"/>
<path d="M401.713 183.284V201.153L392.661 184.627V180.532C395.589 181.723 398.619 182.644 401.713 183.284Z" fill="#006B99"/>
<path d="M384.213 335.932H367.704L375.416 308.405H380.486C379.156 311.706 378.472 315.23 378.468 318.788C378.516 324.967 380.528 330.972 384.213 335.932Z" fill="#006B99"/>
<path d="M375.421 308.405L367.71 335.932H143.08C139.434 335.932 135.937 334.484 133.358 331.905C130.78 329.328 129.331 325.831 129.331 322.185V256.529L138.383 244.97V298.216C138.384 300.917 139.458 303.51 141.369 305.42C143.281 307.332 145.873 308.405 148.576 308.405H375.421ZM273.081 322.168C273.083 320.675 272.641 319.215 271.811 317.972C270.981 316.73 269.802 315.763 268.423 315.19C267.043 314.619 265.525 314.467 264.059 314.759C262.593 315.05 261.248 315.768 260.192 316.824C259.134 317.878 258.416 319.223 258.122 320.689C257.831 322.152 257.979 323.672 258.55 325.051C259.121 326.431 260.089 327.611 261.33 328.441C262.57 329.272 264.031 329.715 265.525 329.717C267.528 329.717 269.448 328.92 270.862 327.506C272.278 326.09 273.074 324.17 273.076 322.168H273.081Z" fill="#F7CEDC"/>
<path d="M372.167 188.84C372.7 188.827 373.229 188.921 373.723 189.115C374.22 189.31 374.67 189.601 375.051 189.973C375.433 190.344 375.734 190.788 375.941 191.278C376.148 191.769 376.255 192.296 376.255 192.826C376.255 193.359 376.148 193.886 375.941 194.376C375.734 194.865 375.433 195.309 375.051 195.681C374.67 196.053 374.22 196.344 373.723 196.538C373.229 196.733 372.7 196.827 372.167 196.813H280.25C279.463 196.815 278.69 196.582 278.033 196.145C277.378 195.706 276.864 195.083 276.563 194.355C276.261 193.625 276.182 192.824 276.337 192.05C276.492 191.276 276.872 190.566 277.431 190.009C277.799 189.637 278.24 189.342 278.723 189.141C279.208 188.94 279.727 188.838 280.25 188.84H372.167Z" fill="#CCEFF6"/>
<path d="M372.169 205.888C373.227 205.888 374.241 206.309 374.988 207.056C375.737 207.804 376.157 208.819 376.157 209.877C376.157 210.934 375.737 211.948 374.988 212.695C374.241 213.444 373.227 213.864 372.169 213.864H233.747C232.689 213.862 231.675 213.44 230.926 212.691C230.178 211.944 229.757 210.929 229.757 209.871C229.761 208.815 230.182 207.804 230.93 207.056C231.679 206.311 232.691 205.891 233.747 205.888H372.169Z" fill="#006B99"/>
<path d="M372.167 222.938C372.7 222.925 373.229 223.019 373.723 223.214C374.22 223.408 374.67 223.699 375.051 224.07C375.431 224.442 375.734 224.887 375.941 225.375C376.148 225.866 376.253 226.393 376.253 226.925C376.253 227.456 376.148 227.983 375.941 228.473C375.734 228.964 375.431 229.407 375.051 229.778C374.67 230.15 374.22 230.441 373.723 230.637C373.229 230.83 372.7 230.924 372.167 230.911H326.756C325.696 230.911 324.682 230.491 323.933 229.742C323.186 228.995 322.766 227.979 322.764 226.922C322.766 225.864 323.188 224.85 323.935 224.105C324.684 223.358 325.698 222.938 326.756 222.938H372.167Z" fill="#CCEFF6"/>
<path d="M372.169 239.979C373.227 239.979 374.241 240.399 374.988 241.146C375.737 241.895 376.157 242.909 376.157 243.966C376.157 245.024 375.737 246.037 374.988 246.787C374.241 247.534 373.227 247.953 372.169 247.953H225.997C224.939 247.953 223.924 247.532 223.176 246.783C222.427 246.035 222.005 245.02 222.005 243.962C222.009 242.905 222.431 241.893 223.18 241.146C223.927 240.401 224.941 239.981 225.997 239.979H372.169Z" fill="#006B99"/>
<path d="M372.167 257.035C373.208 257.062 374.199 257.493 374.925 258.237C375.651 258.982 376.059 259.982 376.059 261.022C376.059 262.063 375.651 263.063 374.925 263.806C374.199 264.552 373.208 264.983 372.167 265.01H295.753C294.696 265.008 293.682 264.588 292.933 263.839C292.183 263.092 291.762 262.076 291.762 261.019C291.764 259.961 292.187 258.949 292.935 258.202C293.684 257.457 294.698 257.037 295.753 257.035H372.167Z" fill="#CCEFF6"/>
<path d="M372.169 274.084C372.7 274.07 373.231 274.164 373.725 274.358C374.22 274.553 374.672 274.844 375.051 275.216C375.433 275.588 375.736 276.03 375.942 276.521C376.149 277.011 376.255 277.538 376.255 278.069C376.255 278.602 376.149 279.129 375.942 279.619C375.736 280.108 375.433 280.552 375.051 280.924C374.672 281.296 374.22 281.587 373.725 281.78C373.231 281.976 372.7 282.07 372.169 282.056H350.009C348.951 282.056 347.935 281.635 347.188 280.887C346.441 280.138 346.019 279.125 346.019 278.065C346.021 277.01 346.442 275.998 347.192 275.251C347.939 274.503 348.953 274.084 350.009 274.084H372.169Z" fill="#006B99"/>
<path d="M372.169 291.13C373.227 291.13 374.241 291.552 374.988 292.299C375.737 293.046 376.157 294.062 376.157 295.12C376.157 296.175 375.737 297.191 374.988 297.938C374.241 298.685 373.227 299.107 372.169 299.107H249.25C248.192 299.105 247.176 298.683 246.427 297.936C245.68 297.187 245.258 296.171 245.256 295.114C245.262 294.058 245.684 293.045 246.433 292.299C247.18 291.552 248.194 291.132 249.25 291.13H372.169Z" fill="#CCEFF6"/>
<path d="M372.478 171.822L368.611 179.766H249.25C248.192 179.766 247.178 179.346 246.429 178.598C245.682 177.85 245.262 176.836 245.262 175.778C245.262 174.721 245.682 173.706 246.429 172.959C247.178 172.211 248.192 171.791 249.25 171.791H372.169C372.277 171.791 372.37 171.815 372.478 171.822Z" fill="#006B99"/>
<path d="M143.08 137.259H371.177C370.171 139.362 369.425 141.579 368.954 143.862H148.576C145.873 143.863 143.281 144.937 141.369 146.848C139.458 148.759 138.384 151.35 138.383 154.053V186.584C135.575 184.504 132.538 182.751 129.331 181.361V151.006C129.331 149.201 129.686 147.414 130.377 145.746C131.068 144.078 132.081 142.562 133.358 141.286C134.635 140.009 136.151 138.997 137.819 138.306C139.487 137.615 141.275 137.259 143.08 137.259Z" fill="#F7CEDC"/>
<path d="M369.565 157.363L369.377 157.416H174.925V149.651H368.398C368.413 152.265 368.806 154.862 369.565 157.363Z" fill="#006B99"/>
<path d="M327.992 274.084C329.033 274.109 330.023 274.54 330.75 275.285C331.476 276.03 331.884 277.029 331.884 278.069C331.884 279.111 331.476 280.11 330.75 280.855C330.023 281.6 329.033 282.031 327.992 282.056H174.068C173.01 282.056 171.995 281.635 171.247 280.887C170.499 280.138 170.078 279.125 170.077 278.067C170.08 277.009 170.502 275.998 171.25 275.251C171.998 274.505 173.011 274.084 174.068 274.084H327.992Z" fill="#CCEFF6"/>
<path d="M304.737 222.938C305.778 222.963 306.769 223.394 307.495 224.139C308.221 224.885 308.629 225.883 308.629 226.925C308.629 227.966 308.221 228.964 307.495 229.709C306.769 230.455 305.778 230.886 304.737 230.911H174.068C173.01 230.911 171.995 230.489 171.247 229.742C170.499 228.993 170.078 227.979 170.077 226.921C170.079 225.864 170.501 224.85 171.249 224.105C171.997 223.358 173.011 222.938 174.068 222.938H304.737Z" fill="#006B99"/>
<path d="M295.211 355.7L298.484 370.121H293.862H239.158H232.562L240.314 335.932L295.211 355.7Z" fill="#F7CEDC"/>
<path d="M290.731 335.932L295.211 355.7L240.312 335.932H290.731Z" fill="#006B99"/>
<path d="M273.735 257.035C274.775 257.062 275.764 257.493 276.491 258.237C277.219 258.982 277.625 259.982 277.625 261.022C277.625 262.063 277.219 263.063 276.491 263.806C275.764 264.552 274.775 264.983 273.735 265.01H174.068C173.01 265.008 171.995 264.588 171.247 263.839C170.499 263.092 170.078 262.076 170.077 261.019C170.079 259.961 170.501 258.949 171.249 258.202C171.997 257.455 173.011 257.035 174.068 257.035H273.735Z" fill="#006B99"/>
<path d="M258.234 188.84C258.764 188.827 259.293 188.921 259.79 189.115C260.284 189.31 260.734 189.601 261.116 189.973C261.497 190.344 261.8 190.788 262.007 191.278C262.212 191.769 262.319 192.296 262.319 192.826C262.319 193.359 262.212 193.886 262.007 194.376C261.8 194.865 261.497 195.309 261.116 195.681C260.734 196.053 260.284 196.344 259.79 196.538C259.293 196.733 258.764 196.827 258.234 196.813H174.067C173.536 196.827 173.007 196.733 172.511 196.538C172.016 196.344 171.565 196.053 171.184 195.681C170.803 195.309 170.501 194.865 170.294 194.376C170.088 193.886 169.981 193.359 169.981 192.826C169.981 192.296 170.088 191.769 170.294 191.278C170.501 190.788 170.803 190.344 171.184 189.973C171.565 189.601 172.016 189.31 172.511 189.115C173.007 188.921 173.536 188.827 174.067 188.84H258.234Z" fill="#006B99"/>
<path d="M227.229 171.791C228.287 171.791 229.303 172.211 230.05 172.959C230.797 173.706 231.217 174.721 231.217 175.778C231.217 176.836 230.797 177.85 230.05 178.598C229.303 179.346 228.287 179.766 227.229 179.766H174.068C173.01 179.765 171.995 179.345 171.247 178.597C170.499 177.849 170.078 176.834 170.077 175.776C170.08 174.719 170.501 173.706 171.249 172.959C171.997 172.212 173.011 171.792 174.068 171.791H227.229Z" fill="#CCEFF6"/>
<path d="M227.229 291.13C228.287 291.13 229.303 291.552 230.05 292.299C230.797 293.046 231.217 294.062 231.217 295.12C231.217 296.175 230.797 297.191 230.05 297.938C229.303 298.685 228.287 299.107 227.229 299.107H174.068C173.01 299.105 171.995 298.683 171.247 297.936C170.498 297.187 170.078 296.171 170.077 295.114C170.08 294.058 170.502 293.045 171.25 292.299C171.998 291.552 173.011 291.132 174.068 291.13H227.229Z" fill="#006B99"/>
<path d="M211.728 205.888C212.786 205.888 213.801 206.309 214.549 207.056C215.296 207.804 215.718 208.819 215.718 209.877C215.718 210.934 215.296 211.948 214.549 212.695C213.801 213.444 212.786 213.864 211.728 213.864H174.068C173.01 213.862 171.995 213.44 171.247 212.693C170.498 211.944 170.078 210.929 170.077 209.871C170.08 208.815 170.502 207.802 171.25 207.056C171.998 206.309 173.011 205.889 174.068 205.888H211.728Z" fill="#CCEFF6"/>
<path d="M203.976 239.979C205.034 239.979 206.05 240.399 206.797 241.146C207.545 241.895 207.966 242.909 207.966 243.966C207.966 245.024 207.545 246.037 206.797 246.787C206.05 247.534 205.034 247.953 203.976 247.953H174.068C173.01 247.953 171.995 247.532 171.247 246.783C170.498 246.034 170.078 245.02 170.077 243.962C170.08 242.905 170.502 241.893 171.25 241.146C171.998 240.401 173.011 239.979 174.068 239.979H203.976Z" fill="#CCEFF6"/>
<path d="M151.886 207.114C152.412 207.309 152.87 207.652 153.208 208.101C153.546 208.549 153.748 209.084 153.792 209.643C153.836 210.201 153.719 210.762 153.455 211.256C153.191 211.751 152.791 212.161 152.303 212.437C152.303 212.274 152.303 212.103 152.303 211.933C152.303 211.538 152.303 211.143 152.272 210.747V210.655C152.221 209.467 152.092 208.285 151.886 207.114Z" fill="#006B99"/>
<path d="M150.832 172.806C151.42 172.804 151.995 172.977 152.484 173.302C152.974 173.627 153.356 174.09 153.583 174.633C153.809 175.175 153.869 175.772 153.756 176.349C153.642 176.926 153.36 177.456 152.945 177.872C152.53 178.288 152.001 178.572 151.424 178.688C150.848 178.803 150.25 178.745 149.707 178.52C149.163 178.296 148.699 177.915 148.372 177.427C148.045 176.938 147.871 176.363 147.871 175.776C147.871 174.99 148.183 174.236 148.737 173.679C149.292 173.122 150.046 172.808 150.832 172.806Z" fill="#006B99"/>
<path d="M150.832 189.856C151.419 189.855 151.994 190.028 152.483 190.353C152.972 190.678 153.353 191.141 153.579 191.682C153.805 192.225 153.864 192.822 153.751 193.397C153.637 193.974 153.355 194.503 152.94 194.919C152.525 195.334 151.996 195.618 151.421 195.733C150.845 195.848 150.248 195.79 149.705 195.566C149.162 195.342 148.698 194.961 148.372 194.472C148.045 193.985 147.871 193.411 147.871 192.824C147.871 192.037 148.183 191.284 148.738 190.728C149.293 190.171 150.046 189.858 150.832 189.856Z" fill="#006B99"/>
<path d="M150.832 223.954C151.619 223.954 152.374 224.266 152.931 224.823C153.487 225.379 153.8 226.134 153.8 226.921C153.8 227.707 153.487 228.462 152.931 229.019C152.374 229.575 151.619 229.887 150.832 229.887C150.199 229.874 149.587 229.659 149.083 229.276C148.579 228.895 148.209 228.362 148.025 227.757L147.617 227.5C148.317 226.414 148.946 225.283 149.5 224.116L149.632 224.176C149.879 223.933 150.629 223.954 150.832 223.954Z" fill="#006B99"/>
<path d="M150.832 258.049C151.42 258.047 151.995 258.219 152.484 258.545C152.974 258.871 153.356 259.333 153.583 259.877C153.809 260.419 153.869 261.015 153.756 261.592C153.642 262.168 153.36 262.699 152.945 263.115C152.53 263.532 152.001 263.816 151.424 263.931C150.848 264.046 150.25 263.988 149.707 263.764C149.163 263.538 148.699 263.159 148.372 262.67C148.045 262.182 147.871 261.607 147.871 261.019C147.871 260.233 148.183 259.478 148.737 258.923C149.292 258.365 150.046 258.051 150.832 258.049Z" fill="#006B99"/>
<path d="M150.832 275.099C151.419 275.097 151.994 275.27 152.483 275.596C152.972 275.921 153.353 276.383 153.579 276.925C153.805 277.467 153.864 278.065 153.751 278.64C153.637 279.217 153.355 279.746 152.94 280.161C152.525 280.577 151.996 280.861 151.421 280.976C150.845 281.091 150.248 281.033 149.705 280.809C149.162 280.585 148.698 280.203 148.372 279.715C148.045 279.228 147.871 278.653 147.871 278.067C147.871 277.28 148.183 276.527 148.738 275.971C149.293 275.413 150.046 275.101 150.832 275.099Z" fill="#006B99"/>
<path d="M150.832 292.146C151.42 292.144 151.995 292.316 152.485 292.642C152.974 292.968 153.357 293.432 153.583 293.974C153.809 294.516 153.869 295.114 153.755 295.69C153.642 296.267 153.359 296.798 152.944 297.214C152.529 297.629 151.999 297.913 151.423 298.028C150.846 298.143 150.248 298.085 149.705 297.859C149.162 297.635 148.698 297.254 148.371 296.765C148.045 296.277 147.871 295.702 147.871 295.114C147.871 294.328 148.183 293.575 148.738 293.018C149.293 292.462 150.046 292.148 150.832 292.146Z" fill="#006B99"/>
<path d="M134.282 239.992L138.594 242.031L138.376 242.495V244.97L129.324 256.529V242.495C131.026 241.763 132.682 240.927 134.282 239.992Z" fill="#006B99"/>
<path d="M119.526 245.681L119.61 246.062C115.604 255.144 110.507 264.157 104.535 269.171C102.597 270.798 100.731 272.446 98.9394 274.114C98.2639 264.211 97.5359 254.19 96.8387 246.062C100.274 246.687 103.758 247.001 107.249 246.999C111.377 247.005 115.493 246.562 119.526 245.681Z" fill="#006B99"/>
<path d="M91.4448 291.079C92.9183 287.628 95.1899 284.576 98.0729 282.173C98.5136 281.834 98.9544 281.491 99.4047 281.165C106.517 276.163 114.267 272.135 122.449 269.19C122.231 269.654 113.907 287.285 105.92 294.02C104.069 295.576 102.215 296.972 100.463 298.331C98.6865 299.682 97.0056 301.155 95.4331 302.739C93.6973 304.449 92.3242 306.489 91.3962 308.742C90.4681 310.994 90.0039 313.41 90.0315 315.845V316.24H86.6157V315.845C86.6592 311.668 87.0484 307.503 87.7798 303.391C88.4766 299.149 89.7082 295.01 91.4448 291.079Z" fill="#CCEFF6"/>
<path d="M101.311 315.845V316.24H97.1578C96.9558 311.699 96.3748 307.185 95.4212 302.74C96.9936 301.155 98.6746 299.682 100.452 298.331C100.986 307.321 101.311 314.046 101.311 315.845Z" fill="#006B99"/>
<path d="M99.4043 281.158C98.954 281.491 98.5132 281.834 98.0725 282.173C95.1895 284.576 92.9179 287.628 91.4444 291.079C90.5221 289.642 89.3819 288.048 88.0644 286.273C85.0031 282.135 81.0363 277.098 76.9665 271.501C72.0657 264.939 67.6909 257.999 63.8828 250.749C63.8828 250.749 63.8588 250.711 63.8205 250.642C63.2479 249.502 62.7042 248.371 62.1868 247.223C45.2343 209.84 56.2174 172.566 56.2174 172.566C62.0291 177.867 67.4818 183.547 72.5398 189.571C69.3623 192.382 66.8021 195.819 65.0201 199.668C63.2383 203.518 62.2736 207.694 62.1868 211.935C62.1868 228.512 76.9665 242.407 96.8389 246.064C97.5359 254.192 98.2641 264.213 98.9396 274.116C99.0954 276.479 99.2583 278.832 99.4043 281.158Z" fill="#CCEFF6"/>
<path d="M86.1132 289.216C86.1132 289.216 87.3853 296.788 87.79 303.383C87.0587 307.495 86.6693 311.66 86.6258 315.837V316.232H83.2218V315.837C84.4197 307.824 83.1908 298.804 83.2218 294.541C84.0851 292.713 85.0504 290.937 86.1132 289.216Z" fill="#006B99"/>
<path d="M88.0651 286.273C87.3848 287.231 86.7333 288.218 86.1128 289.216C85.0502 290.937 84.0847 292.713 83.2216 294.541C80.08 301.331 78.4285 308.714 78.3781 316.194V316.232H77.0127C76.9301 307.917 76.0712 299.628 74.4471 291.472C75.2305 287.371 75.6448 282.721 76.1455 277.977C76.3707 275.839 76.6102 273.678 76.9048 271.547L76.9671 271.499C81.037 277.102 85.0038 282.131 88.0651 286.273Z" fill="#CCEFF6"/>
<path d="M77.0123 316.24H70.9759C70.5807 295.704 56.6921 289.218 42.7866 277.502C28.4141 265.404 13.4571 233.468 13.4571 233.468C28.4075 238.852 42.5357 246.29 55.4344 255.569C55.8362 255.91 56.2551 256.23 56.6896 256.527C66.7503 264.418 71.8742 278.676 74.4469 291.471C76.0714 299.63 76.9303 307.922 77.0123 316.24Z" fill="#CCEFF6"/>
<path d="M76.9671 271.501L76.9048 271.549C76.6103 273.681 76.3707 275.841 76.1455 277.981C74.7658 268.828 67.4333 263.962 56.6923 256.531C56.2732 256.206 55.8611 255.88 55.4348 255.573C45.6925 247.405 42.648 227.481 42.648 227.481C53.8011 234.038 62.9851 249.233 63.821 250.643C63.8593 250.712 63.8833 250.751 63.8833 250.751C67.6916 258.001 72.0664 264.941 76.9671 271.501Z" fill="#006B99"/>
<path d="M129.331 242.495C131.031 241.763 132.685 240.927 134.282 239.992L138.594 242.031L159.674 251.95L146.02 229.811C146.592 229.06 147.136 228.293 147.632 227.5C148.332 226.414 148.961 225.281 149.515 224.115C151.278 220.468 152.229 216.485 152.303 212.437C152.303 212.274 152.303 212.103 152.303 211.933C152.303 211.538 152.303 211.143 152.272 210.747" stroke="#006B99" stroke-width="1.54342" stroke-linecap="round" stroke-linejoin="round"/>
<path d="M152.282 210.655C152.227 209.467 152.095 208.285 151.886 207.114C150.181 198.795 145.348 191.447 138.383 186.585C135.575 184.504 132.538 182.752 129.331 181.361C122.36 178.354 114.842 176.824 107.25 176.868C94.4973 176.597 82.1082 181.127 72.5406 189.562C69.3631 192.372 66.8029 195.811 65.0209 199.661C63.2391 203.51 62.2744 207.685 62.1876 211.927C62.1876 228.502 76.9673 242.397 96.8397 246.055C100.275 246.679 103.759 246.993 107.25 246.992C111.378 246.997 115.494 246.557 119.527 245.673C122.891 244.938 126.175 243.874 129.331 242.499" stroke="#006B99" stroke-width="1.54342" stroke-linecap="round" stroke-linejoin="round"/>
<path d="M372.485 171.822L374.687 167.298C373.71 166.026 372.83 164.684 372.052 163.284C371.006 161.408 370.169 159.422 369.557 157.363C368.8 154.862 368.407 152.265 368.394 149.651C368.394 149.575 368.394 149.505 368.394 149.426C368.392 147.557 368.58 145.693 368.954 143.862C369.423 141.58 370.169 139.363 371.173 137.26C377.527 123.886 394.058 114.354 413.451 114.354C438.331 114.354 458.508 130.053 458.508 149.426C458.508 168.799 438.331 184.494 413.451 184.494C409.507 184.5 405.573 184.093 401.713 183.277C398.618 182.643 395.589 181.724 392.663 180.532C390.514 179.668 388.433 178.647 386.434 177.479L365.355 186.47L368.626 179.764L372.499 171.819" stroke="#006B99" stroke-width="1.54342" stroke-linecap="round" stroke-linejoin="round"/>
<path d="M392.561 289.396L379.081 284.833L384.763 300.912C383 303.201 381.559 305.723 380.484 308.405C379.154 311.706 378.47 315.23 378.468 318.788C378.516 324.967 380.53 330.972 384.217 335.932C391.929 346.625 406.648 353.856 423.535 353.856C448.416 353.856 468.592 338.155 468.592 318.788C468.592 299.423 448.416 283.723 423.535 283.723C416.04 283.685 408.618 285.174 401.717 288.101C399.925 288.871 398.184 289.751 396.501 290.736L392.561 289.396Z" stroke="#006B99" stroke-width="1.54342" stroke-linecap="round" stroke-linejoin="round"/>
<path d="M129.331 181.361V151.006C129.331 147.361 130.78 143.864 133.358 141.286C135.937 138.708 139.434 137.259 143.08 137.259H371.177" stroke="#006B99" stroke-width="1.54342" stroke-linecap="round" stroke-linejoin="round"/>
<path d="M240.32 335.932H143.08C139.434 335.932 135.937 334.484 133.358 331.905C130.78 329.328 129.331 325.831 129.331 322.185V242.497" stroke="#006B99" stroke-width="1.54342" stroke-linecap="round" stroke-linejoin="round"/>
<path d="M384.211 335.932H367.702H290.731" stroke="#006B99" stroke-width="1.54342" stroke-linecap="round" stroke-linejoin="round"/>
<path d="M401.713 183.284V201.153V288.101" stroke="#006B99" stroke-width="1.54342" stroke-linecap="round" stroke-linejoin="round"/>
<path d="M138.383 186.594V154.053C138.384 151.351 139.458 148.759 141.369 146.848C143.281 144.937 145.873 143.863 148.576 143.863H368.954" stroke="#006B99" stroke-width="1.54342" stroke-linecap="round" stroke-linejoin="round"/>
<path d="M380.486 308.407H148.576C145.873 308.405 143.281 307.332 141.369 305.422C139.458 303.51 138.384 300.917 138.383 298.216V242.497" stroke="#006B99" stroke-width="1.54342" stroke-linecap="round" stroke-linejoin="round"/>
<path d="M392.661 180.542V184.632V289.094" stroke="#006B99" stroke-width="1.54342" stroke-linecap="round" stroke-linejoin="round"/>
<path d="M138.383 163.283H372.058" stroke="#006B99" stroke-width="1.54342" stroke-linecap="round" stroke-linejoin="round"/>
<path d="M369.379 157.416H174.928V149.651H368.331" stroke="#006B99" stroke-width="1.54342" stroke-linecap="round" stroke-linejoin="round"/>
<path d="M273.076 322.168C273.076 323.662 272.633 325.122 271.805 326.364C270.975 327.605 269.797 328.575 268.417 329.148C267.037 329.721 265.52 329.87 264.054 329.581C262.588 329.289 261.242 328.571 260.184 327.515C259.129 326.46 258.408 325.115 258.115 323.651C257.824 322.185 257.971 320.668 258.542 319.288C259.113 317.907 260.081 316.726 261.323 315.897C262.565 315.065 264.023 314.623 265.518 314.621C267.52 314.621 269.442 315.416 270.858 316.83C272.277 318.246 273.074 320.166 273.076 322.168Z" stroke="#006B99" stroke-width="1.54342" stroke-linecap="round" stroke-linejoin="round"/>
<path d="M232.562 370.121L240.314 335.932H290.733L295.211 355.7L298.484 370.121" stroke="#006B99" stroke-width="1.54342" stroke-linecap="round" stroke-linejoin="round"/>
<path d="M293.862 370.12H239.158" stroke="#006B99" stroke-width="1.54342" stroke-linecap="round" stroke-linejoin="round"/>
<path d="M240.312 335.932L295.211 355.7" stroke="#006B99" stroke-width="1.54342" stroke-linecap="round" stroke-linejoin="round"/>
<path d="M211.705 370.12H223.657" stroke="#006B99" stroke-width="1.54342" stroke-linecap="round" stroke-linejoin="round"/>
<path d="M227.206 370.12H232.56H239.158" stroke="#006B99" stroke-width="1.54342" stroke-linecap="round" stroke-linejoin="round"/>
<path d="M41.1891 370.12H53.1423" stroke="#006B99" stroke-width="1.54342" stroke-linecap="round" stroke-linejoin="round"/>
<path d="M99.8307 370.12H130.648" stroke="#006B99" stroke-width="1.54342" stroke-linecap="round" stroke-linejoin="round"/>
<path d="M56.6915 370.12H72.8583" stroke="#006B99" stroke-width="1.54342" stroke-linecap="round" stroke-linejoin="round"/>
<path d="M293.864 370.12H298.484H305.814" stroke="#006B99" stroke-width="1.54342" stroke-linecap="round" stroke-linejoin="round"/>
<path d="M309.363 370.12H321.315" stroke="#006B99" stroke-width="1.54342" stroke-linecap="round" stroke-linejoin="round"/>
<path d="M159.961 158.316L167.89 153.744L159.961 149.163" stroke="#006B99" stroke-width="1.54342" stroke-linecap="round" stroke-linejoin="round"/>
<path d="M154.837 149.163L146.901 153.744L154.837 158.316" stroke="#006B99" stroke-width="1.54342" stroke-linecap="round" stroke-linejoin="round"/>
<path d="M392.661 184.632L401.713 201.153" stroke="#006B99" stroke-width="1.54342" stroke-linecap="round" stroke-linejoin="round"/>
<path d="M375.416 308.405L367.704 335.932" stroke="#006B99" stroke-width="1.54342" stroke-linecap="round" stroke-linejoin="round"/>
<path d="M138.383 244.97L129.331 256.529" stroke="#006B99" stroke-width="1.54342" stroke-linecap="round" stroke-linejoin="round"/>
<path d="M99.8307 370.119H72.8583C68.5707 370.119 64.4586 368.418 61.4268 365.387C58.395 362.354 56.6915 358.244 56.6915 353.956V316.24H115.997V353.956C115.997 358.244 114.293 362.354 111.262 365.385C108.23 368.416 104.118 370.119 99.8307 370.119Z" stroke="#006B99" stroke-width="1.54342" stroke-linecap="round" stroke-linejoin="round"/>
<path d="M77.0123 316.24C76.9303 307.922 76.0714 299.63 74.4469 291.471C71.8742 278.676 66.7503 264.408 56.6921 256.527C56.2728 256.202 55.8608 255.876 55.4344 255.569C42.5357 246.29 28.4075 238.852 13.4571 233.468C13.4571 233.468 28.4166 265.404 42.7866 277.502C56.6921 289.218 70.5734 295.704 70.9759 316.24" stroke="#006B99" stroke-width="1.54342" stroke-linecap="round" stroke-linejoin="round"/>
<path d="M83.221 294.549C80.0796 301.337 78.4279 308.721 78.3777 316.201" stroke="#006B99" stroke-width="1.54342" stroke-linecap="round" stroke-linejoin="round"/>
<path d="M88.0648 286.273C87.3845 287.231 86.7329 288.218 86.1126 289.216C85.0498 290.937 84.0846 292.713 83.2213 294.541" stroke="#006B99" stroke-width="1.54342" stroke-linecap="round" stroke-linejoin="round"/>
<path d="M119.61 246.062C115.605 255.144 110.507 264.157 104.536 269.171C102.597 270.798 100.732 272.446 98.9398 274.114" stroke="#006B99" stroke-width="1.54342" stroke-linecap="round" stroke-linejoin="round"/>
<path d="M74.4471 291.471C75.2305 287.371 75.6448 282.723 76.1455 277.977C76.3707 275.839 76.6102 273.68 76.9048 271.547" stroke="#006B99" stroke-width="1.54342" stroke-linecap="round" stroke-linejoin="round"/>
<path d="M122.465 269.171C122.24 269.65 113.916 287.274 105.937 294.008C104.085 295.564 102.231 296.961 100.48 298.319C98.7031 299.67 97.0223 301.143 95.4497 302.728C93.7139 304.437 92.3409 306.478 91.4126 308.729C90.4845 310.982 90.0204 313.398 90.048 315.833" stroke="#006B99" stroke-width="1.54342" stroke-linecap="round" stroke-linejoin="round"/>
<path d="M99.4049 281.158C106.517 276.157 114.268 272.129 122.449 269.183" stroke="#006B99" stroke-width="1.54342" stroke-linecap="round" stroke-linejoin="round"/>
<path d="M86.6157 315.845C86.6592 311.668 87.0484 307.503 87.7798 303.391C88.4772 299.151 89.7088 295.016 91.4448 291.086C92.9183 287.634 95.1899 284.583 98.0729 282.181C98.5136 281.842 98.9544 281.499 99.4047 281.173" stroke="#006B99" stroke-width="1.54342" stroke-linecap="round" stroke-linejoin="round"/>
<path d="M95.4212 302.74C96.3748 307.185 96.9558 311.699 97.1578 316.24" stroke="#006B99" stroke-width="1.54342" stroke-linecap="round" stroke-linejoin="round"/>
<path d="M63.8829 250.756C67.6911 258.007 72.0661 264.946 76.9667 271.509C81.0389 277.105 85.0034 282.142 88.0648 286.281C89.3823 288.055 90.5225 289.657 91.4446 291.084" stroke="#006B99" stroke-width="1.54342" stroke-linecap="round" stroke-linejoin="round"/>
<path d="M72.5398 189.568C67.4818 183.545 62.0291 177.864 56.2174 172.564C56.2174 172.564 45.2343 209.836 62.1868 247.221C62.7042 248.367 63.2479 249.498 63.8205 250.638" stroke="#006B99" stroke-width="1.54342" stroke-linecap="round" stroke-linejoin="round"/>
<path d="M99.4043 281.173C99.2581 278.839 99.0952 276.485 98.9396 274.122C98.2641 264.218 97.5359 254.198 96.8387 246.068" stroke="#006B99" stroke-width="1.54342" stroke-linecap="round" stroke-linejoin="round"/>
<path d="M101.311 315.845C101.311 314.046 100.985 307.321 100.458 298.331" stroke="#006B99" stroke-width="1.54342" stroke-linecap="round" stroke-linejoin="round"/>
<path d="M63.8833 250.757C63.8833 250.757 63.8593 250.718 63.821 250.647C62.9851 249.237 53.8011 234.041 42.648 227.487C42.648 227.487 45.6925 247.409 55.4348 255.577C55.837 255.918 56.2567 256.238 56.6923 256.535C67.4333 263.96 74.7658 268.834 76.1455 277.985" stroke="#006B99" stroke-width="1.54342" stroke-linecap="round" stroke-linejoin="round"/>
<path d="M83.2218 294.541C83.1908 298.804 84.4195 307.825 83.2218 315.837" stroke="#006B99" stroke-width="1.54342" stroke-linecap="round" stroke-linejoin="round"/>
<path d="M86.1122 289.216C86.1122 289.216 87.3841 296.788 87.789 303.383" stroke="#006B99" stroke-width="1.54342" stroke-linecap="round" stroke-linejoin="round"/>
<path d="M163.922 168.823V299.881" stroke="#006B99" stroke-width="1.54342" stroke-linecap="round" stroke-linejoin="round"/>
<path d="M227.229 179.766H174.068C173.01 179.765 171.995 179.345 171.247 178.597C170.499 177.849 170.078 176.834 170.077 175.776C170.08 174.719 170.501 173.706 171.249 172.959C171.997 172.212 173.011 171.792 174.068 171.791H227.229C228.287 171.791 229.303 172.211 230.05 172.959C230.797 173.706 231.217 174.721 231.217 175.778C231.217 176.836 230.797 177.85 230.05 178.598C229.303 179.346 228.287 179.766 227.229 179.766Z" stroke="#006B99" stroke-width="1.54342" stroke-linecap="round" stroke-linejoin="round"/>
<path d="M372.485 171.822C372.37 171.822 372.277 171.791 372.169 171.791H249.25C248.192 171.791 247.178 172.211 246.429 172.959C245.682 173.706 245.262 174.721 245.262 175.778C245.262 176.836 245.682 177.85 246.429 178.598C247.178 179.346 248.192 179.766 249.25 179.766H368.611L372.485 171.822Z" stroke="#006B99" stroke-width="1.54342" stroke-linecap="round" stroke-linejoin="round"/>
<path d="M153.8 175.776C153.799 176.362 153.624 176.934 153.298 177.421C152.972 177.908 152.508 178.287 151.967 178.511C151.425 178.735 150.829 178.793 150.254 178.679C149.679 178.564 149.151 178.281 148.737 177.867C148.322 177.452 148.04 176.924 147.926 176.349C147.812 175.774 147.87 175.178 148.095 174.637C148.319 174.095 148.699 173.632 149.186 173.306C149.673 172.981 150.246 172.806 150.832 172.806C151.222 172.805 151.609 172.882 151.969 173.031C152.33 173.18 152.657 173.398 152.933 173.674C153.209 173.95 153.427 174.278 153.576 174.639C153.725 174.999 153.801 175.385 153.8 175.776Z" stroke="#006B99" stroke-width="1.54342" stroke-linecap="round" stroke-linejoin="round"/>
<path d="M258.234 196.813H174.067C173.536 196.827 173.007 196.733 172.511 196.538C172.016 196.344 171.565 196.053 171.184 195.681C170.803 195.309 170.501 194.865 170.294 194.376C170.088 193.886 169.981 193.359 169.981 192.826C169.981 192.296 170.088 191.769 170.294 191.278C170.501 190.788 170.803 190.344 171.184 189.973C171.565 189.601 172.016 189.31 172.511 189.115C173.007 188.921 173.536 188.827 174.067 188.84H258.234C258.764 188.827 259.293 188.921 259.79 189.115C260.284 189.31 260.734 189.601 261.116 189.973C261.497 190.344 261.8 190.788 262.007 191.278C262.212 191.769 262.319 192.296 262.319 192.826C262.319 193.359 262.212 193.886 262.007 194.376C261.8 194.865 261.497 195.309 261.116 195.681C260.734 196.053 260.284 196.344 259.79 196.538C259.293 196.733 258.764 196.827 258.234 196.813Z" stroke="#006B99" stroke-width="1.54342" stroke-linecap="round" stroke-linejoin="round"/>
<path d="M372.167 196.813H280.25C279.463 196.815 278.69 196.582 278.033 196.145C277.378 195.706 276.864 195.083 276.563 194.355C276.261 193.625 276.182 192.824 276.337 192.05C276.492 191.276 276.872 190.566 277.431 190.009C277.799 189.637 278.24 189.342 278.723 189.141C279.208 188.94 279.727 188.838 280.25 188.84H372.167C372.7 188.827 373.229 188.921 373.723 189.115C374.22 189.31 374.67 189.601 375.051 189.973C375.433 190.344 375.734 190.788 375.941 191.278C376.148 191.769 376.255 192.296 376.255 192.826C376.255 193.359 376.148 193.886 375.941 194.376C375.734 194.865 375.433 195.309 375.051 195.681C374.67 196.053 374.22 196.344 373.723 196.538C373.229 196.733 372.7 196.827 372.167 196.813Z" stroke="#006B99" stroke-width="1.54342" stroke-linecap="round" stroke-linejoin="round"/>
<path d="M153.8 192.824C153.8 193.411 153.625 193.984 153.299 194.47C152.973 194.957 152.51 195.336 151.968 195.56C151.427 195.785 150.83 195.844 150.255 195.729C149.68 195.614 149.152 195.332 148.738 194.919C148.323 194.503 148.041 193.976 147.926 193.401C147.812 192.824 147.87 192.228 148.094 191.688C148.319 191.146 148.698 190.683 149.185 190.357C149.673 190.031 150.246 189.857 150.832 189.856C151.222 189.856 151.608 189.932 151.969 190.081C152.329 190.23 152.657 190.448 152.932 190.724C153.208 191 153.427 191.327 153.575 191.688C153.724 192.048 153.801 192.433 153.8 192.824Z" stroke="#006B99" stroke-width="1.54342" stroke-linecap="round" stroke-linejoin="round"/>
<path d="M211.728 213.874H174.068C173.01 213.872 171.995 213.45 171.247 212.703C170.498 211.954 170.078 210.938 170.077 209.881C170.08 208.823 170.502 207.811 171.25 207.066C171.998 206.319 173.011 205.899 174.068 205.897H211.728C212.786 205.897 213.801 206.317 214.549 207.066C215.296 207.813 215.718 208.827 215.718 209.884C215.718 210.942 215.296 211.958 214.549 212.705C213.801 213.452 212.786 213.874 211.728 213.874Z" stroke="#006B99" stroke-width="1.54342" stroke-linecap="round" stroke-linejoin="round"/>
<path d="M372.169 213.874H233.747C232.689 213.872 231.675 213.45 230.926 212.701C230.178 211.954 229.757 210.938 229.757 209.881C229.761 208.825 230.182 207.813 230.93 207.066C231.679 206.321 232.691 205.899 233.747 205.897H372.169C373.227 205.897 374.241 206.317 374.988 207.066C375.737 207.813 376.157 208.827 376.157 209.884C376.157 210.942 375.737 211.958 374.988 212.705C374.241 213.452 373.227 213.874 372.169 213.874Z" stroke="#006B99" stroke-width="1.54342" stroke-linecap="round" stroke-linejoin="round"/>
<path d="M152.312 211.933C152.312 212.103 152.312 212.274 152.295 212.437C152.784 212.161 153.184 211.751 153.447 211.256C153.711 210.762 153.828 210.201 153.784 209.643C153.74 209.084 153.538 208.549 153.2 208.101C152.863 207.652 152.404 207.309 151.879 207.114H151.862C152.074 208.288 152.211 209.472 152.274 210.664V210.76C152.302 211.143 152.312 211.538 152.312 211.933Z" stroke="#006B99" stroke-width="1.54342" stroke-linecap="round" stroke-linejoin="round"/>
<path d="M304.737 230.911H174.068C173.01 230.911 171.995 230.489 171.247 229.742C170.499 228.993 170.078 227.979 170.077 226.921C170.079 225.864 170.501 224.85 171.249 224.105C171.997 223.358 173.011 222.938 174.068 222.938H304.737C305.778 222.963 306.769 223.394 307.495 224.139C308.221 224.885 308.629 225.883 308.629 226.925C308.629 227.966 308.221 228.964 307.495 229.709C306.769 230.455 305.778 230.886 304.737 230.911Z" stroke="#006B99" stroke-width="1.54342" stroke-linecap="round" stroke-linejoin="round"/>
<path d="M372.167 230.911H326.756C325.696 230.911 324.682 230.491 323.933 229.742C323.186 228.995 322.766 227.979 322.764 226.922C322.766 225.864 323.188 224.85 323.935 224.105C324.684 223.358 325.698 222.938 326.756 222.938H372.167C372.7 222.925 373.229 223.019 373.723 223.214C374.22 223.408 374.67 223.699 375.051 224.07C375.431 224.442 375.734 224.887 375.941 225.375C376.148 225.866 376.253 226.393 376.253 226.925C376.253 227.456 376.148 227.983 375.941 228.473C375.734 228.964 375.431 229.407 375.051 229.778C374.67 230.15 374.22 230.441 373.723 230.637C373.229 230.83 372.7 230.924 372.167 230.911Z" stroke="#006B99" stroke-width="1.54342" stroke-linecap="round" stroke-linejoin="round"/>
<path d="M149.637 224.172C149.877 223.932 150.629 223.95 150.835 223.95C151.622 223.95 152.377 224.262 152.933 224.818C153.49 225.375 153.803 226.13 153.803 226.916C153.803 227.703 153.49 228.458 152.933 229.016C152.377 229.571 151.622 229.884 150.835 229.884C150.202 229.868 149.59 229.656 149.086 229.272C148.582 228.889 148.211 228.358 148.027 227.753" stroke="#006B99" stroke-width="1.54342" stroke-linecap="round" stroke-linejoin="round"/>
<path d="M203.976 247.961H174.068C173.01 247.959 171.995 247.538 171.247 246.79C170.498 246.041 170.078 245.026 170.077 243.968C170.08 242.912 170.502 241.899 171.25 241.154C171.998 240.406 173.011 239.987 174.068 239.985H203.976C205.034 239.985 206.05 240.406 206.797 241.154C207.545 241.901 207.966 242.916 207.966 243.974C207.966 245.031 207.545 246.045 206.797 246.792C206.05 247.541 205.034 247.961 203.976 247.961Z" stroke="#006B99" stroke-width="1.54342" stroke-linecap="round" stroke-linejoin="round"/>
<path d="M372.169 247.961H225.997C224.939 247.959 223.924 247.538 223.176 246.79C222.427 246.041 222.005 245.028 222.005 243.968C222.009 242.912 222.431 241.901 223.18 241.154C223.927 240.408 224.941 239.987 225.997 239.985H372.169C373.227 239.985 374.241 240.406 374.988 241.154C375.737 241.901 376.157 242.916 376.157 243.974C376.157 245.031 375.737 246.045 374.988 246.792C374.241 247.541 373.227 247.961 372.169 247.961Z" stroke="#006B99" stroke-width="1.54342" stroke-linecap="round" stroke-linejoin="round"/>
<path d="M273.735 265.01H174.068C173.01 265.008 171.995 264.588 171.247 263.839C170.499 263.092 170.078 262.076 170.077 261.019C170.079 259.961 170.501 258.949 171.249 258.202C171.997 257.455 173.011 257.035 174.068 257.035H273.735C274.775 257.062 275.764 257.493 276.491 258.237C277.219 258.982 277.625 259.982 277.625 261.022C277.625 262.063 277.219 263.063 276.491 263.806C275.764 264.552 274.775 264.983 273.735 265.01Z" stroke="#006B99" stroke-width="1.54342" stroke-linecap="round" stroke-linejoin="round"/>
<path d="M372.167 265.01H295.753C294.696 265.008 293.682 264.588 292.933 263.839C292.183 263.092 291.762 262.076 291.762 261.019C291.764 259.961 292.187 258.949 292.935 258.202C293.684 257.457 294.698 257.037 295.753 257.035H372.167C373.208 257.062 374.199 257.493 374.925 258.237C375.651 258.982 376.059 259.982 376.059 261.022C376.059 262.063 375.651 263.063 374.925 263.806C374.199 264.552 373.208 264.983 372.167 265.01Z" stroke="#006B99" stroke-width="1.54342" stroke-linecap="round" stroke-linejoin="round"/>
<path d="M153.8 261.019C153.799 261.605 153.624 262.178 153.298 262.664C152.972 263.151 152.508 263.53 151.967 263.755C151.425 263.979 150.829 264.036 150.254 263.921C149.679 263.806 149.151 263.525 148.737 263.109C148.322 262.695 148.04 262.166 147.926 261.592C147.812 261.017 147.87 260.421 148.095 259.881C148.319 259.338 148.699 258.875 149.186 258.549C149.673 258.223 150.246 258.049 150.832 258.049C151.222 258.049 151.609 258.125 151.969 258.273C152.33 258.422 152.657 258.641 152.933 258.917C153.209 259.193 153.427 259.522 153.576 259.882C153.725 260.243 153.801 260.63 153.8 261.019Z" stroke="#006B99" stroke-width="1.54342" stroke-linecap="round" stroke-linejoin="round"/>
<path d="M327.992 282.056H174.068C173.01 282.056 171.995 281.635 171.247 280.887C170.499 280.138 170.078 279.125 170.077 278.067C170.08 277.009 170.502 275.998 171.25 275.251C171.998 274.505 173.011 274.084 174.068 274.084H327.992C329.033 274.109 330.023 274.54 330.75 275.285C331.476 276.03 331.884 277.029 331.884 278.069C331.884 279.111 331.476 280.11 330.75 280.855C330.023 281.6 329.033 282.031 327.992 282.056Z" stroke="#006B99" stroke-width="1.54342" stroke-linecap="round" stroke-linejoin="round"/>
<path d="M372.169 282.056H350.009C348.951 282.056 347.935 281.635 347.188 280.887C346.441 280.138 346.019 279.125 346.019 278.065C346.021 277.01 346.442 275.998 347.192 275.251C347.939 274.503 348.953 274.084 350.009 274.084H372.169C372.7 274.07 373.231 274.164 373.725 274.358C374.22 274.553 374.672 274.844 375.051 275.216C375.433 275.588 375.736 276.03 375.942 276.521C376.149 277.011 376.255 277.538 376.255 278.069C376.255 278.602 376.149 279.129 375.942 279.619C375.736 280.108 375.433 280.552 375.051 280.924C374.672 281.296 374.22 281.587 373.725 281.78C373.231 281.976 372.7 282.07 372.169 282.056Z" stroke="#006B99" stroke-width="1.54342" stroke-linecap="round" stroke-linejoin="round"/>
<path d="M153.8 278.059C153.8 278.646 153.625 279.219 153.299 279.705C152.973 280.192 152.51 280.573 151.968 280.797C151.427 281.022 150.83 281.079 150.255 280.964C149.68 280.851 149.152 280.567 148.738 280.154C148.323 279.74 148.041 279.211 147.926 278.636C147.812 278.061 147.87 277.465 148.094 276.923C148.319 276.381 148.698 275.919 149.185 275.592C149.673 275.266 150.246 275.092 150.832 275.092C151.222 275.092 151.608 275.168 151.969 275.316C152.329 275.465 152.657 275.684 152.932 275.96C153.208 276.235 153.427 276.563 153.575 276.923C153.724 277.283 153.801 277.669 153.8 278.059Z" stroke="#006B99" stroke-width="1.54342" stroke-linecap="round" stroke-linejoin="round"/>
<path d="M227.229 299.107H174.068C173.01 299.105 171.995 298.683 171.247 297.936C170.498 297.187 170.078 296.171 170.077 295.114C170.08 294.058 170.502 293.045 171.25 292.299C171.998 291.552 173.011 291.132 174.068 291.13H227.229C228.287 291.13 229.303 291.552 230.05 292.299C230.797 293.046 231.217 294.062 231.217 295.12C231.217 296.175 230.797 297.191 230.05 297.938C229.303 298.685 228.287 299.107 227.229 299.107Z" stroke="#006B99" stroke-width="1.54342" stroke-linecap="round" stroke-linejoin="round"/>
<path d="M372.169 299.107H249.25C248.192 299.105 247.176 298.683 246.427 297.936C245.68 297.187 245.258 296.171 245.256 295.114C245.262 294.058 245.684 293.045 246.433 292.299C247.18 291.552 248.194 291.132 249.25 291.13H372.169C373.227 291.13 374.241 291.552 374.988 292.299C375.737 293.046 376.157 294.062 376.157 295.12C376.157 296.175 375.737 297.191 374.988 297.938C374.241 298.685 373.227 299.107 372.169 299.107Z" stroke="#006B99" stroke-width="1.54342" stroke-linecap="round" stroke-linejoin="round"/>
<path d="M153.8 295.114C153.8 295.7 153.625 296.273 153.299 296.76C152.973 297.248 152.51 297.628 151.968 297.852C151.427 298.076 150.83 298.133 150.255 298.02C149.68 297.905 149.152 297.622 148.738 297.208C148.323 296.794 148.041 296.265 147.926 295.691C147.812 295.116 147.87 294.52 148.094 293.978C148.319 293.435 148.698 292.974 149.185 292.648C149.673 292.32 150.246 292.148 150.832 292.146C151.222 292.146 151.608 292.223 151.968 292.372C152.329 292.522 152.656 292.74 152.932 293.016C153.207 293.29 153.426 293.617 153.575 293.978C153.724 294.338 153.8 294.725 153.8 295.114Z" stroke="#006B99" stroke-width="1.54342" stroke-linecap="round" stroke-linejoin="round"/>
<path d="M97.5671 211.747C97.4736 211.747 97.3826 211.747 97.2892 211.747C97.1957 211.747 97.0951 211.747 97.0018 211.747C94.124 211.599 91.4176 210.335 89.4597 208.221C87.5017 206.108 86.4472 203.313 86.521 200.433C86.5947 197.553 87.7909 194.815 89.8544 192.805C91.9179 190.794 94.6857 189.669 97.5671 189.669" stroke="#006B99" stroke-width="2.31632" stroke-linecap="round" stroke-linejoin="round"/>
<path d="M81.88 211.731H97.5677C97.4742 211.731 97.3832 211.731 97.2898 211.731C94.3927 211.816 91.6449 213.036 89.6387 215.127C87.6326 217.219 86.5288 220.014 86.5653 222.911C86.6017 225.808 87.7754 228.577 89.8336 230.617C91.8917 232.656 94.6694 233.808 97.5677 233.819" stroke="#006B99" stroke-width="2.31632" stroke-linecap="round" stroke-linejoin="round"/>
<path d="M117.401 211.747C117.495 211.747 117.595 211.747 117.689 211.747C117.782 211.747 117.876 211.747 117.967 211.747C120.844 211.599 123.551 210.335 125.509 208.221C127.467 206.108 128.521 203.313 128.448 200.433C128.374 197.553 127.178 194.815 125.114 192.805C123.05 190.794 120.283 189.669 117.401 189.669" stroke="#006B99" stroke-width="2.31632" stroke-linecap="round" stroke-linejoin="round"/>
<path d="M133.089 211.731H117.401C117.495 211.731 117.595 211.731 117.689 211.731C120.587 211.816 123.335 213.036 125.341 215.129C127.347 217.221 128.45 220.018 128.412 222.917C128.374 225.814 127.199 228.583 125.139 230.621C123.079 232.66 120.3 233.81 117.401 233.819" stroke="#006B99" stroke-width="2.31632" stroke-linecap="round" stroke-linejoin="round"/>
<path d="M422.966 162.345L444.024 150.195L422.966 138.035" stroke="#006B99" stroke-width="2.31632" stroke-linecap="round" stroke-linejoin="round"/>
<path d="M401.349 138.035L380.291 150.195L401.349 162.345" stroke="#006B99" stroke-width="2.31632" stroke-linecap="round" stroke-linejoin="round"/>
<path d="M418.154 132.541L405.565 167.669" stroke="#006B99" stroke-width="1.54342" stroke-linecap="round" stroke-linejoin="round"/>
<path d="M399.511 333.25L402.923 322.896L411.015 298.331L419.114 322.896L422.525 333.25" stroke="#006B99" stroke-width="2.31632" stroke-linecap="round" stroke-linejoin="round"/>
<path d="M402.923 322.896H419.114" stroke="#006B99" stroke-width="2.31632" stroke-linecap="round" stroke-linejoin="round"/>
<path d="M440.048 327.222C437.825 331.987 433.661 334.754 430.763 333.405C427.864 332.056 427.323 327.09 429.546 322.317C431.769 317.543 435.924 314.783 438.831 316.132C439.724 316.68 440.442 317.474 440.9 318.416C441.358 319.359 441.539 320.413 441.42 321.455C441.383 323.453 440.916 325.421 440.048 327.222Z" stroke="#006B99" stroke-width="1.54342" stroke-linecap="round" stroke-linejoin="round"/>
<path d="M441.414 321.384C441.414 321.409 441.414 321.432 441.414 321.455C441.839 325.647 439.275 336.691 445.965 332.196" stroke="#006B99" stroke-width="1.54342" stroke-linecap="round" stroke-linejoin="round"/>
</svg>
