<svg width="33" height="32" viewBox="0 0 33 32" fill="none" xmlns="http://www.w3.org/2000/svg">
<path d="M28.2078 16.5536C27.1817 10.213 22.7821 5.55493 18.8644 6.66104C18.0404 6.8947 17.3875 7.43998 14.7601 10.1663C13.392 11.584 12.9723 11.9267 12.7391 11.8488C10.1895 10.8518 8.58816 12.0981 8.60366 15.0893C8.60366 16.6783 8.68146 17.0989 9.19449 18.7036C9.33441 19.1242 7.56206 20.7755 5.33893 23.1279C3.55108 24.7637 5.43219 25.2623 8.12176 24.3899C12.7546 22.8943 12.0395 22.9566 13.6407 23.8602C16.2681 25.3402 19.6884 25.8854 21.243 25.0754C21.554 24.9195 21.725 24.5924 21.6938 24.2341C21.6938 24.2185 21.554 22.6918 21.554 22.7074C23.6838 21.8505 26.249 20.9781 27.4616 20.1056C28.6742 19.2177 28.5032 18.3608 28.2078 16.5536ZM8.10626 22.941C7.93521 22.941 9.9718 20.6976 10.1117 20.5419C10.1428 20.7288 10.5781 21.4299 11.2 21.8505C11.2155 21.9284 8.38611 22.941 8.10626 22.941ZM23.8548 19.5292C22.9842 19.7318 20.248 20.8223 19.2841 21.3675C18.5846 21.757 18.5535 21.8038 18.6468 22.3023C18.9887 24.2029 19.082 24.0939 17.4342 23.6732C13.703 22.7074 9.38104 15.3696 11.0912 12.8926C11.5731 12.1916 12.2416 13.0795 12.2882 14.4973C12.3349 15.9928 13.6563 18.4543 14.5891 19.0619C15.1332 19.4202 15.413 18.984 15.2731 18.7036C13.4697 15.3697 13.7651 14.4817 13.8895 13.9832C13.8895 13.9832 17.8539 9.96379 18.1804 9.60545C19.3774 8.32801 20.4346 8.26569 21.6006 9.38738C23.746 11.4749 25.3939 14.7932 25.8137 17.8311C25.9069 18.6413 25.254 19.2177 23.8548 19.5292Z" fill="#006B99"/>
<path d="M23.9637 17.1614C22.1759 18.1117 18.6157 11.5062 20.2636 10.3066C21.0099 9.76136 19.8594 9.09145 19.2375 9.79255C18.1959 10.9765 19.2065 17.4574 23.4973 18.2052C24.2747 18.3454 24.9121 18.2052 24.9743 17.6755C25.0364 17.2237 24.4457 16.8965 23.9637 17.1614Z" fill="#006B99"/>
</svg>
