<svg width="56" height="55" viewBox="0 0 56 55" fill="none" xmlns="http://www.w3.org/2000/svg">
<path fill-rule="evenodd" clip-rule="evenodd" d="M19.7396 8.10604C13.3356 9.33976 10.044 14.229 10.044 22.6137C10.0216 31.2041 18.5082 36.4817 27.241 33.306L28.8533 32.712C30.1744 34.1285 30.3984 34.1285 28.9876 34.9966C27.8681 35.682 27.9799 36.3903 28.6965 36.6644C29.6593 37.03 35.5037 42.7645 36.2875 44.1582C39.176 49.2987 46.3862 47.4938 45.8936 43.4728C45.6697 41.645 44.3037 39.5203 42.6915 38.0124C40.9001 36.3218 39.8925 34.9509 38.5714 32.3921C37.295 29.9018 36.1531 29.3535 34.4961 30.3816C33.7795 30.8157 33.7123 30.8385 33.3316 30.473C32.5479 29.7647 32.5927 29.285 33.5556 27.7999C37.2279 22.0425 37.4294 17.0163 34.1825 13.0181C29.6593 7.44349 25.7856 9.454 28.4278 11.1903C34.8543 15.3941 34.5185 23.9388 27.6666 30.3816C23.8599 33.9685 16.2018 32.0494 14.2313 27.0231C11.1188 19.0268 16.2465 8.47159 24.554 10.1622C27.4202 10.9162 28.5622 6.41538 19.7396 8.10604ZM18.844 13.7949C17.8812 14.6174 18.5082 15.3256 20.2995 14.069C21.5534 13.2009 22.1581 13.0409 23.3001 13.3151C24.8004 13.6578 25.7183 13.2694 25.2482 12.4926C25.0914 12.2185 21.7997 11.2589 18.844 13.7949ZM27.8232 13.4979C26.614 13.4293 26.3005 14.1147 27.1291 15.0058C28.1591 16.1252 30.2192 16.308 30.1072 15.2799C30.0401 14.5717 28.7412 13.5436 27.8232 13.4979ZM35.6157 32.6434C35.7948 33.3974 37.5638 36.0476 38.5043 37.03C39.6463 38.1952 40.1389 38.972 41.6167 40.6169C44.6172 43.9754 41.0345 47.311 38.2131 43.1072C34.6528 37.8068 31.3387 36.139 31.3835 35.5221C31.4507 34.7453 35.4589 32.0037 35.6157 32.6434Z" fill="#006B99"/>
</svg>
