<svg width="33" height="32" viewBox="0 0 33 32" fill="none" xmlns="http://www.w3.org/2000/svg">
<path fill-rule="evenodd" clip-rule="evenodd" d="M14.302 4.16786C14.0407 4.26968 13.9101 4.41512 13.9391 4.57511C13.9827 4.82238 8.65573 12.0367 7.29137 16.4147C6.87043 17.782 7.55264 17.9711 10.6588 17.3747C12.5457 17.0111 12.4731 16.6329 11.2249 20.1528C10.2959 22.7418 9.61373 24.909 9.29446 26.2326C8.859 27.978 9.7734 28.8943 12.0377 26.5235C13.0102 25.5053 15.2164 23.2218 20.3836 17.3165C24.7671 12.3131 24.7525 12.444 21.298 12.3131L19.1644 12.2258C20.166 11.164 23.9106 7.12051 25.0573 6.17505C26.204 5.21509 26.5669 4.82239 25.0284 4.60421C23.2431 4.3424 17.2049 4.24059 15.4341 4.08059C15.0277 4.03696 14.5197 4.08059 14.302 4.16786ZM22.9092 5.6369L22.1544 6.26232C20.311 7.77499 16.6679 12.124 16.6679 12.793C16.6679 13.5203 17.8871 13.4475 21.0368 13.4475C16.3921 18.8437 12.7634 23.0473 12.6763 23.0473C12.6473 23.0473 12.9812 22.0873 13.4311 20.8946C15.1148 16.3711 15.2019 15.5275 14.0117 15.6729C11.9506 15.9202 9.93307 16.1966 9.65728 16.2838C9.41058 16.3565 9.57019 15.9639 10.4991 14.2185C12.1538 11.0477 12.8215 10.1313 15.7244 5.28782C21.2545 5.53508 21.1964 5.53509 22.9092 5.6369Z" fill="#006B99"/>
</svg>
