<svg width="36" height="46" viewBox="0 0 36 46" fill="none" xmlns="http://www.w3.org/2000/svg">
<path fill-rule="evenodd" clip-rule="evenodd" d="M20.8392 1.31951C16.1099 3.72756 5.44954 15.6141 1.9728 22.2747C-0.123495 26.2967 0.132221 26.5272 6.9067 26.9115L11.7384 27.1933C2.96982 42.5638 3.86455 40.9243 3.78781 41.078C1.87051 44.3827 4.47807 46.5858 7.23901 43.9984C7.26455 43.9728 30.9626 25.5281 35.2063 19.4055C35.692 18.7138 35.5643 17.9197 34.4905 17.1255C32.7266 15.819 30.3492 15.4091 21.6829 14.6919C20.3279 14.5894 19.7145 14.4357 19.8166 14.2308C20.4558 12.6681 22.9099 6.10994 24.0858 3.54823C25.4664 0.550969 25.3385 -0.986081 20.8392 1.31951ZM19.0752 7.05784C18.8452 7.59584 16.0075 14.4101 15.8797 14.6919C15.2151 16.024 15.6496 16.7157 17.3113 16.895C22.8332 17.4842 25.0317 17.6891 27.2558 17.7916C30.937 17.9709 30.9627 17.8172 27.0769 21.7367C22.9355 25.938 12.3519 35.6727 12.1218 35.4421C11.9173 35.2372 15.3173 28.7303 16.2377 27.5263C17.8994 25.3488 17.388 25.0414 12.0963 25.0414C9.71873 25.0414 8.23602 24.9901 7.11117 24.9133C6.06306 24.8364 5.42389 23.7093 5.93523 22.7614C7.85253 19.2518 11.2782 14.8712 16.9791 8.59494C19.5866 5.77694 19.6376 5.72574 19.0752 7.05784Z" fill="#000001"/>
</svg>
