<svg width="56" height="55" viewBox="0 0 56 55" fill="none" xmlns="http://www.w3.org/2000/svg">
<path d="M38.8765 37.059C39.3303 37.254 39.8274 37.1458 40.1948 36.8209C40.519 36.5394 42.0533 35.1316 42.6368 34.7851C43.3716 34.352 43.9335 26.9672 43.9335 26.9889C43.9767 26.5557 43.8255 26.1225 43.5229 25.8193C40.5622 22.8091 40.4109 22.4192 36.8882 21.9861C35.9157 21.8562 35.2674 21.8996 35.1378 22.1162C34.5974 22.9824 37.0395 24.5632 38.9629 24.5632C39.6977 24.5632 41.9668 26.9671 41.7508 27.5085C41.5995 27.8767 41.6643 30.2372 41.6427 32.836L40.6701 33.3341C40.1299 33.6157 39.46 34.1138 39.1791 34.4819C38.682 35.11 38.6388 35.11 37.7959 34.6119C36.9963 34.1354 35.6131 34.1572 35.6131 34.6553C35.6131 35.0884 37.3204 36.4527 38.4443 36.9074L38.8765 37.059Z" fill="#000001"/>
<path d="M48.9259 18.6506C48.9474 17.9793 48.6449 17.3296 48.1261 16.9181C47.1537 16.1601 46.0947 16.0735 45.5761 16.6799C43.9336 18.6723 37.3205 17.9576 30.6859 15.0556C26.1259 13.0632 20.8527 12.1753 16.3143 12.6301C6.45946 13.6046 7.47519 13.8429 8.42609 38.0332L9.48503 38.5746C10.5224 39.116 10.6088 39.116 13.5479 38.4663C18.2376 37.4268 25.8881 37.5134 30.3401 38.6179C34.3381 39.6141 35.1594 39.4409 33.5169 37.8816C30.4914 35.0229 18.4321 33.377 13.5479 35.1745C12.5538 35.5427 11.6246 35.8242 11.4734 35.8242C10.9546 35.8242 11.9271 29.3056 11.4301 15.8136C11.4517 15.8136 21.6522 12.9333 29.2378 16.8098C33.344 18.9105 38.3578 20.2748 42.1183 20.2965H45.7706C45.7706 37.9033 45.9218 39.7442 45.2952 39.7442C45.0142 39.7442 43.3069 39.5491 41.4915 39.3109C37.9688 38.8561 37.4718 38.9428 38.1849 39.9606C38.8765 40.9352 43.2205 41.9963 45.9435 42.1263C48.4505 42.2562 48.1478 41.888 48.2559 40.3504C48.3639 38.4663 48.2559 39.9606 48.9259 18.6506Z" fill="#000001"/>
<path d="M15.9467 20.3616C16.6166 20.1883 17.7621 19.2138 17.9566 18.6507C18.043 18.3692 18.8427 18.3908 21.3064 18.6724C27.4008 19.387 24.5913 16.8532 23.4243 16.5284C22.0627 16.1386 19.9449 16.2902 17.5244 16.6583C17.0706 16.7233 16.5303 17.0698 16.3358 17.438C16.1413 17.8061 15.1471 18.4125 14.4555 19.1272C12.5753 21.0113 12.3808 30.4319 14.1962 30.7134C15.6873 30.93 16.1844 31.1249 16.9408 31.8395C17.8701 32.6842 17.9782 32.5975 24.1374 32.5975C24.9802 32.5975 25.4341 30.5185 20.1393 30.3019C17.9565 30.2153 17.4811 30.0854 16.7031 29.4357C16.2061 29.0242 15.6658 28.6777 15.5145 28.6777C14.8445 28.6777 15.2767 20.5132 15.9467 20.3616Z" fill="#000001"/>
<path d="M28.8271 32.0346C29.0649 31.7314 29.2377 30.5619 29.2377 30.4536C29.2377 30.3454 29.886 30.3887 30.5993 30.1938C33.2359 29.4791 33.171 26.2739 30.4912 24.758C29.7564 24.3465 27.0766 24.1949 27.4439 22.549C27.7033 21.3362 28.611 21.7477 29.5835 22.2242C30.2535 22.5274 30.837 22.8739 31.4204 23.177C32.4578 23.7185 32.4362 22.3324 31.7447 21.7477C31.3124 21.3796 30.6857 21.0114 30.059 20.7299C29.9294 20.6649 30.1885 20.0369 29.9725 19.5821C29.5186 18.6508 28.222 18.2394 28.222 19.0407C28.222 19.1489 28.0274 20.0152 28.0274 20.0152C28.0058 20.0152 25.7151 18.954 24.8507 21.5095C24.4184 22.7872 24.9586 24.6497 26.5795 25.1478C27.8762 25.5593 30.2318 25.9707 30.059 27.3134C29.8213 29.1759 26.666 27.8982 26.6443 27.8982C24.3967 27.3351 22.8624 28.0714 25.5206 29.2625C25.9744 29.4791 26.9901 29.739 27.2062 29.9339C27.4224 30.1288 27.1846 31.3632 27.1846 31.5798C27.2278 32.5327 28.3084 32.7492 28.8271 32.0346Z" fill="#000001"/>
</svg>
