<svg width="33" height="32" viewBox="0 0 33 32" fill="none" xmlns="http://www.w3.org/2000/svg">
<path fill-rule="evenodd" clip-rule="evenodd" d="M13.2564 6.97028C11.5045 8.45898 11.098 8.65563 9.37413 8.83821C7.13171 9.07693 7.17375 9.0629 7.25782 9.5123C7.34189 9.98986 7.46812 11.8016 7.51015 12.2791C5.82831 14.2032 5.78623 14.1189 5.9404 15.2004C5.99646 15.6358 5.88435 19.6806 6.16466 23.4304C6.23474 24.3715 6.54304 24.8068 7.41203 25.2562C9.09381 26.0989 10.4813 25.6074 9.1499 24.6383C7.95861 23.7675 7.8465 23.3883 7.72039 19.9334C7.6783 18.8098 7.58017 17.2789 7.4961 16.5205C7.15976 13.515 8.1829 14.765 8.14081 15.0178C8.05674 15.6919 8.39308 16.2256 9.87874 16.9981C10.7757 17.4615 14.1253 19.6103 15.4568 20.0598C17.4329 20.748 18.2458 19.512 22.8989 16.3239C23.7538 15.7481 24.3144 15.2284 24.6368 14.7228C25.4497 13.4729 25.5338 19.807 24.7349 22.5035C24.2023 24.3012 24.0482 24.3574 18.9326 24.4838C13.6909 24.6102 11.1961 24.9473 11.3222 25.3265C11.6306 26.2534 23.2493 26.4641 25.0853 25.5933C25.8982 25.2001 26.7811 23.2057 26.9493 22.2367C27.2016 20.8041 27.2156 18.5991 26.9914 15.6638C26.8372 13.5572 26.627 13.0937 25.4637 12.0544C25.0572 11.6892 25.0292 11.0011 25.3936 9.62465C25.5337 9.09101 25.716 8.23428 24.4406 8.23428C23.1652 8.23428 21.1189 8.31853 20.7685 8.31853C20.264 8.00958 18.1758 6.81575 17.8114 6.4506C17.489 6.1978 15.5269 5.04616 13.2564 6.97028ZM17.8114 7.75678C18.2879 8.06573 18.6803 8.33261 18.6803 8.37473C18.6803 8.40283 17.475 8.43088 16.0034 8.43088C13.1442 8.43088 13.0882 8.40283 14.0833 7.78482C15.5129 6.87195 16.4239 6.87195 17.8114 7.75678ZM23.7959 13.7116C23.6838 14.2734 23.0811 14.5262 22.6747 14.2032C22.3803 13.9785 22.1 13.9223 20.9648 13.9223C20.6144 13.9223 14.5878 13.8942 11.8128 14.0909C9.37413 14.2594 10.6776 15.2284 11.967 15.397C13.0462 15.5374 21.7356 15.2004 21.5674 15.4672C21.4834 15.6077 18.7363 17.6301 16.9284 19.1047C16.55 18.9081 9.5003 15.3127 9.23397 15.3127C8.99575 15.3127 8.82755 9.86343 8.8416 9.84941C8.88363 9.7932 17.0265 9.5685 23.7117 9.5685C23.936 11.6471 24.0621 12.3634 23.7959 13.7116ZM16.9564 11.5909C16.0735 12.4757 17.0405 12.8128 20.278 12.7566C23.1792 12.7004 23.4034 12.6443 22.8429 11.9982C22.3523 11.4083 17.461 11.0713 16.9564 11.5909Z" fill="#006B99"/>
</svg>
