<svg width="55" height="55" viewBox="0 0 55 55" fill="none" xmlns="http://www.w3.org/2000/svg">
<path fill-rule="evenodd" clip-rule="evenodd" d="M36.4783 10.9188C34.6787 11.7313 33.7096 13.3166 33.5712 15.655C33.3933 18.786 32.6813 19.8561 31.8706 18.2311C28.924 12.4051 18.7992 10.7603 17.7708 15.9522C17.6522 16.5071 17.6324 16.5071 16.347 16.5071C10.6913 16.4674 7.42843 27.6241 11.4823 33.1529C11.7592 33.5295 11.3637 34.8572 10.1969 37.4531C9.54438 38.8997 9.62347 39.1375 10.7704 39.6528C11.8185 40.1284 12.1547 39.633 14.2509 34.4807C14.5673 33.7078 14.5673 32.8359 14.2509 32.063C13.7762 30.9137 13.2027 29.6454 12.748 28.7933C11.245 25.8407 12.2338 21.6792 15.0419 19.1823C17.6126 16.9034 20.2427 18.786 17.9884 21.3027C14.8836 24.7507 17.8302 28.932 22.3982 27.5647C26.4917 26.3559 26.6499 20.6289 22.6158 19.539C20.4801 18.9643 19.5704 15.9522 21.1919 14.8623C25.226 12.1276 30.249 17.7357 29.7151 24.394C29.4383 27.8619 32.9187 26.2766 32.9187 23.8986C32.9187 23.2843 33.0769 22.9474 33.7097 22.2142C35.0544 20.6487 35.6872 19.004 35.9839 16.1702C36.2607 13.5544 39.662 11.3746 40.631 13.1977C41.2441 14.3471 40.275 20.4902 39.1874 22.2539C38.3172 23.6807 35.2324 27.1882 34.2435 27.8619C32.9582 28.7339 33.0967 29.4869 34.6193 29.7445C35.3709 29.8634 35.4895 29.8238 36.8935 28.6546C40.3938 25.7416 41.5012 24.3148 42.3317 21.5801C42.925 19.6381 43.7951 20.074 43.8148 22.0953C43.8346 26.237 39.5038 31.0722 35.351 32.7764C34.3623 33.1926 34.3029 33.6484 35.1532 34.2825C36.4189 35.2139 38.6732 34.2429 41.2638 31.6469C42.8854 30.0219 42.9645 29.9823 42.7865 30.6362C41.8175 34.4014 38.693 37.5126 34.7182 38.6818C32.0881 39.4546 29.636 40.0095 27.7969 40.2473C27.5398 40.3265 25.9776 40.2671 24.6724 41.6542C22.7542 43.6953 25.7008 45.3203 26.7092 43.6953C27.4608 42.4667 27.698 42.3478 29.1614 42.328C30.605 42.328 30.684 42.3082 34.7775 41.1588C38.2579 40.1878 40.3146 39.1772 41.7977 37.7306C44.9222 34.659 46.2274 30.2201 44.6059 28.0799C44.2499 27.6043 44.2498 27.5845 44.8233 26.3361C45.9901 23.8392 45.7133 20.5496 44.1708 18.6869C43.6171 18.0131 43.5775 17.8348 43.5183 16.2098C43.4391 12.3654 39.6225 9.49204 36.4783 10.9188ZM22.2994 20.7478C23.9407 21.5801 22.9718 25.8803 21.0536 26.3559C20.3812 26.5342 17.3951 24.9885 19.7285 21.7585C20.7964 20.2722 21.1128 20.1335 22.2994 20.7478Z" fill="#000001"/>
</svg>
