<svg width="355" height="238" viewBox="0 0 355 238" fill="none" xmlns="http://www.w3.org/2000/svg">
<g clip-path="url(#clip0_2_1396)">
<path d="M354.323 0H0.0626221V238H354.323V0Z" fill="#FAE173"/>
<path d="M164.856 139.959C164.748 139.475 164.751 138.973 164.865 138.491C165.756 134.53 165.621 128.685 166.511 123.934C167.401 119.182 170.334 119.716 173.577 118.578C175.647 117.848 177.585 116.727 179.79 115.697C181.103 115.067 182.463 114.539 183.857 114.117C187.985 112.896 198.35 117.286 203.369 118.093C204.555 118.282 205.724 118.568 206.865 118.947L206.888 118.878C206.888 118.878 229.78 103.115 235.765 98.7975C241.75 94.4806 254.036 85.7153 254.036 85.7153L268.03 118.092C268.03 118.092 240.555 136.335 236.489 139.932C232.424 143.528 223.481 148.1 223.481 148.1L223.409 148.082C222.863 150.594 221.047 153.459 216.041 156.299L215.739 156.405C214.911 154.49 213.863 152.678 212.617 151.007C207.625 141.78 187.261 128.107 185.5 128.401C183.74 128.695 178.878 129.338 178.878 129.338C178.521 130.417 177.026 131.021 177.026 131.021H176.898C176.922 134.285 175.806 137.455 173.744 139.978C170.486 144.107 165.526 142.935 164.856 139.959Z" fill="#FFCEB6"/>
<path d="M221.495 58.7404C221.816 60.2125 221.939 61.7206 221.864 63.2253C221.848 63.4889 221.777 63.7458 221.656 63.9801C221.535 64.214 221.367 64.4201 221.161 64.5844C220.956 64.7486 220.718 64.8676 220.464 64.9336C220.209 64.9996 219.944 65.0111 219.685 64.9669L212.882 63.8389C212.465 63.7718 212.084 63.5642 211.8 63.2502C211.516 62.9358 211.347 62.5339 211.321 62.1106C211.295 60.9858 210.89 59.9033 210.175 59.0381C209.882 58.6966 209.554 58.3882 209.196 58.1172L207.238 70.0339L210.034 71.7333C213.88 74.0109 216.351 76.653 217.448 79.6603C218.545 82.6642 218.835 85.905 218.291 89.0576C217.946 91.2771 217.162 93.405 215.984 95.3149C214.862 97.134 213.414 98.7292 211.714 100.02C209.993 101.313 208.027 102.24 205.937 102.741C204.579 103.076 203.185 103.23 201.788 103.2L200.851 108.907C200.799 109.223 200.686 109.526 200.517 109.798C200.349 110.07 200.128 110.306 199.869 110.492C199.61 110.679 199.316 110.812 199.006 110.885C198.695 110.958 198.373 110.968 198.059 110.916C197.744 110.863 197.443 110.75 197.172 110.58C196.901 110.411 196.666 110.19 196.481 109.929C196.295 109.669 196.162 109.374 196.09 109.062C196.017 108.75 196.007 108.427 196.059 108.111L196.985 102.475C193.643 101.583 190.689 99.6052 188.582 96.8512C187.556 95.5499 186.752 94.0871 186.204 92.5216C186.036 92.0559 185.885 91.5777 185.754 91.0813C185.411 89.7901 185.228 88.4611 185.208 87.1247C185.198 86.6906 185.284 86.2594 185.458 85.862C185.633 85.465 185.893 85.1113 186.219 84.8262C186.545 84.5411 186.93 84.3317 187.345 84.2127C187.761 84.0941 188.198 84.0685 188.625 84.1385L191.499 84.6186L193.538 84.9556C194.142 85.0579 194.7 85.3471 195.133 85.7823C195.565 86.2179 195.852 86.778 195.954 87.3849C196.096 88.2249 196.338 89.0446 196.676 89.8264C197.078 90.7499 197.807 91.4902 198.722 91.9025L200.93 78.4603L198.49 77.0679C195.464 75.4104 192.966 72.927 191.284 69.9041C189.701 66.8669 189.197 63.3784 189.855 60.0145C190.201 57.7902 191.004 55.6631 192.213 53.768C193.365 51.9629 194.866 50.4096 196.629 49.2004C198.311 47.9903 200.228 47.1485 202.255 46.7288C203.551 46.4571 204.874 46.341 206.198 46.3822L207.021 41.3634C207.126 40.725 207.48 40.1545 208.003 39.7775C208.262 39.591 208.556 39.4576 208.866 39.3845C209.177 39.3119 209.499 39.3011 209.814 39.3534C210.128 39.4057 210.43 39.5198 210.701 39.6889C210.972 39.8579 211.207 40.0793 211.392 40.3399C211.578 40.6001 211.711 40.8948 211.784 41.207C211.856 41.5191 211.867 41.8424 211.814 42.1586L210.993 47.1648C212.308 47.5607 213.565 48.1286 214.732 48.8549C216.465 49.9236 217.953 51.3498 219.098 53.0391C220.253 54.7682 221.067 56.7033 221.495 58.7404ZM207.873 87.5528C208.14 86.1612 207.947 84.7198 207.324 83.4483C206.846 82.5756 206.189 81.8149 205.396 81.2169L203.564 92.3644C204.157 92.1964 204.727 91.9525 205.258 91.6381C205.978 91.2059 206.589 90.6124 207.042 89.9036C207.496 89.1947 207.78 88.3903 207.873 87.5528ZM202.765 67.2743L204.456 56.9813C203.655 57.1204 202.907 57.4751 202.292 58.0079C201.195 58.9261 200.47 60.2147 200.252 61.6316C200.086 62.6752 200.177 63.7436 200.517 64.7434C200.986 65.8011 201.772 66.686 202.765 67.2743Z" fill="#CCEFF6"/>
<path d="M164.856 139.958C165.525 142.935 170.486 144.103 173.739 139.979C175.801 137.456 176.917 134.286 176.893 131.022H177.021C177.021 131.022 178.515 130.418 178.873 129.339C178.873 129.339 183.731 128.696 185.495 128.402C187.26 128.108 207.619 141.781 212.613 151.008C213.858 152.679 214.906 154.491 215.734 156.406C216.276 157.812 216.483 159.152 215.83 159.928C213.579 162.616 210.826 161.825 208.895 159.591C208.799 159.482 208.704 159.366 208.608 159.248C206.666 156.756 201.682 150.674 201.682 150.674L197.524 148.081C198.494 148.993 199.405 149.966 200.251 150.995C201.364 152.52 205.743 157.011 207.71 160.091C208.216 160.757 208.548 161.539 208.677 162.367C208.635 162.973 208.451 163.559 208.139 164.079C207.827 164.599 207.396 165.036 206.882 165.355C206.368 165.674 205.786 165.866 205.185 165.914C204.582 165.962 203.978 165.865 203.42 165.632C203.351 165.603 203.285 165.568 203.222 165.526C201.557 164.49 193.362 157.105 192.09 155.901C191.836 155.426 191.485 155.01 191.062 154.679C190.806 154.472 190.533 154.287 190.247 154.125L190.234 154.115C188.079 152.884 185.72 153.347 183.683 154.946C181.436 156.719 182.422 155.672 181.45 156.689C181.367 155.889 181.026 155.139 180.48 154.551C178.467 152.28 175.737 152.168 173.168 153.557C171.185 154.702 169.272 155.965 167.439 157.339L159.962 158.058L159.897 158.046C160.08 156.709 159.792 155.35 159.082 154.205C157.457 151.743 155.019 151.997 153.735 152.074C153.524 152.088 153.315 152.125 153.113 152.186L153.097 152.074C152.102 151.582 151.137 151.028 150.21 150.416C148.994 149.654 147.674 148.776 146.619 148.064C145.457 147.279 144.622 146.698 144.622 146.698C144.701 137.176 145.391 127.67 146.688 118.237L148.374 118.894C151.106 119.96 156.27 121.967 156.931 122.201C157.247 122.368 157.599 122.456 157.956 122.456C158.313 122.456 158.665 122.368 158.981 122.201C159.916 121.845 170.921 116.024 173.145 115.493C175.369 114.961 179.784 115.693 179.784 115.693C177.576 116.726 175.639 117.848 173.571 118.574C170.332 119.713 167.392 119.174 166.505 123.929C165.619 128.685 165.75 134.526 164.859 138.486C164.747 138.97 164.745 139.474 164.856 139.958Z" fill="#FFCEB6"/>
<path d="M208.619 159.247C208.714 159.365 208.81 159.481 208.905 159.589C208.905 159.589 207.749 160.127 207.726 160.092C205.759 157.013 201.38 152.521 200.266 150.996C199.42 149.967 198.509 148.994 197.539 148.082L201.698 150.674C201.698 150.674 206.677 156.755 208.619 159.247Z" fill="#FFCEB6"/>
<path d="M203.234 165.526L203.007 165.859C202.922 166.307 202.734 166.729 202.458 167.092C202.183 167.454 201.826 167.746 201.418 167.946C200.838 168.312 200.189 168.553 199.511 168.654C198.834 168.755 198.143 168.713 197.482 168.532C196.89 168.244 196.318 167.915 195.771 167.546L194.897 167.45C195.338 167.04 195.729 166.578 196.06 166.074C197.302 163.969 197.259 162.665 195.889 161.569C195.374 161.08 194.74 160.735 194.05 160.569C193.361 160.403 192.64 160.421 191.96 160.623L191.815 160.533C191.889 160.41 191.953 160.282 192.006 160.149C192.333 159.493 192.512 158.772 192.528 158.038C192.545 157.304 192.399 156.576 192.102 155.906C193.373 157.104 201.565 164.49 203.234 165.526Z" fill="#FFCEB6"/>
<path d="M197.482 168.533C196.318 169.981 194.728 171.021 192.939 171.504C192.562 171.64 192.161 171.692 191.762 171.657C191.363 171.621 190.977 171.499 190.63 171.299L190.182 171.292C191.834 170.115 193.409 168.832 194.896 167.452L195.771 167.548C196.318 167.915 196.889 168.245 197.482 168.533Z" fill="#FFCEB6"/>
<path d="M195.889 161.561C197.259 162.657 197.298 163.962 196.06 166.066C195.729 166.57 195.338 167.033 194.897 167.443C193.409 168.823 191.835 170.106 190.183 171.283C189.634 171.683 189.283 171.926 189.283 171.926C183.875 175.118 181.478 175.827 179.543 174.912C178.944 174.672 178.406 174.298 177.971 173.82C177.536 173.341 177.214 172.769 177.031 172.147L176.935 171.929C179.106 170.974 181.209 169.87 183.229 168.627C183.229 168.627 190.302 163.099 191.812 160.522L191.957 160.611C192.638 160.41 193.36 160.391 194.05 160.558C194.739 160.725 195.374 161.071 195.889 161.561Z" fill="#FFCEB6"/>
<path d="M192.103 155.897C192.4 156.567 192.546 157.296 192.529 158.029C192.513 158.763 192.334 159.484 192.007 160.141C191.954 160.274 191.89 160.402 191.816 160.525C190.305 163.102 183.233 168.629 183.233 168.629C181.213 169.873 179.109 170.977 176.939 171.932C172.446 173.81 171.401 172.701 169.787 171.939C168.25 171.123 167.096 169.731 166.575 168.065V168.019C167.911 167.919 169.215 167.56 170.415 166.963C170.415 166.963 179.18 162.258 180.497 160.089C181.183 159.091 181.523 157.894 181.466 156.683C182.438 155.666 181.452 156.713 183.699 154.941C185.736 153.34 188.096 152.878 190.25 154.109L190.263 154.119C190.55 154.281 190.822 154.466 191.078 154.674C191.501 155.005 191.85 155.422 192.103 155.897Z" fill="#FFCEB6"/>
<path d="M167.444 157.337C169.279 155.963 171.194 154.7 173.179 153.555C175.748 152.165 178.477 152.278 180.491 154.549C181.036 155.137 181.377 155.887 181.46 156.687C181.517 157.898 181.177 159.095 180.491 160.092C179.174 162.261 170.41 166.966 170.41 166.966C169.209 167.563 167.905 167.922 166.569 168.022C164.03 168.107 161.495 167.75 159.076 166.966C156.439 166.28 155.181 161.324 155.181 161.324C156.19 161.158 157.173 160.859 158.104 160.432C158.58 160.218 158.994 159.887 159.309 159.47C159.624 159.052 159.829 158.562 159.905 158.043L159.97 158.056L167.444 157.337Z" fill="#FFCEB6"/>
<path d="M178.571 36.874L179.191 39.891L142.226 47.5433L152.248 96.4075L149.242 97.0277L148.622 94.0082L138.603 45.1478L175.565 37.4954L178.571 36.874Z" fill="#CCEFF6"/>
<path d="M175.565 37.4949L138.603 45.1476L148.622 94.008L145.616 94.632L134.976 42.748L174.948 34.4753L175.565 37.4949Z" fill="#006B99"/>
<path d="M153.122 152.185C153.324 152.124 153.532 152.086 153.743 152.072C155.028 151.999 157.461 151.742 159.091 154.204C159.8 155.349 160.089 156.708 159.906 158.045C159.83 158.562 159.624 159.053 159.31 159.471C158.995 159.888 158.581 160.219 158.105 160.433C157.174 160.859 156.191 161.159 155.181 161.324C152.938 161.703 150.605 161.499 149.58 160.486C147.86 158.78 146.01 154.86 150.028 150.718L150.219 150.414C151.147 151.026 152.111 151.579 153.106 152.071L153.122 152.185Z" fill="#FFCEB6"/>
<path d="M147.807 116.58L147.77 116.61C147.735 116.563 147.69 116.523 147.637 116.495C147.585 116.467 147.527 116.451 147.467 116.448C147.408 116.445 147.349 116.456 147.294 116.479C147.239 116.502 147.19 116.536 147.15 116.58C146.898 117.099 146.744 117.661 146.696 118.237C145.399 127.669 144.709 137.175 144.631 146.697C144.673 148.891 144.847 150.337 145.199 150.532C145.418 150.684 145.688 150.743 145.951 150.696L145.964 150.739C144.985 151.393 142.373 151.722 141.663 149.647C141.488 147.965 141.475 146.269 141.624 144.584C141.962 136.423 143.286 121.061 144.013 116.851C144.053 116.485 144.143 116.126 144.283 115.786C145.068 114.752 147.715 115.347 147.807 116.58Z" fill="#CCEFF6"/>
<path d="M143.837 116.818L144.017 116.852C143.288 121.066 141.964 136.428 141.628 144.585H141.532C141.532 144.585 135.869 142.031 132.992 141.687C128.82 141.193 86.4343 121.419 86.4343 121.419L102.652 89.6855L141.201 115.501L143.837 116.818Z" fill="#FFCEB6"/>
<path d="M254.032 85.7153L268.026 118.092" stroke="#FFCEB6" stroke-width="3.39567" stroke-linecap="round" stroke-linejoin="round"/>
<path d="M86.4306 121.415L102.652 89.6855" stroke="#FFCEB6" stroke-width="3.39567" stroke-linecap="round" stroke-linejoin="round"/>
<path d="M220.614 189.832C210.479 196.556 198.767 200.493 186.644 201.252C174.522 202.012 162.414 199.565 151.526 194.157C140.638 188.749 131.352 180.569 124.593 170.431C117.833 160.294 113.837 148.553 113.003 136.381" stroke="#006B99" stroke-width="3.39567" stroke-linecap="round" stroke-linejoin="round"/>
<path d="M251.742 133.701C251.455 143.661 249.043 153.442 244.669 162.386C240.297 171.329 234.064 179.225 226.393 185.542" stroke="#006B99" stroke-width="3.39567" stroke-linecap="round" stroke-linejoin="round"/>
<path d="M212.862 178.714C205.297 183.733 196.621 186.812 187.596 187.678C178.571 188.544 169.472 187.173 161.098 183.683C152.723 180.194 145.329 174.693 139.564 167.664C133.799 160.635 129.839 152.292 128.031 143.367" stroke="#006B99" stroke-width="3.39567" stroke-linecap="round" stroke-linejoin="round"/>
<path d="M236.75 142.646C234.333 155.463 227.509 167.018 217.47 175.292" stroke="#006B99" stroke-width="3.39567" stroke-linecap="round" stroke-linejoin="round"/>
<path d="M219.56 91.3049C222.839 94.2777 225.753 97.6319 228.242 101.298" stroke="#006B99" stroke-width="3.39567" stroke-linecap="round" stroke-linejoin="round"/>
<path d="M132.838 107.548C135.393 102.392 138.728 97.6631 142.722 93.53" stroke="#006B99" stroke-width="3.39567" stroke-linecap="round" stroke-linejoin="round"/>
<path d="M216.288 70.7231C225.031 75.6644 232.612 82.4389 238.515 90.5861" stroke="#006B99" stroke-width="3.39567" stroke-linecap="round" stroke-linejoin="round"/>
<path d="M120.914 98.929C125.357 90.5297 131.456 83.1265 138.839 77.1709" stroke="#006B99" stroke-width="3.39567" stroke-linecap="round" stroke-linejoin="round"/>
<path d="M206.891 118.877C206.891 118.877 229.783 103.113 235.768 98.7964C241.753 94.4798 254.036 85.7153 254.036 85.7153" stroke="#006B99" stroke-width="3.39567" stroke-linecap="round" stroke-linejoin="round"/>
<path d="M223.48 148.099C223.48 148.099 232.421 143.525 236.488 139.931C240.555 136.338 268.028 118.092 268.028 118.092" stroke="#006B99" stroke-width="3.39567" stroke-linecap="round" stroke-linejoin="round"/>
<path d="M86.4306 121.415C86.4306 121.415 128.817 141.194 132.989 141.683C135.867 142.027 141.53 144.581 141.53 144.581" stroke="#006B99" stroke-width="3.39567" stroke-linecap="round" stroke-linejoin="round"/>
<path d="M143.838 116.818L141.201 115.501L102.652 89.6855" stroke="#006B99" stroke-width="3.39567" stroke-linecap="round" stroke-linejoin="round"/>
<path d="M148.415 118.808C148.358 118.038 148.139 117.288 147.77 116.61C147.735 116.562 147.689 116.523 147.637 116.495C147.584 116.467 147.526 116.451 147.467 116.448C147.408 116.445 147.349 116.456 147.294 116.479C147.239 116.501 147.19 116.536 147.15 116.58C146.898 117.099 146.744 117.661 146.696 118.237C145.399 127.669 144.709 137.175 144.631 146.696C144.673 148.89 144.847 150.337 145.198 150.532C145.418 150.684 145.688 150.742 145.951 150.696C146.811 150.472 146.533 148.343 146.533 148.343" stroke="#006B99" stroke-width="3.39567" stroke-linecap="round" stroke-linejoin="round"/>
<path d="M147.807 116.58C147.711 115.347 145.068 114.756 144.289 115.785C144.149 116.126 144.058 116.485 144.019 116.851C143.29 121.065 141.966 136.427 141.63 144.584C141.48 146.269 141.494 147.964 141.669 149.647C142.375 151.722 144.987 151.392 145.97 150.739" stroke="#006B99" stroke-width="3.39567" stroke-linecap="round" stroke-linejoin="round"/>
<path d="M146.696 118.237L148.382 118.893C151.115 119.959 156.279 121.966 156.939 122.2C157.255 122.368 157.607 122.455 157.964 122.455C158.321 122.455 158.673 122.368 158.989 122.2C159.925 121.844 170.93 116.022 173.154 115.492C175.378 114.961 179.793 115.692 179.793 115.692" stroke="#006B99" stroke-width="3.39567" stroke-linecap="round" stroke-linejoin="round"/>
<path d="M144.631 146.697C144.631 146.697 145.465 147.277 146.627 148.063C147.678 148.775 149.003 149.653 150.218 150.415C151.146 151.027 152.11 151.58 153.105 152.072" stroke="#006B99" stroke-width="3.39567" stroke-linecap="round" stroke-linejoin="round"/>
<path d="M223.151 141.805C223.151 143.199 223.981 145.443 223.407 148.082C222.861 150.594 221.045 153.459 216.039 156.3" stroke="#006B99" stroke-width="3.39567" stroke-linecap="round" stroke-linejoin="round"/>
<path d="M211.388 121.111C209.992 120.176 208.47 119.447 206.867 118.946C205.727 118.567 204.558 118.281 203.372 118.092C198.353 117.286 187.985 112.894 183.859 114.115C182.466 114.537 181.106 115.066 179.793 115.696C177.585 116.729 175.647 117.85 173.58 118.576C170.341 119.715 167.401 119.176 166.514 123.932C165.627 128.688 165.759 134.529 164.868 138.489C164.754 138.971 164.751 139.473 164.859 139.957C165.528 142.934 170.489 144.102 173.742 139.977C175.804 137.455 176.92 134.285 176.896 131.021C176.889 130.1 176.786 129.183 176.587 128.285" stroke="#006B99" stroke-width="3.39567" stroke-linecap="round" stroke-linejoin="round"/>
<path d="M177.023 131.021C177.023 131.021 178.518 130.417 178.876 129.338C178.876 129.338 183.734 128.695 185.498 128.401C187.263 128.107 207.622 141.78 212.615 151.006" stroke="#006B99" stroke-width="3.39567" stroke-linecap="round" stroke-linejoin="round"/>
<path d="M212.616 151.007C213.861 152.678 214.909 154.49 215.737 156.405C216.279 157.811 216.486 159.151 215.833 159.927C213.582 162.615 210.829 161.824 208.898 159.59C208.802 159.481 208.707 159.365 208.611 159.247C206.669 156.755 201.686 150.673 201.686 150.673L197.527 148.08" stroke="#006B99" stroke-width="3.39567" stroke-linecap="round" stroke-linejoin="round"/>
<path d="M190.258 139.226C190.343 140.115 190.565 140.985 190.916 141.805C191.188 142.122 194.821 145.413 197.534 148.082C198.504 148.994 199.415 149.967 200.261 150.996C201.374 152.521 205.754 157.013 207.721 160.092C208.226 160.758 208.559 161.54 208.687 162.368C208.646 162.974 208.461 163.56 208.149 164.08C207.837 164.599 207.406 165.037 206.893 165.356C206.379 165.675 205.797 165.866 205.195 165.915C204.593 165.963 203.988 165.866 203.43 165.633C203.361 165.604 203.295 165.569 203.232 165.527C201.567 164.491 193.372 157.106 192.1 155.902L192.094 155.895" stroke="#006B99" stroke-width="3.39567" stroke-linecap="round" stroke-linejoin="round"/>
<path d="M203.007 165.859C202.922 166.308 202.734 166.729 202.458 167.092C202.182 167.454 201.826 167.746 201.418 167.946C200.838 168.312 200.188 168.553 199.511 168.654C198.833 168.755 198.143 168.714 197.482 168.532C196.889 168.244 196.318 167.915 195.771 167.546" stroke="#006B99" stroke-width="3.39567" stroke-linecap="round" stroke-linejoin="round"/>
<path d="M197.482 168.532C196.318 169.98 194.728 171.02 192.939 171.503C192.563 171.639 192.161 171.691 191.762 171.656C191.363 171.621 190.977 171.499 190.63 171.299" stroke="#006B99" stroke-width="3.39567" stroke-linecap="round" stroke-linejoin="round"/>
<path d="M185.498 128.401C185.498 128.401 186.984 126.922 186.984 126.081" stroke="#006B99" stroke-width="3.39567" stroke-linecap="round" stroke-linejoin="round"/>
<path d="M178.876 129.338C179.012 128.645 179.012 127.932 178.876 127.239" stroke="#006B99" stroke-width="3.39567" stroke-linecap="round" stroke-linejoin="round"/>
<path d="M164.78 139.651C164.78 139.759 164.806 139.865 164.856 139.961C165.45 141.169 169.619 140.779 170.956 138.767C172.398 136.592 170.637 133.701 170.637 133.701" stroke="#006B99" stroke-width="3.39567" stroke-linecap="round" stroke-linejoin="round"/>
<path d="M165.667 132.915C165.667 132.915 166.737 132.833 168.152 132.667" stroke="#006B99" stroke-width="3.39567" stroke-linecap="round" stroke-linejoin="round"/>
<path d="M212.14 160.092C213.117 159.801 214.016 159.289 214.764 158.593" stroke="#006B99" stroke-width="3.39567" stroke-linecap="round" stroke-linejoin="round"/>
<path d="M208.9 159.59C208.9 159.59 207.744 160.127 207.721 160.092" stroke="#006B99" stroke-width="3.39567" stroke-linecap="round" stroke-linejoin="round"/>
<path d="M150.842 153.4C151.532 152.876 152.302 152.467 153.122 152.19C153.324 152.129 153.532 152.091 153.743 152.077C155.028 152.004 157.461 151.747 159.091 154.209C159.8 155.354 160.089 156.713 159.906 158.049C159.83 158.567 159.624 159.058 159.31 159.476C158.995 159.893 158.581 160.224 158.105 160.438C157.174 160.864 156.191 161.164 155.181 161.329C152.938 161.708 150.605 161.504 149.58 160.491C147.86 158.785 146.01 154.865 150.028 150.723" stroke="#006B99" stroke-width="3.39567" stroke-linecap="round" stroke-linejoin="round"/>
<path d="M167.444 157.337C166.685 157.892 166.054 158.364 165.664 158.655" stroke="#006B99" stroke-width="3.39567" stroke-linecap="round" stroke-linejoin="round"/>
<path d="M155.182 161.326C155.182 161.326 156.441 166.282 159.077 166.968C161.496 167.752 164.031 168.109 166.571 168.024C167.906 167.924 169.211 167.565 170.411 166.968C170.411 166.968 179.175 162.263 180.492 160.095C181.178 159.097 181.519 157.9 181.461 156.689C181.378 155.889 181.038 155.139 180.492 154.551C178.479 152.28 175.749 152.167 173.18 153.557C171.197 154.702 169.284 155.965 167.451 157.339" stroke="#006B99" stroke-width="3.39567" stroke-linecap="round" stroke-linejoin="round"/>
<path d="M167.451 157.339H167.448L159.971 158.058" stroke="#006B99" stroke-width="3.39567" stroke-linecap="round" stroke-linejoin="round"/>
<path d="M173.357 156.944C172.735 157.683 172.396 158.621 172.401 159.59C172.448 159.997 172.593 160.387 172.825 160.725C173.056 161.063 173.367 161.338 173.729 161.528C174.092 161.717 174.495 161.813 174.903 161.809C175.311 161.805 175.712 161.7 176.071 161.504C177.769 160.56 180.489 158.65 179.741 156.944" stroke="#006B99" stroke-width="3.39567" stroke-linecap="round" stroke-linejoin="round"/>
<path d="M174.523 155.897C175.117 155.368 175.841 155.009 176.619 154.857C177.167 154.833 177.703 155.018 178.121 155.375" stroke="#006B99" stroke-width="3.39567" stroke-linecap="round" stroke-linejoin="round"/>
<path d="M190.246 154.115C188.09 152.884 185.732 153.346 183.695 154.946C181.448 156.719 182.433 155.672 181.461 156.689C181.441 156.709 181.422 156.732 181.399 156.755" stroke="#006B99" stroke-width="3.39567" stroke-linecap="round" stroke-linejoin="round"/>
<path d="M166.575 168.071C167.095 169.737 168.25 171.129 169.787 171.945C171.4 172.707 172.451 173.816 176.938 171.938C179.109 170.983 181.212 169.879 183.233 168.635C183.233 168.635 190.305 163.107 191.815 160.531C191.889 160.408 191.953 160.279 192.006 160.147C192.334 159.49 192.512 158.769 192.529 158.035C192.545 157.301 192.399 156.573 192.102 155.903C191.848 155.428 191.498 155.012 191.075 154.681C190.819 154.474 190.546 154.289 190.259 154.127" stroke="#006B99" stroke-width="3.39567" stroke-linecap="round" stroke-linejoin="round"/>
<path d="M184.44 158.253C183.955 159.089 183.781 160.072 183.951 161.025C184.066 161.418 184.275 161.778 184.56 162.071C184.846 162.364 185.198 162.582 185.587 162.707C185.976 162.831 186.389 162.858 186.791 162.784C187.192 162.711 187.57 162.54 187.89 162.286C189.408 161.065 191.763 158.718 190.738 157.164" stroke="#006B99" stroke-width="3.39567" stroke-linecap="round" stroke-linejoin="round"/>
<path d="M185.412 157.019C185.908 156.398 186.56 155.922 187.301 155.639C187.838 155.522 188.398 155.613 188.871 155.894" stroke="#006B99" stroke-width="3.39567" stroke-linecap="round" stroke-linejoin="round"/>
<path d="M177.03 172.156C177.214 172.778 177.536 173.349 177.971 173.828C178.406 174.307 178.944 174.681 179.543 174.921C181.478 175.835 183.875 175.126 189.283 171.935C189.283 171.935 189.634 171.691 190.182 171.292C191.835 170.115 193.409 168.832 194.896 167.451C195.338 167.041 195.728 166.579 196.059 166.074C197.302 163.97 197.259 162.666 195.889 161.57C195.373 161.081 194.739 160.736 194.05 160.569C193.361 160.403 192.64 160.422 191.96 160.624" stroke="#006B99" stroke-width="3.39567" stroke-linecap="round" stroke-linejoin="round"/>
<path d="M190.488 163.827C190.113 164.473 189.979 165.233 190.111 165.969C190.199 166.274 190.361 166.552 190.582 166.78C190.802 167.007 191.075 167.176 191.376 167.273C191.677 167.369 191.997 167.389 192.308 167.333C192.619 167.276 192.911 167.142 193.159 166.945C194.332 166.001 196.155 164.187 195.357 162.982" stroke="#006B99" stroke-width="3.39567" stroke-linecap="round" stroke-linejoin="round"/>
<path d="M191.243 162.87C191.627 162.389 192.133 162.021 192.708 161.804C193.122 161.712 193.556 161.784 193.92 162.002" stroke="#006B99" stroke-width="3.39567" stroke-linecap="round" stroke-linejoin="round"/>
<path d="M186.984 149.934L188.084 152.043L190.246 154.115L190.258 154.125" stroke="#006B99" stroke-width="3.39567" stroke-linecap="round" stroke-linejoin="round"/>
<path d="M158.105 160.435C157.151 159.995 156.28 159.391 155.533 158.65C155.026 157.986 154.674 157.215 154.505 156.395C154.469 156.21 154.386 156.037 154.263 155.894C154.141 155.751 153.984 155.642 153.806 155.579C153.63 155.515 153.439 155.499 153.254 155.532C153.069 155.565 152.896 155.645 152.751 155.765C152.291 156.107 151.969 156.604 151.844 157.164C151.699 157.808 151.774 158.482 152.057 159.078C152.339 159.674 152.812 160.158 153.401 160.451" stroke="#006B99" stroke-width="3.39567" stroke-linecap="round" stroke-linejoin="round"/>
<path d="M186.179 92.5292L152.866 99.4231L152.248 96.4073L142.226 47.5432L179.191 39.8905L182.194 39.2703L191.497 84.6126" stroke="#006B99" stroke-width="3.39567" stroke-linecap="round" stroke-linejoin="round"/>
<path d="M152.248 96.4075L149.242 97.0277L148.622 94.0082L138.603 45.1478L175.565 37.4954L178.571 36.874L179.191 39.891V39.8936" stroke="#006B99" stroke-width="3.39567" stroke-linecap="round" stroke-linejoin="round"/>
<path d="M148.622 94.008L145.616 94.632L134.976 42.748L174.948 34.4753L175.565 37.4949" stroke="#006B99" stroke-width="3.39567" stroke-linecap="round" stroke-linejoin="round"/>
<path d="M150.001 53.1303L177.253 47.4902" stroke="#006B99" stroke-width="3.39567" stroke-linecap="round" stroke-linejoin="round"/>
<path d="M152.741 58.8594L179.993 53.2156" stroke="#006B99" stroke-width="3.39567" stroke-linecap="round" stroke-linejoin="round"/>
<path d="M150.356 62.4993L180.614 56.2354" stroke="#006B99" stroke-width="3.39567" stroke-linecap="round" stroke-linejoin="round"/>
<path d="M150.974 65.5183L181.231 59.2554" stroke="#006B99" stroke-width="3.39567" stroke-linecap="round" stroke-linejoin="round"/>
<path d="M151.595 68.538L172.835 64.1394" stroke="#006B99" stroke-width="3.39567" stroke-linecap="round" stroke-linejoin="round"/>
<path d="M155.218 70.9348L182.47 65.2947" stroke="#006B99" stroke-width="3.39567" stroke-linecap="round" stroke-linejoin="round"/>
<path d="M152.833 74.5744L183.091 68.3145" stroke="#006B99" stroke-width="3.39567" stroke-linecap="round" stroke-linejoin="round"/>
<path d="M153.451 77.5932L183.708 71.3303" stroke="#006B99" stroke-width="3.39567" stroke-linecap="round" stroke-linejoin="round"/>
<path d="M157.074 79.9925L184.33 74.3499" stroke="#006B99" stroke-width="3.39567" stroke-linecap="round" stroke-linejoin="round"/>
<path d="M154.689 83.6325L184.947 77.3696" stroke="#006B99" stroke-width="3.39567" stroke-linecap="round" stroke-linejoin="round"/>
<path d="M155.31 86.6524L185.567 80.3892" stroke="#006B99" stroke-width="3.39567" stroke-linecap="round" stroke-linejoin="round"/>
<path d="M164.97 92.5198L168.056 91.8832L171.721 91.1236L179.336 89.5462L180.782 89.2456L183.209 88.7444" stroke="#006B99" stroke-width="3.39567" stroke-linecap="round" stroke-linejoin="round"/>
<path d="M173.943 87.863C173.848 88.2134 173.256 90.418 174.072 90.441C174.952 90.467 176.959 85.3818 176.959 85.3818C176.959 85.3818 175.976 89.5105 177.165 89.5961C178.354 89.6814 178.181 86.659 179.213 86.3787C179.938 86.18 179.337 88.3383 179.337 89.5472C179.337 90.0655 179.449 90.4113 179.82 90.3153C180.283 90.2 180.562 89.7611 180.783 89.2458C181.144 88.3817 181.351 87.3051 181.995 87.1439" stroke="#006B99" stroke-width="3.39567" stroke-linecap="round" stroke-linejoin="round"/>
<path d="M170.12 89.3482C170.541 90.3747 171.172 91.1724 171.703 91.0479C172.912 90.7539 173.812 88.2364 173.94 87.8631C173.943 87.8519 173.946 87.8408 173.95 87.8304V87.8208" stroke="#006B99" stroke-width="3.39567" stroke-linecap="round" stroke-linejoin="round"/>
<path d="M170.12 89.3483C171.095 87.4999 171.634 85.332 170.468 85.6326C169.336 85.9262 169.517 87.8695 170.12 89.3483Z" stroke="#006B99" stroke-width="3.39567" stroke-linecap="round" stroke-linejoin="round"/>
<path d="M168.033 91.7739C168.686 91.5963 169.494 90.5401 170.122 89.3486" stroke="#006B99" stroke-width="3.39567" stroke-linecap="round" stroke-linejoin="round"/>
<path d="M163.086 88.926L161.575 91.2323L160.064 93.5355" stroke="#006B99" stroke-width="3.39567" stroke-linecap="round" stroke-linejoin="round"/>
<path d="M159.278 89.7141L161.574 91.2322L163.867 92.7473" stroke="#006B99" stroke-width="3.39567" stroke-linecap="round" stroke-linejoin="round"/>
<path d="M186.202 92.52C186.75 94.0852 187.554 95.5484 188.58 96.8492C190.687 99.6029 193.642 101.58 196.983 102.473L196.057 108.109C196.005 108.425 196.015 108.748 196.087 109.061C196.16 109.372 196.293 109.667 196.479 109.928C196.664 110.188 196.899 110.409 197.17 110.579C197.441 110.748 197.742 110.862 198.057 110.914C198.371 110.966 198.693 110.956 199.004 110.883C199.315 110.81 199.608 110.677 199.867 110.49C200.126 110.304 200.347 110.068 200.515 109.796C200.684 109.524 200.797 109.221 200.849 108.905L201.785 103.199C203.183 103.229 204.578 103.074 205.935 102.74C208.025 102.238 209.992 101.31 211.712 100.016C213.412 98.7254 214.86 97.1306 215.982 95.3111C217.16 93.4023 217.945 91.2763 218.291 89.0575C218.835 85.9049 218.544 82.6638 217.447 79.6595C216.35 76.6511 213.878 74.0087 210.033 71.7325L207.237 70.0331L209.195 58.1168C209.553 58.3874 209.881 58.6962 210.173 59.0373C210.89 59.9025 211.294 60.985 211.32 62.1098C211.346 62.5331 211.515 62.935 211.799 63.2493C212.082 63.5633 212.464 63.7709 212.881 63.838L219.684 64.9665C219.943 65.0103 220.209 64.9988 220.463 64.9328C220.717 64.8668 220.955 64.7478 221.16 64.5836C221.366 64.4193 221.534 64.2136 221.655 63.9793C221.776 63.745 221.847 63.4881 221.862 63.2245C221.938 61.7198 221.814 60.2117 221.495 58.7396C221.065 56.7047 220.251 54.7714 219.097 53.0443C217.952 51.3549 216.464 49.9288 214.73 48.8596C213.564 48.1338 212.307 47.5654 210.993 47.1699L211.814 42.1637C211.866 41.8475 211.855 41.5242 211.783 41.2121C211.71 40.9 211.577 40.6052 211.391 40.3446C211.206 40.0844 210.97 39.8631 210.7 39.694C210.429 39.5246 210.127 39.4108 209.813 39.3585C209.498 39.3063 209.176 39.317 208.866 39.3897C208.555 39.4623 208.261 39.5958 208.002 39.7826C207.478 40.1596 207.125 40.7302 207.02 41.3685L206.196 46.3873C204.873 46.3458 203.55 46.4622 202.254 46.7339C200.227 47.1536 198.31 47.9955 196.627 49.2055C194.865 50.4148 193.364 51.9681 192.212 53.7727C191.002 55.6678 190.199 57.7954 189.854 60.0197C189.196 63.3835 189.7 66.872 191.283 69.9093C192.964 72.9321 195.463 75.4155 198.489 77.073L200.928 78.4624L198.72 91.9046C197.804 91.4924 197.075 90.7521 196.673 89.8286C196.335 89.0464 196.093 88.2264 195.951 87.386C195.849 86.7791 195.562 86.2193 195.129 85.7841C194.697 85.3489 194.139 85.0601 193.536 84.9578L191.496 84.6208L188.622 84.1407C188.195 84.0706 187.759 84.0962 187.343 84.2149C186.927 84.3339 186.542 84.5433 186.216 84.828C185.89 85.1131 185.63 85.4671 185.456 85.8642C185.281 86.2616 185.195 86.6927 185.205 87.1268C185.225 88.4633 185.408 89.7919 185.751 91.0835C185.883 91.5762 186.034 92.0544 186.202 92.52Z" stroke="#006B99" stroke-width="3.39567" stroke-linecap="round" stroke-linejoin="round"/>
<path d="M200.513 64.7463C200.173 63.7465 200.082 62.6781 200.248 61.6345C200.466 60.2176 201.191 58.9294 202.287 58.0108C202.903 57.478 203.651 57.1233 204.452 56.9846L202.76 67.2772C201.768 66.6889 200.982 65.8043 200.513 64.7463Z" stroke="#006B99" stroke-width="3.39567" stroke-linecap="round" stroke-linejoin="round"/>
<path d="M205.261 91.6381C204.73 91.9525 204.16 92.1964 203.566 92.364L205.399 81.2166C206.192 81.8149 206.849 82.5752 207.327 83.4479C207.95 84.7198 208.142 86.1612 207.876 87.5528C207.783 88.3903 207.499 89.1947 207.045 89.9036C206.591 90.612 205.981 91.2059 205.261 91.6381Z" stroke="#006B99" stroke-width="3.39567" stroke-linecap="round" stroke-linejoin="round"/>
</g>
<defs>
<clipPath id="clip0_2_1396">
<rect width="354.26" height="238" fill="white" transform="translate(0.0626221)"/>
</clipPath>
</defs>
</svg>
