<svg width="33" height="32" viewBox="0 0 33 32" fill="none" xmlns="http://www.w3.org/2000/svg">
<path d="M18.9283 15.1445C19.2728 15.1445 19.507 14.9788 19.7412 14.5369C20.5818 12.9629 21.2707 12.8524 21.6427 14.2056C22.0148 15.5311 23.4203 15.6692 23.4203 14.3851C23.4203 12.9629 21.1881 11.8029 19.5897 12.3829C18.4046 12.8247 17.8535 15.1445 18.9283 15.1445Z" fill="#006B99"/>
<path d="M11.5426 15.5725C11.5426 14.3437 12.3831 13.8466 12.7827 14.8269C13.2374 15.9177 14.0366 16.2353 14.3397 15.4345C14.9046 13.9708 11.8732 12.5348 10.5091 13.6119C9.97174 14.0399 9.48943 15.2964 9.68237 15.7935C9.91658 16.4148 11.5426 16.2077 11.5426 15.5725Z" fill="#006B99"/>
<path d="M12.4933 22.504C16.1861 24.1471 19.934 23.65 22.4005 21.1922C24.991 18.6101 23.999 15.9176 20.6506 16.4285C20.3336 16.4699 19.3967 16.8151 18.5837 17.188C16.9302 17.9336 15.9106 17.9888 13.6232 17.4364C9.86148 16.5527 8.89692 20.9161 12.4933 22.504ZM22.0285 17.4917C22.6623 18.2925 22.373 19.6595 21.3946 20.5847C20.747 21.1922 20.816 21.2474 20.375 19.7286C20.1821 19.052 19.9617 18.3616 19.879 18.1821C19.6309 17.5469 21.5876 16.9256 22.0285 17.4917ZM17.8948 18.4444C18.7077 18.2235 18.7078 18.2097 19.0798 19.9909C19.4932 21.9516 19.4932 21.9793 18.7904 22.2278C17.4263 22.7111 17.5778 22.6835 17.2471 18.6101L17.8948 18.4444ZM14.6016 18.5963H16.131C16.131 21.4822 16.1724 21.4408 16.3791 22.4902L15.635 22.3521C14.4913 22.145 14.6016 22.0621 14.6016 18.5963ZM13.0307 18.1407C13.513 18.265 13.7197 21.6755 13.2512 21.6755C12.8102 21.6755 11.7905 20.419 11.6528 19.6872C11.4323 18.4859 11.9835 17.8645 13.0307 18.1407Z" fill="#006B99"/>
<path d="M21.4637 7.28761C19.3003 6.19681 19.2452 6.61107 21.2846 8.59937C27.6643 14.7992 25.9419 24.1333 18.2944 24.8927C12.3557 25.4865 8.12542 21.8136 8.23568 16.2904C8.31836 11.8995 11.1982 7.30145 15.9382 6.74913C16.889 6.63864 16.9166 6.61107 16.4894 6.3763C15.828 6.00347 13.8989 6.07254 12.7277 6.48679C11.1982 7.03911 9.64115 8.17133 8.42855 9.63501C5.38338 13.2803 5.71411 19.0105 8.11166 22.4073C11.1018 26.6463 21.1192 27.3782 24.6329 23.6086C29.0422 18.8863 27.3611 10.2701 21.4637 7.28761Z" fill="#006B99"/>
</svg>
