<svg width="382" height="374" viewBox="0 0 382 374" fill="none" xmlns="http://www.w3.org/2000/svg">
<path d="M367.435 94.6995L351.452 179.149C349.216 177.83 346.894 176.671 344.498 175.682C345.465 168.512 345.116 164.531 343.612 162.273C343.831 161.897 343.983 161.486 344.06 161.059C344.251 160.052 344.036 159.01 343.466 158.163C342.896 157.316 342.015 156.733 341.019 156.541C340.021 156.349 338.989 156.565 338.152 157.142C337.312 157.718 336.734 158.607 336.545 159.614C336.524 159.73 336.505 159.853 336.491 159.967C333.531 161.31 331.589 165.887 329.634 171.382L329.595 171.783C317.544 170.332 305.35 172.822 294.805 178.886C293.993 164.377 299.009 145.332 294.582 138.957C294.808 138.583 294.963 138.169 295.039 137.738C295.144 137.185 295.128 136.615 294.992 136.069C294.856 135.523 294.605 135.014 294.252 134.577C293.902 134.14 293.459 133.786 292.958 133.539C292.457 133.292 291.909 133.159 291.352 133.149C290.794 133.139 290.242 133.252 289.732 133.48C289.223 133.709 288.768 134.047 288.401 134.471C288.034 134.895 287.765 135.395 287.61 135.936C287.455 136.476 287.418 137.045 287.503 137.601C277.47 143.679 275.833 181.565 262.769 179.435C249.618 177.284 269.109 123.331 259.35 111.144C259.649 110.709 259.853 110.214 259.946 109.692C260.04 109.193 260.037 108.681 259.934 108.184C259.833 107.688 259.635 107.216 259.353 106.796C259.071 106.377 258.711 106.017 258.291 105.739C257.87 105.46 257.4 105.267 256.907 105.172C256.414 105.077 255.906 105.081 255.414 105.183C254.923 105.286 254.455 105.486 254.04 105.771C253.625 106.055 253.268 106.42 252.993 106.844C252.717 107.268 252.526 107.743 252.432 108.241C252.363 108.594 252.345 108.954 252.377 109.312C237.905 116.704 237.105 195.645 216.245 192.112C195.761 188.645 218.441 126.18 208.408 113.789C208.481 113.593 208.537 113.392 208.576 113.187C208.67 112.688 208.667 112.175 208.565 111.678C208.462 111.181 208.265 110.709 207.983 110.289C207.7 109.869 207.338 109.509 206.918 109.23C206.498 108.951 206.028 108.758 205.533 108.663C205.039 108.568 204.532 108.572 204.04 108.675C203.547 108.778 203.079 108.978 202.664 109.263C202.248 109.548 201.892 109.914 201.615 110.338C201.339 110.762 201.149 111.237 201.054 111.736C201.021 111.92 201 112.106 200.992 112.292C186.802 118.588 178.943 170.168 170.662 169.056L191.173 60.6724L367.435 94.6995ZM237.916 79.2239C238.07 78.4162 237.981 77.5809 237.664 76.8235C237.347 76.0662 236.814 75.421 236.135 74.9693C235.454 74.5174 234.656 74.2797 233.841 74.2858C233.027 74.2919 232.233 74.5417 231.56 75.0036C230.886 75.4656 230.364 76.1189 230.058 76.8809C229.752 77.6428 229.677 78.4794 229.842 79.2847C230.005 80.0899 230.404 80.8278 230.984 81.4048C231.563 81.9817 232.3 82.3721 233.099 82.5265C234.171 82.7295 235.279 82.4963 236.181 81.8775C237.084 81.2589 237.708 80.305 237.916 79.2239ZM220.689 75.8932C220.843 75.0855 220.755 74.2502 220.438 73.4929C220.121 72.7356 219.589 72.0903 218.908 71.6386C218.228 71.1867 217.43 70.949 216.616 70.9551C215.801 70.9612 215.008 71.211 214.334 71.6729C213.66 72.1349 213.137 72.7882 212.832 73.5502C212.526 74.3121 212.45 75.1487 212.615 75.954C212.78 76.7592 213.178 77.4971 213.757 78.0741C214.337 78.651 215.074 79.0414 215.873 79.1958C216.946 79.4027 218.056 79.1709 218.96 78.5517C219.863 77.9324 220.484 76.976 220.689 75.8932ZM203.468 72.5725C203.62 71.7652 203.532 70.9306 203.215 70.1741C202.896 69.4174 202.364 68.7729 201.684 68.3219C201.005 67.871 200.207 67.6337 199.393 67.6403C198.58 67.6469 197.785 67.897 197.112 68.3589C196.44 68.8209 195.918 69.474 195.612 70.2357C195.307 70.9973 195.232 71.8333 195.397 72.638C195.562 73.4426 195.959 74.1799 196.539 74.7564C197.119 75.333 197.854 75.7229 198.653 75.8771C199.726 76.0818 200.835 75.8489 201.737 75.2295C202.64 74.61 203.261 73.6545 203.468 72.5725Z" fill="white"/>
<path d="M363.036 188.168C373.679 198.917 379.66 213.496 379.66 228.698C379.66 243.899 373.679 258.479 363.036 269.229C352.391 279.977 337.955 286.015 322.902 286.015C307.847 286.015 293.411 279.977 282.767 269.229L322.902 228.698L363.036 188.168Z" fill="#F7CEDC"/>
<path d="M363.036 188.167L322.902 228.694L282.767 188.164C290.693 180.168 300.781 174.717 311.765 172.496C322.75 170.274 334.139 171.382 344.502 175.677C346.897 176.668 349.221 177.827 351.455 179.144C355.685 181.634 359.578 184.668 363.036 188.167Z" fill="#006B99"/>
<path d="M343.623 162.273C345.127 164.531 345.476 168.512 344.509 175.682C339.741 173.701 334.727 172.39 329.607 171.782L329.647 171.38C331.602 165.886 333.544 161.308 336.503 159.965C336.42 160.843 336.636 161.724 337.117 162.461C337.597 163.197 338.313 163.745 339.145 164.014C339.976 164.284 340.875 164.258 341.688 163.94C342.503 163.623 343.187 163.034 343.625 162.271L343.623 162.273Z" fill="white"/>
<path d="M341.03 156.542C342.026 156.734 342.907 157.317 343.477 158.164C344.047 159.011 344.26 160.053 344.071 161.059C343.995 161.488 343.842 161.899 343.623 162.273C342.678 160.948 341.267 160.041 339.678 159.736C338.624 159.436 337.5 159.518 336.5 159.967C336.513 159.853 336.534 159.731 336.555 159.614C336.649 159.115 336.838 158.64 337.114 158.215C337.389 157.791 337.745 157.425 338.161 157.14C338.576 156.854 339.044 156.655 339.535 156.552C340.029 156.45 340.537 156.446 341.03 156.542Z" fill="#006B99"/>
<path d="M343.623 162.273C343.184 163.037 342.502 163.626 341.687 163.942C340.871 164.26 339.974 164.286 339.143 164.016C338.31 163.748 337.596 163.199 337.115 162.462C336.635 161.725 336.419 160.846 336.502 159.967C337.501 159.518 338.627 159.437 339.681 159.737C341.267 160.041 342.678 160.948 343.623 162.273Z" fill="#006B99"/>
<path d="M322.902 228.694L282.767 269.224C277.494 263.903 273.31 257.585 270.457 250.63C267.603 243.676 266.133 236.222 266.133 228.694C266.133 221.166 267.603 213.711 270.457 206.758C273.31 199.803 277.494 193.485 282.767 188.164L322.902 228.694Z" fill="#CCEFF6"/>
<path d="M292.008 133.223C292.502 133.318 292.973 133.509 293.392 133.788C293.813 134.066 294.175 134.425 294.457 134.845C294.741 135.265 294.938 135.737 295.04 136.234C295.141 136.731 295.144 137.243 295.05 137.742C294.975 138.174 294.819 138.587 294.593 138.962C293.908 137.927 292.849 137.203 291.645 136.941C290.948 136.768 290.222 136.737 289.514 136.852C288.805 136.965 288.126 137.222 287.516 137.605C287.421 136.994 287.474 136.369 287.669 135.783C287.863 135.197 288.196 134.667 288.637 134.237C289.077 133.807 289.612 133.491 290.2 133.315C290.786 133.138 291.408 133.107 292.008 133.223Z" fill="#006B99"/>
<path d="M294.593 138.962C299.02 145.33 293.998 164.375 294.816 178.889C287.477 183.117 281.163 188.944 276.334 195.945C271.507 202.947 268.284 210.949 266.903 219.366L231.557 212.544L164.864 199.671L169.997 172.547L170.662 169.062C178.943 170.173 186.801 118.594 201.011 112.3C200.973 113.221 201.261 114.126 201.823 114.851C202.387 115.576 203.188 116.074 204.083 116.255C204.978 116.436 205.907 116.288 206.703 115.837C207.501 115.387 208.111 114.664 208.425 113.799C218.46 126.191 195.78 188.655 216.264 192.122C237.126 195.655 237.921 116.714 252.397 109.323C252.469 110.113 252.779 110.861 253.289 111.466C253.797 112.071 254.477 112.503 255.237 112.703C255.997 112.903 256.8 112.862 257.537 112.585C258.272 112.308 258.906 111.808 259.351 111.154C269.11 123.342 249.615 177.295 262.769 179.446C275.834 181.574 277.473 143.689 287.506 137.611C287.626 138.4 287.983 139.133 288.533 139.707C289.08 140.282 289.793 140.67 290.57 140.819C291.345 140.968 292.149 140.87 292.868 140.538C293.588 140.207 294.187 139.658 294.584 138.968L294.593 138.962Z" fill="white"/>
<path d="M291.645 136.941C292.849 137.203 293.906 137.927 294.593 138.962C294.196 139.652 293.597 140.2 292.878 140.532C292.159 140.864 291.355 140.962 290.58 140.813C289.803 140.664 289.09 140.276 288.542 139.701C287.993 139.127 287.634 138.394 287.516 137.605C288.126 137.222 288.805 136.965 289.513 136.851C290.222 136.737 290.946 136.768 291.645 136.941Z" fill="#006B99"/>
<path d="M256.923 105.173C257.919 105.367 258.8 105.951 259.371 106.799C259.941 107.647 260.155 108.689 259.966 109.696C259.87 110.218 259.664 110.713 259.361 111.148C258.422 109.943 257.08 109.127 255.586 108.855C254.5 108.639 253.372 108.801 252.389 109.317C252.357 108.959 252.374 108.598 252.443 108.245C252.536 107.746 252.727 107.27 253.002 106.846C253.278 106.421 253.635 106.055 254.051 105.77C254.468 105.484 254.935 105.285 255.429 105.182C255.92 105.08 256.428 105.077 256.923 105.173Z" fill="#006B99"/>
<path d="M259.361 111.149C258.916 111.803 258.281 112.302 257.546 112.579C256.809 112.856 256.007 112.898 255.246 112.698C254.487 112.497 253.806 112.065 253.298 111.46C252.789 110.855 252.478 110.107 252.406 109.317C253.39 108.802 254.517 108.639 255.603 108.855C257.091 109.131 258.427 109.947 259.361 111.149Z" fill="#006B99"/>
<path d="M234.645 74.3527C235.448 74.5063 236.184 74.8966 236.766 75.4738C237.347 76.0511 237.746 76.7895 237.911 77.5958C238.077 78.4019 238.002 79.2396 237.696 80.0027C237.39 80.7659 236.867 81.4202 236.192 81.883C235.518 82.3456 234.724 82.596 233.908 82.6021C233.093 82.6083 232.294 82.3701 231.613 81.9178C230.931 81.4655 230.399 80.8191 230.08 80.0608C229.763 79.3024 229.677 78.4659 229.83 77.6573C230.037 76.5759 230.662 75.6214 231.563 75.0023C232.465 74.3832 233.574 74.1497 234.645 74.3527Z" fill="#F7CEDC"/>
<path d="M217.417 71.0295C218.218 71.1835 218.955 71.5737 219.535 72.1506C220.114 72.7273 220.513 73.4652 220.678 74.2703C220.843 75.0757 220.768 75.9124 220.462 76.6745C220.156 77.4367 219.634 78.0903 218.96 78.5524C218.287 79.0144 217.492 79.2645 216.677 79.2707C215.864 79.2768 215.066 79.0391 214.385 78.5874C213.704 78.1355 213.173 77.4901 212.856 76.7328C212.538 75.9753 212.45 75.1399 212.603 74.3321C212.809 73.2498 213.431 72.2938 214.334 71.6745C215.236 71.0552 216.346 70.8233 217.417 71.0295Z" fill="#F7CEDC"/>
<path d="M204.061 250.517L216.304 316.056L206.58 317.908L194.343 252.37L204.061 250.517Z" fill="#CCEFF6"/>
<path d="M205.55 108.665C206.548 108.858 207.429 109.443 207.999 110.291C208.569 111.14 208.784 112.182 208.595 113.189C208.555 113.394 208.499 113.596 208.425 113.791C207.559 112.686 206.308 111.956 204.927 111.749C203.596 111.54 202.236 111.729 201.011 112.292C201.019 112.106 201.04 111.92 201.072 111.737C201.264 110.73 201.842 109.841 202.682 109.265C203.523 108.689 204.554 108.473 205.55 108.665Z" fill="#006B99"/>
<path d="M204.927 111.751C206.308 111.958 207.559 112.688 208.425 113.793C208.11 114.658 207.499 115.381 206.703 115.832C205.907 116.282 204.977 116.43 204.083 116.249C203.188 116.068 202.385 115.57 201.823 114.845C201.259 114.12 200.971 113.215 201.011 112.294C202.235 111.731 203.596 111.542 204.927 111.751Z" fill="#006B99"/>
<path d="M197.425 214.991L187.704 216.843L194.345 252.387L204.065 250.535L197.425 214.991Z" fill="#F7CEDC"/>
<path d="M200.197 67.7075C200.998 67.8615 201.735 68.2515 202.315 68.8284C202.895 69.4053 203.293 70.143 203.458 70.9483C203.623 71.7536 203.548 72.5902 203.242 73.3525C202.936 74.1146 202.414 74.7681 201.74 75.2302C201.067 75.6923 200.273 75.9423 199.457 75.9485C198.644 75.9548 197.846 75.7171 197.165 75.2652C196.485 74.8135 195.953 74.1681 195.636 73.4106C195.319 72.6533 195.23 71.8178 195.384 71.0101C195.589 69.9284 196.212 68.9735 197.116 68.3546C198.017 67.7354 199.126 67.5029 200.197 67.7075Z" fill="#F7CEDC"/>
<path d="M183.658 293.805L188.793 321.293V321.3L179.076 323.146L173.938 295.654L183.658 293.805Z" fill="#CCEFF6"/>
<path d="M169.922 220.225L160.201 222.077L173.949 295.666L183.669 293.813L169.922 220.225Z" fill="#F7CEDC"/>
<path d="M152.051 277.079L161.286 326.536L151.566 328.388L142.325 278.93L152.043 277.079H152.051Z" fill="#CCEFF6"/>
<path d="M142.407 225.451L152.051 277.079H152.043L142.325 278.932L132.681 227.304L142.407 225.451Z" fill="#F7CEDC"/>
<path d="M139.27 66.5281C142.217 77.8091 141.379 89.7586 136.885 100.507C129.149 118.668 127.103 138.786 131.022 158.156L131.231 159.175C131.758 161.698 131.311 164.327 129.982 166.528C128.652 168.729 126.54 170.334 124.078 171.013L122.431 171.446L122.411 171.372L102.64 95.1699C101.204 102.955 96.8505 102.915 93.1629 100.174C95.569 94.6803 95.0782 85.7958 90.0734 87.1181C84.7348 88.5226 88.3827 96.6206 93.1629 100.174C91.2894 104.462 87.6494 106.685 83.0301 100.359L102.797 176.571L102.817 176.639L101.541 176.979C100.744 177.178 99.9254 177.281 99.1036 177.284C96.9746 177.279 94.9025 176.589 93.1877 175.315C91.473 174.04 90.2046 172.247 89.5668 170.197C83.5915 151.031 71.9462 134.173 56.1978 121.892C49.6003 116.719 44.3185 110.033 40.7903 102.388C37.2621 94.7431 35.5889 86.3587 35.9096 77.9303C36.2302 69.5018 38.5356 61.2718 42.6343 53.9227C46.7331 46.5735 52.5072 40.3166 59.4784 35.6707C66.4495 31.0247 74.4166 28.1236 82.7195 27.2077C91.0224 26.2918 99.4219 27.3873 107.222 30.4038C115.022 33.4202 121.997 38.2705 127.571 44.5528C133.144 50.835 137.155 58.3683 139.27 66.5281Z" fill="#FAE173"/>
<path d="M134.199 184.201C134.369 184.846 134.411 185.52 134.323 186.181C134.234 186.844 134.016 187.482 133.682 188.06C133.349 188.636 132.905 189.14 132.377 189.543C131.849 189.947 131.248 190.239 130.607 190.406L105.628 197.011C104.988 197.182 104.322 197.222 103.667 197.13C103.011 197.039 102.381 196.817 101.81 196.48C101.239 196.143 100.74 195.695 100.341 195.162C99.9415 194.629 99.65 194.023 99.4831 193.376C99.3724 192.957 99.3163 192.523 99.3162 192.088C99.3178 190.965 99.6876 189.872 100.368 188.982C101.048 188.093 102.001 187.456 103.077 187.17L128.054 180.565C129.146 180.278 130.301 180.366 131.338 180.815C132.039 181.124 132.66 181.588 133.156 182.175C133.652 182.761 134.009 183.454 134.199 184.201Z" fill="#CCEFF6"/>
<path d="M131.718 320.744L121.997 322.595L124.058 333.639L133.78 331.788L131.718 320.744Z" fill="#CCEFF6"/>
<path d="M131.721 190.196C131.938 191.04 132.048 191.908 132.049 192.78C132.046 195.027 131.306 197.212 129.946 198.99C128.585 200.769 126.68 202.042 124.527 202.612L116.099 204.836C114.819 205.177 113.486 205.259 112.175 205.077C110.864 204.896 109.601 204.456 108.459 203.78C107.317 203.106 106.317 202.21 105.518 201.146C104.719 200.08 104.136 198.867 103.802 197.573L131.721 190.196Z" fill="#CCEFF6"/>
<path d="M114.896 230.694L131.713 320.736L121.995 322.589L105.171 232.546L114.896 230.694Z" fill="#F7CEDC"/>
<path d="M131.634 174.278C131.741 174.698 131.795 175.131 131.795 175.568C131.796 176.693 131.427 177.786 130.746 178.677C130.066 179.568 129.112 180.205 128.034 180.491L103.058 187.096C102.297 187.3 101.499 187.319 100.73 187.151C99.9604 186.984 99.2412 186.636 98.631 186.133C98.0455 185.655 97.5729 185.05 97.2476 184.364C96.9221 183.677 96.7519 182.928 96.7495 182.167C96.7511 181.043 97.1207 179.95 97.8011 179.061C98.4814 178.172 99.4341 177.534 100.511 177.249L101.546 176.977L102.821 176.639L122.431 171.456L124.078 171.022L125.487 170.65C126.779 170.31 128.151 170.499 129.303 171.18C130.456 171.86 131.294 172.974 131.634 174.278Z" fill="#CCEFF6"/>
<path d="M122.405 171.382L122.425 171.456L102.815 176.639L102.795 176.571L83.0279 100.358C87.6492 106.684 91.2891 104.461 93.1607 100.173C96.8483 102.914 101.201 102.954 102.638 95.1694L122.405 171.382Z" fill="#FAE173"/>
<path d="M90.0731 87.1178C95.0779 85.7956 95.5687 94.6801 93.1626 100.174C88.3823 96.6203 84.7345 88.5284 90.0731 87.1178Z" fill="#F7CEDC"/>
<path d="M80.477 262.537C81.685 269.012 80.2969 275.707 76.6182 281.15C72.9394 286.592 67.2708 290.336 60.8589 291.559L59.5835 284.715C62.8847 284.087 65.9409 282.524 68.3954 280.208C70.8498 277.892 72.6014 274.917 73.4457 271.635C74.2899 268.351 74.1919 264.891 73.1633 261.664C72.1347 258.434 70.2176 255.566 67.636 253.395L72.2694 248.246C76.5474 251.919 79.4453 256.964 80.477 262.537Z" fill="#CCEFF6"/>
<path d="M72.2694 248.246L67.6362 253.395C64.704 250.922 61.0578 249.472 57.2426 249.264C53.4274 249.055 49.6477 250.098 46.4685 252.238C43.2891 254.379 40.8806 257.5 39.6029 261.137C38.3251 264.773 38.2468 268.729 39.3793 272.415L39.2701 272.449L32.5824 273.725C32.3996 273.073 32.2526 272.415 32.1254 271.744C31.1799 266.691 31.8105 261.466 33.9304 256.79C36.0502 252.115 39.5549 248.219 43.9605 245.639C48.3662 243.06 53.4557 241.927 58.527 242.392C63.5983 242.859 68.4013 244.903 72.2734 248.243L72.2694 248.246Z" fill="#F7CEDC"/>
<path d="M66.1913 333.223L68.2536 344.258L49.8317 347.772L47.7693 336.728L66.1913 333.223Z" fill="#006B99"/>
<path d="M63.1221 316.768L65.1845 327.804L46.7545 331.317L44.6942 320.276L63.1221 316.768Z" fill="#006B99"/>
<path d="M62.2834 204.461C62.4624 205.427 62.3536 206.426 61.9708 207.331C61.5878 208.235 60.9483 209.003 60.1325 209.541C59.3169 210.079 58.3617 210.36 57.3879 210.35C56.4139 210.339 55.4649 210.037 54.6606 209.483C53.8564 208.928 53.2331 208.145 52.8693 207.233C52.5054 206.32 52.4176 205.32 52.6167 204.357C52.8158 203.393 53.2931 202.512 53.9881 201.824C54.6831 201.135 55.5648 200.669 56.5217 200.485C57.1585 200.365 57.8128 200.371 58.4471 200.504C59.0813 200.639 59.6832 200.897 60.2184 201.267C60.7535 201.636 61.2113 202.108 61.5657 202.655C61.92 203.204 62.164 203.817 62.2834 204.461Z" fill="#F7CEDC"/>
<path d="M60.0462 300.316L62.1085 311.349L43.6786 314.862L41.6183 303.821L60.0462 300.316Z" fill="#006B99"/>
<path d="M59.5833 284.715L60.8589 291.559C54.7891 292.715 48.5111 291.522 43.2718 288.219C38.0325 284.916 34.2152 279.742 32.5782 273.728L39.2659 272.452L39.3752 272.418C40.6604 276.615 43.4305 280.19 47.1574 282.458C50.8843 284.726 55.3074 285.529 59.5833 284.715Z" fill="#006B99"/>
<path d="M41.6501 208.387C41.8306 209.353 41.7231 210.353 41.3414 211.259C40.9599 212.164 40.321 212.934 39.5057 213.472C38.6905 214.011 37.7355 214.294 36.7612 214.284C35.7871 214.275 34.8374 213.975 34.0326 213.421C33.2275 212.865 32.6032 212.084 32.2387 211.17C31.8741 210.259 31.7855 209.257 31.9841 208.294C32.1828 207.331 32.6596 206.45 33.3546 205.759C34.0494 205.069 34.9311 204.604 35.8883 204.421C36.5245 204.299 37.1783 204.303 37.8122 204.438C38.4462 204.572 39.048 204.83 39.5831 205.198C40.118 205.567 40.5761 206.037 40.9307 206.584C41.2854 207.132 41.5298 207.745 41.6501 208.387Z" fill="#F7CEDC"/>
<path d="M21.0187 212.321C21.1977 213.288 21.0887 214.286 20.7059 215.191C20.3231 216.095 19.6834 216.865 18.8677 217.403C18.0521 217.939 17.097 218.222 16.123 218.211C15.1491 218.201 14.2001 217.899 13.3958 217.344C12.5916 216.79 11.9682 216.007 11.6044 215.093C11.2406 214.182 11.1528 213.18 11.3519 212.219C11.551 211.255 12.0283 210.373 12.7233 209.684C13.4183 208.995 14.2999 208.53 15.2568 208.347C15.8937 208.225 16.5481 208.23 17.1827 208.365C17.8171 208.498 18.4192 208.758 18.9545 209.127C19.4898 209.496 19.9475 209.968 20.3018 210.515C20.656 211.064 20.8996 211.678 21.0187 212.321Z" fill="#F7CEDC"/>
<path d="M124.073 171.022C126.535 170.342 128.646 168.738 129.976 166.538C131.305 164.337 131.752 161.706 131.225 159.185L131.017 158.165C127.097 138.795 129.143 118.677 136.88 100.516C140.677 91.3846 141.868 81.3622 140.319 71.5827C138.769 61.803 134.541 52.6564 128.112 45.1772C121.682 37.698 113.309 32.1848 103.939 29.261C94.5687 26.3372 84.5754 26.1197 75.0891 28.6329C65.6028 31.1459 57.002 36.2896 50.2598 43.482C43.5175 50.6743 38.9025 59.6285 36.9371 69.3316C34.9715 79.0346 35.7339 89.0995 39.1377 98.3881C42.5416 107.676 48.4512 115.818 56.1981 121.891C71.9428 134.173 83.5846 151.031 89.5572 170.196C90.195 172.247 91.4634 174.04 93.1781 175.315C94.8929 176.587 96.965 177.278 99.094 177.282C99.9159 177.281 100.734 177.178 101.532 176.978" stroke="#1F2223" stroke-width="2" stroke-linecap="round" stroke-linejoin="round"/>
<path d="M98.6255 186.138C98.0401 185.658 97.5675 185.054 97.242 184.367C96.9167 183.682 96.7464 182.931 96.744 182.17C96.7456 181.046 97.1153 179.955 97.7957 179.066C98.4759 178.176 99.4286 177.539 100.505 177.253L101.54 176.982L102.816 176.643L122.426 171.46L124.073 171.027L125.482 170.653C126.122 170.483 126.789 170.441 127.445 170.533C128.101 170.623 128.733 170.842 129.305 171.18C129.877 171.515 130.378 171.963 130.779 172.496C131.179 173.027 131.472 173.634 131.641 174.281C131.747 174.703 131.801 175.136 131.802 175.571C131.802 176.696 131.433 177.79 130.753 178.68C130.072 179.571 129.118 180.21 128.041 180.496L103.058 187.096C102.297 187.3 101.5 187.319 100.73 187.151C99.9609 186.984 99.2417 186.636 98.6315 186.133" stroke="#1F2223" stroke-width="2" stroke-linecap="round" stroke-linejoin="round"/>
<path d="M102.641 95.1694L122.406 171.382" stroke="#1F2223" stroke-width="2" stroke-linecap="round" stroke-linejoin="round"/>
<path d="M93.1628 100.173C96.8504 102.914 101.203 102.954 102.64 95.1694" stroke="#1F2223" stroke-width="2" stroke-linecap="round" stroke-linejoin="round"/>
<path d="M93.1626 100.174C95.5687 94.6801 95.0779 85.7956 90.0731 87.1178C84.7345 88.5284 88.3823 96.6203 93.1626 100.174Z" stroke="#1F2223" stroke-width="2" stroke-linecap="round" stroke-linejoin="round"/>
<path d="M102.795 176.57L83.0279 100.358C87.6492 106.684 91.2891 104.461 93.1607 100.173" stroke="#1F2223" stroke-width="2" stroke-linecap="round" stroke-linejoin="round"/>
<path d="M131.338 180.815C132.299 181.238 133.105 181.952 133.645 182.859C134.186 183.766 134.433 184.819 134.352 185.875C134.272 186.93 133.868 187.933 133.197 188.745C132.525 189.557 131.62 190.138 130.607 190.406L105.628 197.011C104.988 197.182 104.322 197.222 103.667 197.13C103.011 197.039 102.381 196.817 101.81 196.48C101.239 196.143 100.74 195.695 100.341 195.162C99.9415 194.629 99.65 194.023 99.4831 193.376C99.3724 192.957 99.3163 192.523 99.3162 192.088C99.3178 190.965 99.6876 189.872 100.368 188.982C101.048 188.093 102.001 187.456 103.077 187.17L128.054 180.565C129.146 180.278 130.301 180.366 131.338 180.815Z" stroke="#1F2223" stroke-width="2" stroke-linecap="round" stroke-linejoin="round"/>
<path d="M124.527 202.613L116.099 204.84C114.819 205.178 113.486 205.26 112.175 205.079C110.864 204.897 109.601 204.458 108.459 203.783C107.317 203.108 106.317 202.212 105.518 201.148C104.719 200.082 104.136 198.868 103.802 197.576L131.721 190.196C131.938 191.04 132.048 191.908 132.049 192.78C132.046 195.029 131.307 197.212 129.946 198.99C128.586 200.771 126.68 202.043 124.527 202.613Z" stroke="#1F2223" stroke-width="2" stroke-linecap="round" stroke-linejoin="round"/>
<path d="M351.452 179.156C364.033 186.571 373.272 198.633 377.219 212.795C381.164 226.957 379.511 242.114 372.604 255.068C365.699 268.023 354.082 277.763 340.202 282.235C326.323 286.707 311.267 285.561 298.208 279.038C285.15 272.516 275.109 261.127 270.204 247.273C265.3 233.421 265.913 218.185 271.917 204.78C277.921 191.376 288.845 180.849 302.386 175.42C315.926 169.992 331.026 170.085 344.499 175.682C346.894 176.672 349.218 177.83 351.452 179.149" stroke="#1F2223" stroke-width="2" stroke-linecap="round" stroke-linejoin="round"/>
<path d="M131.05 179.961L131.177 179.936L169.996 172.542" stroke="#1F2223" stroke-width="2" stroke-linecap="round" stroke-linejoin="round"/>
<path d="M231.557 212.538L253.322 329.086L33.2498 371.014L2.15379 204.514L98.6247 186.133H98.6308" stroke="#1F2223" stroke-width="2" stroke-linecap="round" stroke-linejoin="round"/>
<path d="M29.8246 224.936L160.714 199.999" stroke="#1F2223" stroke-width="2" stroke-linecap="round" stroke-linejoin="round"/>
<path d="M21.0187 212.321C21.1977 213.288 21.0887 214.286 20.7059 215.191C20.3231 216.095 19.6834 216.865 18.8677 217.403C18.0521 217.939 17.097 218.222 16.123 218.211C15.1491 218.201 14.2001 217.899 13.3958 217.344C12.5916 216.79 11.9682 216.007 11.6044 215.093C11.2406 214.182 11.1528 213.18 11.3519 212.219C11.551 211.255 12.0283 210.373 12.7233 209.684C13.4183 208.995 14.2999 208.53 15.2568 208.347C15.8937 208.225 16.5481 208.23 17.1827 208.365C17.8171 208.498 18.4192 208.758 18.9545 209.127C19.4898 209.496 19.9475 209.968 20.3018 210.515C20.656 211.064 20.8996 211.678 21.0187 212.321Z" stroke="#1F2223" stroke-width="2" stroke-linecap="round" stroke-linejoin="round"/>
<path d="M41.6501 208.387C41.8306 209.353 41.7231 210.353 41.3414 211.259C40.9599 212.164 40.321 212.934 39.5057 213.472C38.6905 214.011 37.7355 214.294 36.7612 214.284C35.7871 214.275 34.8374 213.975 34.0326 213.421C33.2275 212.865 32.6032 212.084 32.2387 211.17C31.8741 210.259 31.7855 209.257 31.9841 208.294C32.1828 207.331 32.6596 206.45 33.3546 205.759C34.0494 205.069 34.9311 204.604 35.8883 204.421C36.5245 204.299 37.1783 204.303 37.8122 204.438C38.4462 204.572 39.048 204.83 39.5831 205.198C40.118 205.567 40.5761 206.037 40.9307 206.584C41.2854 207.132 41.5298 207.745 41.6501 208.387Z" stroke="#1F2223" stroke-width="2" stroke-linecap="round" stroke-linejoin="round"/>
<path d="M62.2834 204.461C62.4624 205.427 62.3536 206.426 61.9708 207.331C61.5878 208.235 60.9483 209.003 60.1325 209.541C59.3169 210.079 58.3617 210.36 57.3879 210.35C56.4139 210.339 55.4649 210.037 54.6606 209.483C53.8564 208.928 53.2331 208.145 52.8693 207.233C52.5054 206.32 52.4176 205.32 52.6167 204.357C52.8158 203.393 53.2931 202.512 53.9881 201.824C54.6831 201.135 55.5648 200.669 56.5217 200.485C57.1585 200.365 57.8128 200.371 58.4471 200.504C59.0813 200.639 59.6832 200.897 60.2184 201.267C60.7535 201.636 61.2113 202.108 61.5657 202.655C61.92 203.204 62.164 203.817 62.2834 204.461Z" stroke="#1F2223" stroke-width="2" stroke-linecap="round" stroke-linejoin="round"/>
<path d="M266.903 219.36L231.557 212.538L164.864 199.665L169.997 172.541L170.662 169.056L191.172 60.6724L367.437 94.6995L351.452 179.149V179.154" stroke="#1F2223" stroke-width="2" stroke-linecap="round" stroke-linejoin="round"/>
<path d="M207.097 83.5159L347.336 110.585" stroke="#1F2223" stroke-width="2" stroke-linecap="round" stroke-linejoin="round"/>
<path d="M203.468 72.5724C203.316 73.3796 202.928 74.123 202.358 74.7085C201.786 75.2939 201.057 75.6952 200.26 75.8617C199.462 76.0281 198.636 75.9522 197.881 75.6435C197.127 75.3349 196.48 74.8073 196.023 74.1275C195.565 73.4477 195.319 72.6463 195.312 71.8246C195.306 71.0027 195.541 70.1976 195.988 69.5108C196.435 68.8239 197.072 68.2863 197.822 67.966C198.572 67.6456 199.398 67.5568 200.197 67.7109C200.729 67.8131 201.234 68.0201 201.685 68.3197C202.137 68.6194 202.526 69.0061 202.831 69.4576C203.133 69.909 203.346 70.4165 203.455 70.9509C203.566 71.4854 203.569 72.0365 203.468 72.5724Z" stroke="#1F2223" stroke-width="2" stroke-linecap="round" stroke-linejoin="round"/>
<path d="M220.691 75.8933C220.537 76.7009 220.151 77.4447 219.58 78.0304C219.009 78.6163 218.279 79.0179 217.481 79.1845C216.684 79.3511 215.856 79.2752 215.101 78.9665C214.347 78.6577 213.7 78.1299 213.242 77.4498C212.783 76.7697 212.537 75.9679 212.53 75.1458C212.524 74.3236 212.759 73.518 213.206 72.8308C213.653 72.1437 214.292 71.6058 215.042 71.2851C215.792 70.9645 216.618 70.8756 217.417 71.0297C217.949 71.1313 218.455 71.3377 218.908 71.6374C219.36 71.9369 219.749 72.3238 220.054 72.7756C220.358 73.2275 220.571 73.7353 220.68 74.2703C220.789 74.8053 220.792 75.3569 220.691 75.8933Z" stroke="#1F2223" stroke-width="2" stroke-linecap="round" stroke-linejoin="round"/>
<path d="M237.916 79.2244C237.762 80.0315 237.374 80.774 236.803 81.3586C236.231 81.9432 235.5 82.3435 234.703 82.5088C233.905 82.6742 233.077 82.5971 232.324 82.2875C231.57 81.9779 230.923 81.4494 230.466 80.7692C230.01 80.0889 229.763 79.2873 229.758 78.4653C229.752 77.6435 229.987 76.8385 230.434 76.1518C230.883 75.4651 231.52 74.9277 232.27 74.6075C233.019 74.2874 233.847 74.1987 234.647 74.3528C235.718 74.5617 236.666 75.1921 237.28 76.1054C237.892 77.0187 238.121 78.1406 237.916 79.2244Z" stroke="#1F2223" stroke-width="2" stroke-linecap="round" stroke-linejoin="round"/>
<path d="M343.621 162.273C345.125 164.533 345.475 168.514 344.507 175.682" stroke="#1F2223" stroke-width="2" stroke-linecap="round" stroke-linejoin="round"/>
<path d="M329.643 171.382C331.599 165.888 333.54 161.31 336.5 159.967" stroke="#1F2223" stroke-width="2" stroke-linecap="round" stroke-linejoin="round"/>
<path d="M294.593 138.962C299.019 145.331 293.996 164.375 294.814 178.891" stroke="#1F2223" stroke-width="2" stroke-linecap="round" stroke-linejoin="round"/>
<path d="M259.361 111.149C269.12 123.336 249.624 177.289 262.779 179.44C275.842 181.568 277.482 143.683 287.516 137.606" stroke="#1F2223" stroke-width="2" stroke-linecap="round" stroke-linejoin="round"/>
<path d="M208.425 113.793C218.46 126.185 195.78 188.649 216.264 192.116C237.126 195.65 237.921 116.709 252.397 109.317" stroke="#1F2223" stroke-width="2" stroke-linecap="round" stroke-linejoin="round"/>
<path d="M170.662 169.056C178.943 170.167 186.801 118.588 201.011 112.294" stroke="#1F2223" stroke-width="2" stroke-linecap="round" stroke-linejoin="round"/>
<path d="M72.2696 248.246C75.1972 250.769 77.4978 253.951 78.9865 257.535C80.4749 261.119 81.11 265.007 80.8404 268.883C80.5709 272.761 79.4043 276.521 77.4344 279.859C75.4645 283.198 72.7462 286.025 69.4982 288.11C66.2501 290.195 62.563 291.482 58.733 291.866C54.903 292.251 51.0371 291.721 47.4463 290.323C43.8553 288.924 40.6394 286.694 38.0573 283.811C35.475 280.93 33.5985 277.476 32.5784 273.728C32.3956 273.076 32.2486 272.418 32.1214 271.749C31.1759 266.694 31.8067 261.469 33.9265 256.793C36.0464 252.118 39.5509 248.222 43.9565 245.644C48.3621 243.065 53.4519 241.93 58.5232 242.397C63.5945 242.862 68.3975 244.906 72.2696 248.246Z" stroke="#1F2223" stroke-width="2" stroke-linecap="round" stroke-linejoin="round"/>
<path d="M67.6355 253.395C70.7297 255.997 72.8539 259.585 73.6584 263.569C74.4628 267.554 73.8995 271.696 72.061 275.314C70.2228 278.93 67.2191 281.808 63.545 283.471C59.8708 285.134 55.7453 285.484 51.8481 284.461C47.9508 283.441 44.5145 281.108 42.105 277.851C39.6955 274.593 38.4566 270.604 38.5924 266.54C38.7281 262.477 40.2306 258.582 42.8521 255.495C45.4736 252.408 49.0579 250.317 53.0144 249.562C55.5804 249.066 58.2236 249.153 60.7526 249.816C63.2813 250.479 65.6325 251.702 67.6355 253.395Z" stroke="#1F2223" stroke-width="2" stroke-linecap="round" stroke-linejoin="round"/>
<path d="M59.5835 284.715L60.8589 291.559" stroke="#1F2223" stroke-width="2" stroke-linecap="round" stroke-linejoin="round"/>
<path d="M67.6357 253.395L72.2691 248.246" stroke="#1F2223" stroke-width="2" stroke-linecap="round" stroke-linejoin="round"/>
<path d="M39.2661 272.452L32.5784 273.728L32.4968 273.742" stroke="#1F2223" stroke-width="2" stroke-linecap="round" stroke-linejoin="round"/>
<path d="M216.304 316.056L236.58 312.192L218.104 213.276" stroke="#1F2223" stroke-width="2" stroke-linecap="round" stroke-linejoin="round"/>
<path d="M188.793 321.293L206.58 317.908" stroke="#1F2223" stroke-width="2" stroke-linecap="round" stroke-linejoin="round"/>
<path d="M179.076 323.144L188.793 321.298" stroke="#1F2223" stroke-width="2" stroke-linecap="round" stroke-linejoin="round"/>
<path d="M161.286 326.536L179.076 323.15" stroke="#1F2223" stroke-width="2" stroke-linecap="round" stroke-linejoin="round"/>
<path d="M133.776 331.778L151.566 328.388" stroke="#1F2223" stroke-width="2" stroke-linecap="round" stroke-linejoin="round"/>
<path d="M105.656 337.136L124.059 333.63" stroke="#1F2223" stroke-width="2" stroke-linecap="round" stroke-linejoin="round"/>
<path d="M62.1085 311.349L43.6786 314.862L41.6183 303.821L60.0462 300.316L62.1085 311.349Z" stroke="#1F2223" stroke-width="2" stroke-linecap="round" stroke-linejoin="round"/>
<path d="M65.1845 327.804L46.7545 331.317L44.6942 320.276L63.1221 316.768L65.1845 327.804Z" stroke="#1F2223" stroke-width="2" stroke-linecap="round" stroke-linejoin="round"/>
<path d="M68.2536 344.258L49.8317 347.772L47.7693 336.728L66.1913 333.223L68.2536 344.258Z" stroke="#1F2223" stroke-width="2" stroke-linecap="round" stroke-linejoin="round"/>
<path d="M133.775 331.778L124.058 333.631L121.995 322.589L105.171 232.546L114.896 230.694L131.713 320.736L133.775 331.778Z" stroke="#1F2223" stroke-width="2" stroke-linecap="round" stroke-linejoin="round"/>
<path d="M161.286 326.536L151.566 328.388L142.325 278.932L132.681 227.304L142.407 225.451L152.051 277.079L161.286 326.536Z" stroke="#1F2223" stroke-width="2" stroke-linecap="round" stroke-linejoin="round"/>
<path d="M188.793 321.298L179.076 323.151V323.144L173.938 295.654L160.191 222.066L169.909 220.214L183.658 293.805L188.793 321.293V321.298Z" stroke="#1F2223" stroke-width="2" stroke-linecap="round" stroke-linejoin="round"/>
<path d="M216.304 316.056L206.58 317.908L194.343 252.37L187.699 216.824L197.418 214.971L204.061 250.517L216.304 316.056Z" stroke="#1F2223" stroke-width="2" stroke-linecap="round" stroke-linejoin="round"/>
<path d="M121.997 322.589L131.714 320.738" stroke="#1F2223" stroke-width="2" stroke-linecap="round" stroke-linejoin="round"/>
<path d="M142.325 278.93L152.043 277.079" stroke="#1F2223" stroke-width="2" stroke-linecap="round" stroke-linejoin="round"/>
<path d="M173.938 295.654L183.658 293.805" stroke="#1F2223" stroke-width="2" stroke-linecap="round" stroke-linejoin="round"/>
<path d="M194.343 252.37L204.061 250.517" stroke="#1F2223" stroke-width="2" stroke-linecap="round" stroke-linejoin="round"/>
<path d="M363.031 188.168L322.902 228.694L282.773 269.217" stroke="#1F2223" stroke-width="2" stroke-linecap="round" stroke-linejoin="round"/>
<path d="M282.773 188.168L322.902 228.694" stroke="#1F2223" stroke-width="2" stroke-linecap="round" stroke-linejoin="round"/>
<path d="M71.8128 19.7836L66.9569 1.60522" stroke="#1F2223" stroke-width="2" stroke-linecap="round" stroke-linejoin="round"/>
<path d="M92.8546 19.7836L94.8156 3.48535" stroke="#1F2223" stroke-width="2" stroke-linecap="round" stroke-linejoin="round"/>
<path d="M53.2355 32.2895L42.5443 19.7834" stroke="#1F2223" stroke-width="2" stroke-linecap="round" stroke-linejoin="round"/>
</svg>
