<svg width="355" height="238" viewBox="0 0 355 238" fill="none" xmlns="http://www.w3.org/2000/svg">
<g clip-path="url(#clip0_2_1495)">
<path d="M354.938 0H0.677094V238H354.938V0Z" fill="#F7CEDC"/>
<path d="M252.857 117.427H250.121V149.32H252.857V117.427Z" fill="#FFCEB6"/>
<path d="M176.343 152.531L175.47 151.636C171.103 151.292 164.466 149.531 160.263 144.318C160.018 144.014 159.792 143.694 159.589 143.36C159.212 142.751 158.947 142.079 158.807 141.376C158.092 137.614 161.963 134.877 163.786 134.429C166.08 133.872 170.027 134.596 171.617 134.935C172.053 135.029 172.314 135.091 172.314 135.091C172.598 135.113 172.884 135.113 173.168 135.091C173.364 135.08 173.574 135.065 173.799 135.047C173.871 135.047 173.944 135.04 174.02 135.033C174.063 135.033 174.105 135.033 174.15 135.026C175.016 134.965 175.885 134.976 176.748 135.059C176.995 135.084 177.252 135.121 177.517 135.164C177.662 135.19 177.807 135.219 177.955 135.25C178.075 135.276 178.195 135.305 178.318 135.336C178.408 135.358 178.499 135.383 178.589 135.409C178.775 135.459 178.959 135.514 179.144 135.576C179.152 135.58 179.161 135.582 179.169 135.584C179.255 135.612 179.34 135.641 179.426 135.675V135.671C180.755 136.165 181.986 136.891 183.064 137.816C184.068 138.668 185.173 139.557 186.322 140.441C187.86 141.621 189.475 142.797 191.055 143.867C191.055 143.867 191.628 143.977 192.483 144.086L192.494 143.995V133.4H213.449C216.866 140.695 222.22 153.931 226.015 164.548C229.962 175.586 242.646 194.868 245.219 201.312C248.282 208.973 248.282 213.241 248.282 213.241H203.212C203.233 211.557 203.055 209.877 202.683 208.235L204.326 200.854C203.05 200.887 201.042 200.854 201.042 200.854V200.861C200.81 200.81 199.661 200.523 194.976 199.296C187.829 197.424 172.332 177.942 172.332 177.942C170.767 177.206 168.023 173.77 166.399 171.611C165.589 170.534 165.096 169.251 164.975 167.907H164.949C164.949 167.907 156.806 166.963 152.431 165.563C152.431 165.563 145.462 163.728 143.519 162.887C143.519 162.887 131.342 158.347 128.265 156.559C125.188 154.771 126.642 147.279 132.802 149.07C136.43 150.122 139.627 151.188 139.776 151.24C141.163 152.242 142.83 152.78 144.539 152.776H153.55C153.55 152.776 164.053 155.074 166.028 155.514L166.284 155.528C166.492 154.571 166.827 153.645 167.28 152.776H176.16L176.343 152.531Z" fill="#FFCEB6"/>
<path d="M245.787 127.625C245.812 127.589 245.837 127.553 245.863 127.52C245.771 128.431 245.428 129.3 244.873 130.028C244.499 130.567 243.96 130.969 243.338 131.174C242.716 131.378 242.044 131.374 241.425 131.161L239.289 133.885L236.897 130.834L239.033 128.111C238.853 127.357 238.84 126.574 238.994 125.815C239.147 125.056 239.463 124.34 239.92 123.716C240.4 123.066 241.103 122.619 241.892 122.459C241.86 122.488 241.832 122.52 241.806 122.555C241.271 123.291 240.982 124.179 240.982 125.09C240.982 126.002 241.271 126.89 241.806 127.626C242.03 127.948 242.327 128.212 242.674 128.394C243.02 128.577 243.406 128.672 243.797 128.672C244.188 128.672 244.573 128.576 244.92 128.394C245.266 128.212 245.564 127.948 245.787 127.625Z" fill="#CCEFF6"/>
<path d="M243.873 138.642C244.311 139.243 244.547 139.968 244.547 140.712C244.547 141.457 244.311 142.181 243.873 142.782C243.691 143.045 243.448 143.261 243.165 143.41C242.882 143.559 242.567 143.636 242.247 143.636C241.928 143.636 241.613 143.559 241.33 143.41C241.046 143.261 240.804 143.045 240.621 142.782C240.186 142.198 239.951 141.488 239.952 140.758L239.923 140.797L236.889 136.936L234.497 133.885L232.362 131.161C231.741 131.375 231.069 131.38 230.446 131.176C229.823 130.971 229.283 130.569 228.908 130.029C228.354 129.3 228.013 128.432 227.922 127.52C227.947 127.554 227.969 127.59 227.998 127.626C228.22 127.949 228.517 128.213 228.864 128.396C229.211 128.579 229.596 128.674 229.987 128.674C230.379 128.674 230.764 128.579 231.111 128.396C231.457 128.213 231.755 127.949 231.977 127.626C232.513 126.89 232.803 126.002 232.803 125.09C232.803 124.178 232.513 123.29 231.977 122.555C231.952 122.522 231.926 122.49 231.897 122.459C232.684 122.62 233.385 123.067 233.862 123.716C234.32 124.339 234.637 125.055 234.791 125.814C234.945 126.573 234.933 127.357 234.754 128.111L236.89 130.834L239.282 133.885L242.312 137.746L242.283 137.787C242.595 137.8 242.9 137.884 243.175 138.032C243.451 138.18 243.689 138.389 243.873 138.642Z" fill="#CCEFF6"/>
<path d="M234.494 133.884L236.889 136.935L235.798 138.326L234.494 133.884Z" fill="#006B99"/>
<path d="M234.494 133.884L235.798 138.326L233.856 140.797L233.823 140.758C233.825 141.488 233.589 142.199 233.152 142.783C232.971 143.046 232.727 143.262 232.444 143.41C232.161 143.559 231.846 143.637 231.527 143.637C231.207 143.637 230.893 143.559 230.609 143.41C230.326 143.262 230.083 143.046 229.901 142.783C229.466 142.181 229.231 141.456 229.231 140.713C229.231 139.968 229.466 139.244 229.901 138.642C230.085 138.389 230.324 138.18 230.6 138.031C230.875 137.883 231.18 137.798 231.493 137.784L231.46 137.744L234.494 133.884Z" fill="#CCEFF6"/>
<path d="M234.062 52.2561H231.452V82.683H234.062V52.2561Z" fill="#FFCEB6"/>
<path d="M221.902 66.9866C222.072 67.1778 222.18 67.4162 222.212 67.6702C222.245 67.9241 222.2 68.1821 222.084 68.4101L221.907 68.7382L220.284 71.7488C220.452 72.1232 220.551 72.5254 220.577 72.9354C220.671 74.3849 219.878 75.6157 218.808 75.6817C217.739 75.7481 216.794 74.6341 216.699 73.1846C216.604 71.7351 217.399 70.505 218.468 70.4383C218.666 70.4246 218.865 70.4516 219.052 70.518L220.504 67.8318L220.858 67.1727C220.898 67.074 220.963 66.9873 221.045 66.9202C221.127 66.8535 221.225 66.8086 221.329 66.7897C221.433 66.7712 221.541 66.7793 221.641 66.8138C221.741 66.8483 221.831 66.9076 221.902 66.9866Z" fill="#CCEFF6"/>
<path d="M213.451 133.4H192.496V94.5161C192.496 94.5161 195.58 95.4663 199.523 102.26C203.467 109.053 209.671 125.478 213.053 132.555C213.183 132.825 213.319 133.105 213.451 133.4Z" fill="#FFCEB6"/>
<path d="M201.085 200.868L201.042 200.854C201.042 200.854 203.05 200.887 204.326 200.854L202.684 208.235C202.045 204.787 201.088 201.03 201.045 200.858C201.058 200.863 201.072 200.866 201.085 200.868Z" fill="#006B99"/>
<path d="M192.496 133.4V143.987L192.485 144.079C191.631 143.97 191.057 143.859 191.057 143.859C189.477 142.789 187.861 141.614 186.324 140.434L186.375 140.368C186.629 139.767 186.759 139.121 186.759 138.467V133.404L192.496 133.4Z" fill="#CCEFF6"/>
<path d="M186.759 72.2334V66.9985C186.759 65.701 186.246 64.4569 185.333 63.5394C184.419 62.6222 183.181 62.1066 181.889 62.1066H153.006C151.715 62.1066 150.476 62.6222 149.563 63.5394C148.65 64.4569 148.137 65.701 148.137 66.9985V77.6652C148.137 78.3076 148.263 78.9438 148.507 79.5373C148.752 80.1308 149.111 80.6698 149.563 81.1243C150.015 81.5785 150.552 81.9388 151.143 82.1846C151.733 82.4304 152.367 82.5568 153.006 82.5568H181.887C182.526 82.5568 183.16 82.4304 183.75 82.1846C184.341 81.9388 184.878 81.5785 185.33 81.1243C185.782 80.6698 186.141 80.1308 186.386 79.5373C186.63 78.9438 186.756 78.3076 186.756 77.6652L186.759 72.2334ZM141.559 103.545V58.9699C141.559 56.64 142.48 54.4057 144.12 52.7582C145.76 51.1107 147.984 50.1851 150.303 50.1843H151.351C151.351 51.9397 152.044 53.6231 153.28 54.8646C154.516 56.1058 156.192 56.8031 157.939 56.8031H174.328C176.075 56.802 177.751 56.1047 178.987 54.8635C180.223 53.6227 180.918 51.9397 180.92 50.1843H183.747C184.896 50.184 186.034 50.4112 187.095 50.8524C188.157 51.2939 189.121 51.9408 189.933 52.7567C190.746 53.5727 191.39 54.541 191.83 55.6072C192.27 56.6733 192.496 57.8159 192.496 58.9699V133.4H186.759V127.803C186.759 126.506 186.246 125.262 185.333 124.344C184.419 123.427 183.181 122.911 181.889 122.911H153.006C151.715 122.911 150.476 123.427 149.563 124.344C148.65 125.262 148.137 126.506 148.137 127.803V138.467C148.137 139.765 148.65 141.009 149.563 141.927C150.476 142.844 151.715 143.359 153.006 143.359H159.592C159.795 143.693 160.02 144.013 160.266 144.317C164.466 149.531 171.103 151.289 175.472 151.635L176.345 152.53L176.164 152.778H150.303C147.983 152.777 145.759 151.85 144.119 150.201C142.479 148.553 141.558 146.318 141.559 143.987V103.545ZM148.144 103.545V108.067C148.144 109.364 148.656 110.608 149.57 111.525C150.483 112.443 151.722 112.958 153.013 112.958H181.894C183.185 112.958 184.424 112.443 185.337 111.525C186.25 110.608 186.763 109.364 186.763 108.067V97.4021C186.763 96.105 186.25 94.8605 185.337 93.9433C184.424 93.0258 183.185 92.5105 181.894 92.5105H153.006C151.715 92.5105 150.476 93.0258 149.563 93.9433C148.65 94.8605 148.137 96.105 148.137 97.4021L148.144 103.545Z" fill="#CCEFF6"/>
<path d="M186.759 133.4V138.463C186.759 139.116 186.629 139.763 186.375 140.364L186.324 140.429C185.175 139.544 184.07 138.656 183.066 137.804C181.988 136.879 180.757 136.153 179.427 135.658C179.758 135.082 179.952 134.437 179.995 133.774C180.038 133.11 179.928 132.446 179.675 131.832C179.421 131.217 179.03 130.67 178.532 130.232C178.034 129.793 177.443 129.476 176.803 129.304C176.164 129.132 175.494 129.11 174.844 129.24C174.195 129.37 173.585 129.648 173.059 130.053C172.534 130.458 172.109 130.979 171.816 131.575C171.523 132.171 171.371 132.827 171.37 133.492C171.371 133.982 171.455 134.469 171.62 134.931C170.029 134.592 166.083 133.868 163.789 134.424C161.966 134.872 158.095 137.61 158.809 141.372C158.95 142.074 159.215 142.747 159.592 143.356H153.006C151.715 143.356 150.476 142.84 149.563 141.923C148.65 141.006 148.137 139.761 148.137 138.464V127.803C148.137 126.506 148.65 125.262 149.563 124.344C150.476 123.427 151.715 122.911 153.006 122.911H181.887C183.178 122.911 184.417 123.427 185.33 124.344C186.243 125.262 186.756 126.506 186.756 127.803V133.4H186.759Z" fill="#CCEFF6"/>
<path d="M148.137 103.544V97.402C148.137 96.1045 148.65 94.8603 149.563 93.9428C150.476 93.0257 151.715 92.51 153.006 92.51H181.887C183.178 92.51 184.417 93.0257 185.33 93.9428C186.243 94.8603 186.756 96.1045 186.756 97.402V108.066C186.756 109.364 186.243 110.608 185.33 111.525C184.417 112.442 183.178 112.958 181.887 112.958H153.006C151.715 112.958 150.476 112.442 149.563 111.525C148.65 110.608 148.137 109.364 148.137 108.066V103.544ZM162.184 103.639C162.184 102.781 161.931 101.944 161.457 101.231C160.983 100.518 160.308 99.9629 159.52 99.6352C158.732 99.3071 157.864 99.2215 157.027 99.389C156.19 99.5562 155.422 99.9688 154.818 100.575C154.215 101.181 153.804 101.954 153.638 102.794C153.471 103.635 153.556 104.506 153.883 105.298C154.209 106.09 154.762 106.767 155.471 107.244C156.18 107.72 157.014 107.975 157.868 107.975C158.435 107.975 158.996 107.863 159.52 107.646C160.044 107.428 160.521 107.108 160.922 106.705C161.323 106.303 161.641 105.825 161.858 105.299C162.075 104.772 162.187 104.208 162.187 103.639H162.184Z" fill="#CCEFF6"/>
<path d="M186.759 72.2334V77.6651C186.759 78.3076 186.633 78.9437 186.388 79.5369C186.144 80.1304 185.785 80.6698 185.333 81.1239C184.88 81.5784 184.344 81.9388 183.753 82.1845C183.162 82.4303 182.529 82.5567 181.889 82.5567H153.006C152.367 82.5567 151.733 82.4303 151.143 82.1845C150.552 81.9388 150.015 81.5784 149.563 81.1239C149.111 80.6698 148.752 80.1304 148.507 79.5369C148.263 78.9437 148.137 78.3076 148.137 77.6651V67.0011C148.137 65.7036 148.65 64.4595 149.563 63.542C150.476 62.6244 151.715 62.1091 153.006 62.1091H181.887C183.178 62.1091 184.417 62.6244 185.33 63.542C186.243 64.4595 186.756 65.7036 186.756 67.0011L186.759 72.2334ZM180.003 72.3279C180.003 71.4701 179.75 70.6319 179.276 69.9186C178.801 69.2054 178.127 68.6497 177.338 68.3216C176.55 67.9931 175.682 67.9075 174.844 68.0747C174.007 68.2419 173.238 68.6549 172.634 69.2614C172.03 69.8679 171.619 70.6408 171.453 71.482C171.286 72.3231 171.372 73.195 171.699 73.9873C172.025 74.7799 172.578 75.4571 173.288 75.9335C173.998 76.4099 174.833 76.6642 175.687 76.6642C176.831 76.6635 177.928 76.2064 178.737 75.393C179.547 74.58 180.001 73.4775 180.002 72.3279H180.003Z" fill="#CCEFF6"/>
<path d="M151.35 50.1843H180.92C180.918 51.9397 180.223 53.6227 178.987 54.8635C177.751 56.1047 176.076 56.802 174.328 56.8031H157.939C156.192 56.8031 154.516 56.1058 153.28 54.8646C152.044 53.6231 151.35 51.9397 151.35 50.1843Z" fill="#006B99"/>
<path d="M180.002 133.494C180 134.254 179.802 135.001 179.426 135.66L179.164 135.574C179.155 135.573 179.147 135.57 179.139 135.567C178.954 135.502 178.77 135.447 178.584 135.399C178.494 135.374 178.403 135.349 178.313 135.326C178.19 135.294 178.07 135.268 177.951 135.241C177.802 135.212 177.656 135.183 177.512 135.155C177.251 135.108 177 135.075 176.743 135.049C175.88 134.965 175.011 134.954 174.146 135.017C174.102 135.017 174.06 135.024 174.015 135.024C173.939 135.031 173.866 135.035 173.793 135.038C173.566 135.052 173.355 135.067 173.163 135.082C172.879 135.104 172.593 135.104 172.309 135.082C172.309 135.082 172.052 135.02 171.613 134.926C171.448 134.464 171.363 133.978 171.363 133.487C171.355 132.913 171.461 132.343 171.674 131.809C171.887 131.276 172.204 130.791 172.606 130.382C173.007 129.973 173.486 129.647 174.013 129.426C174.541 129.204 175.107 129.09 175.679 129.09C176.251 129.09 176.818 129.204 177.345 129.426C177.873 129.647 178.351 129.973 178.753 130.382C179.155 130.791 179.471 131.276 179.685 131.809C179.898 132.343 180.004 132.913 179.996 133.487L180.002 133.494Z" fill="white"/>
<path d="M175.687 76.6645C178.07 76.6645 180.003 74.7227 180.003 72.3279C180.003 69.933 178.07 67.9912 175.687 67.9912C173.303 67.9912 171.37 69.933 171.37 72.3279C171.37 74.7227 173.303 76.6645 175.687 76.6645Z" fill="white"/>
<path d="M153.55 152.776H167.282C166.829 153.645 166.494 154.571 166.286 155.529L166.03 155.514C164.053 155.074 153.55 152.776 153.55 152.776Z" fill="#006B99"/>
<path d="M157.87 99.303C158.724 99.3022 159.559 99.5562 160.27 100.032C160.98 100.508 161.534 101.185 161.861 101.978C162.188 102.77 162.274 103.642 162.108 104.484C161.942 105.325 161.531 106.098 160.927 106.705C160.323 107.312 159.554 107.725 158.717 107.892C157.879 108.06 157.011 107.974 156.222 107.646C155.433 107.318 154.759 106.762 154.284 106.049C153.81 105.335 153.557 104.496 153.557 103.639C153.557 102.489 154.012 101.387 154.821 100.574C155.629 99.7612 156.726 99.3041 157.87 99.303Z" fill="white"/>
<path d="M147.766 50.1843H150.303C147.984 50.1851 145.76 51.1107 144.12 52.7582C142.48 54.4057 141.559 56.64 141.559 58.9699V103.545H139.021V58.9699C139.022 56.64 139.943 54.4057 141.583 52.7582C143.223 51.1107 145.447 50.1851 147.766 50.1843Z" fill="#006B99"/>
<path d="M150.303 152.776H147.766C145.446 152.776 143.22 151.85 141.58 150.202C139.939 148.553 139.017 146.318 139.017 143.987V103.544H141.559V143.987C141.559 146.318 142.48 148.552 144.12 150.2C145.76 151.848 147.984 152.775 150.303 152.776Z" fill="#006B99"/>
<path d="M136.357 128.321V139.443C136.357 139.443 132.403 138.763 127.025 137.863C121.647 136.964 121.643 130.483 124.517 128.321C127.391 126.159 135.987 128.321 135.987 128.321H136.357Z" fill="#FFCEB6"/>
<path d="M119.49 99.8925V105.74H117.732C117.083 105.74 116.757 106.73 117.219 107.313L118.462 108.882L115.186 113.018L113.942 111.448C113.481 110.866 112.698 111.277 112.698 112.097V114.317H108.063V112.097C108.063 111.278 107.28 110.866 106.819 111.448L105.576 113.018L102.3 108.882L103.543 107.313C104.003 106.73 103.677 105.74 103.03 105.74H101.27V99.8925H103.03C103.679 99.8925 104.005 98.899 103.543 98.3195L102.3 96.7473L105.576 92.6116L106.819 94.1805C107.28 94.7596 108.063 94.3521 108.063 93.5291V91.3115H112.698V93.5325C112.698 94.3547 113.481 94.7633 113.942 94.1838L115.184 92.615L118.461 96.7473L117.218 98.3162C116.757 98.8953 117.083 99.8892 117.73 99.8892L119.49 99.8925ZM113.129 102.817C113.129 100.898 111.897 99.3427 110.382 99.3427C108.868 99.3427 107.632 100.898 107.632 102.817C107.632 104.736 108.863 106.286 110.382 106.286C111.901 106.286 113.129 104.728 113.129 102.817Z" fill="#CCEFF6"/>
<path d="M96.2082 86.2217H93.2361V120.868H96.2082V86.2217Z" fill="#FFCEB6"/>
<path d="M96.2082 86.2217L125.299 88.7704V118.319L96.2082 120.868" stroke="#006B99" stroke-width="3.704" stroke-linecap="round" stroke-linejoin="round"/>
<path d="M96.2082 86.2217H93.2361V120.868H96.2082V86.2217Z" stroke="#006B99" stroke-width="3.704" stroke-linecap="round" stroke-linejoin="round"/>
<path d="M231.452 52.2561L205.906 57.7716V85.5442L231.452 82.6823" stroke="#006B99" stroke-width="3.704" stroke-linecap="round" stroke-linejoin="round"/>
<path d="M234.062 52.2561H231.452V82.683H234.062V52.2561Z" stroke="#006B99" stroke-width="3.704" stroke-linecap="round" stroke-linejoin="round"/>
<path d="M250.121 117.427L223.338 119.772V146.972L250.121 149.321" stroke="#006B99" stroke-width="3.704" stroke-linecap="round" stroke-linejoin="round"/>
<path d="M252.857 117.427H250.121V149.32H252.857V117.427Z" stroke="#006B99" stroke-width="3.704" stroke-linecap="round" stroke-linejoin="round"/>
<path d="M180.92 50.1843H183.747C184.896 50.184 186.034 50.4112 187.095 50.8524C188.156 51.2939 189.121 51.9408 189.933 52.7567C190.746 53.5727 191.39 54.541 191.83 55.6072C192.27 56.6733 192.496 57.8159 192.496 58.9699V143.987" stroke="#006B99" stroke-width="3.704" stroke-linecap="round" stroke-linejoin="round"/>
<path d="M150.886 50.1843H151.35" stroke="#006B99" stroke-width="3.704" stroke-linecap="round" stroke-linejoin="round"/>
<path d="M147.766 152.776C145.446 152.776 143.22 151.85 141.58 150.202C139.939 148.554 139.017 146.319 139.017 143.987V58.9699C139.017 57.8159 139.244 56.6733 139.683 55.6072C140.123 54.541 140.768 53.5727 141.58 52.7567C142.392 51.9408 143.357 51.2939 144.418 50.8524C145.48 50.4112 146.617 50.184 147.766 50.1843" stroke="#006B99" stroke-width="3.704" stroke-linecap="round" stroke-linejoin="round"/>
<path d="M176.161 152.776H167.282H153.55H150.886" stroke="#006B99" stroke-width="3.704" stroke-linecap="round" stroke-linejoin="round"/>
<path d="M150.303 152.776C147.984 152.775 145.76 151.849 144.12 150.2C142.48 148.552 141.559 146.318 141.559 143.987V58.9699C141.559 56.64 142.48 54.4057 144.12 52.7582C145.76 51.1107 147.984 50.1851 150.303 50.1843" stroke="#006B99" stroke-width="3.704" stroke-linecap="round" stroke-linejoin="round"/>
<path d="M139.778 151.244C138.719 150.482 137.855 149.477 137.26 148.313C136.665 147.149 136.356 145.858 136.357 144.55V58.4087C136.357 57.328 136.568 56.2581 136.98 55.2598C137.392 54.2618 137.995 53.3547 138.756 52.591C139.517 51.827 140.42 51.2216 141.414 50.8086C142.408 50.3956 143.473 50.1836 144.549 50.1843H150.891" stroke="#006B99" stroke-width="3.704" stroke-linecap="round" stroke-linejoin="round"/>
<path d="M150.887 152.776H144.549C142.84 152.779 141.173 152.242 139.786 151.24" stroke="#006B99" stroke-width="3.704" stroke-linecap="round" stroke-linejoin="round"/>
<path d="M180.92 50.1843C180.918 51.9397 180.223 53.6227 178.987 54.8635C177.751 56.1047 176.076 56.802 174.328 56.8031H157.939C156.192 56.8031 154.516 56.1058 153.28 54.8646C152.044 53.6231 151.35 51.9397 151.35 50.1843H180.92Z" stroke="#006B99" stroke-width="3.704" stroke-linecap="round" stroke-linejoin="round"/>
<path d="M181.888 82.5553H153.006C151.715 82.5553 150.476 82.0396 149.563 81.1224C148.65 80.2049 148.137 78.9608 148.137 77.6633V67.0011C148.137 65.7036 148.65 64.4595 149.563 63.542C150.476 62.6244 151.715 62.1091 153.006 62.1091H181.887C183.178 62.1091 184.417 62.6244 185.33 63.542C186.243 64.4595 186.756 65.7036 186.756 67.0011V77.6651C186.756 78.9619 186.243 80.2057 185.33 81.1228C184.417 82.0396 183.179 82.5549 181.888 82.5553Z" stroke="#006B99" stroke-width="3.704" stroke-linecap="round" stroke-linejoin="round"/>
<path d="M181.888 112.956H153.006C151.715 112.956 150.476 112.441 149.563 111.523C148.65 110.606 148.137 109.362 148.137 108.065V97.402C148.137 96.1045 148.65 94.8603 149.563 93.9428C150.476 93.0257 151.715 92.51 153.006 92.51H181.887C183.178 92.51 184.417 93.0257 185.33 93.9428C186.243 94.8603 186.756 96.1045 186.756 97.402V108.066C186.756 109.363 186.243 110.607 185.33 111.524C184.417 112.441 183.179 112.956 181.888 112.956Z" stroke="#006B99" stroke-width="3.704" stroke-linecap="round" stroke-linejoin="round"/>
<path d="M159.595 143.358H153.006C151.715 143.358 150.476 142.842 149.563 141.925C148.65 141.007 148.137 139.763 148.137 138.466V127.803C148.137 126.506 148.65 125.262 149.563 124.344C150.476 123.427 151.715 122.911 153.006 122.911H181.887C183.178 122.911 184.417 123.427 185.33 124.344C186.243 125.262 186.756 126.506 186.756 127.803V138.467C186.757 139.121 186.626 139.767 186.372 140.368" stroke="#006B99" stroke-width="3.704" stroke-linecap="round" stroke-linejoin="round"/>
<path d="M127.88 103.544H136.357H139.017H141.554H148.139H151.351" stroke="#006B99" stroke-width="3.704" stroke-linecap="round" stroke-linejoin="round"/>
<path d="M171.62 134.933C170.029 134.593 166.083 133.869 163.789 134.426C161.966 134.874 158.095 137.612 158.809 141.373C158.95 142.076 159.215 142.748 159.592 143.357C159.795 143.691 160.02 144.011 160.266 144.315C164.466 149.529 171.103 151.287 175.472 151.633L176.345 152.528C178.469 154.717 183.851 160.252 185.283 161.797C185.283 161.797 189.458 178.239 194.075 182.877C200.323 189.158 203.899 190.949 207.914 191.549" stroke="#006B99" stroke-width="3.704" stroke-linecap="round" stroke-linejoin="round"/>
<path d="M173.799 135.041C173.571 135.056 173.361 135.07 173.168 135.085" stroke="#006B99" stroke-width="3.704" stroke-linecap="round" stroke-linejoin="round"/>
<path d="M177.514 135.158C177.252 135.111 177.001 135.078 176.745 135.052C175.881 134.968 175.012 134.957 174.147 135.02" stroke="#006B99" stroke-width="3.704" stroke-linecap="round" stroke-linejoin="round"/>
<path d="M178.314 135.326C178.191 135.293 178.072 135.267 177.952 135.24" stroke="#006B99" stroke-width="3.704" stroke-linecap="round" stroke-linejoin="round"/>
<path d="M179.14 135.566C178.956 135.501 178.771 135.446 178.586 135.398" stroke="#006B99" stroke-width="3.704" stroke-linecap="round" stroke-linejoin="round"/>
<path d="M198.244 147.948C195.715 146.836 193.307 145.466 191.057 143.859C189.477 142.789 187.861 141.614 186.324 140.434C185.175 139.549 184.07 138.661 183.066 137.808C181.988 136.884 180.757 136.157 179.427 135.663L179.166 135.577" stroke="#006B99" stroke-width="3.704" stroke-linecap="round" stroke-linejoin="round"/>
<path d="M191.057 143.863C191.057 143.863 191.63 143.973 192.485 144.082C194.253 144.311 197.24 144.551 198.9 143.863" stroke="#006B99" stroke-width="3.704" stroke-linecap="round" stroke-linejoin="round"/>
<path d="M174.022 135.023C173.086 136.053 168.57 139.502 169.152 143.856" stroke="#006B99" stroke-width="3.704" stroke-linecap="round" stroke-linejoin="round"/>
<path d="M158.809 141.374C160.513 142.656 164.698 143.434 166.336 142.51C166.336 142.51 167.301 137.577 169.467 135.935" stroke="#006B99" stroke-width="3.704" stroke-linecap="round" stroke-linejoin="round"/>
<path d="M248.284 213.244C248.284 213.244 248.284 208.973 245.221 201.315C242.648 194.871 229.963 175.588 226.017 164.55C222.222 153.933 216.866 140.692 213.451 133.402C213.317 133.107 213.183 132.827 213.053 132.554C209.671 125.476 203.471 109.056 199.523 102.259C195.577 95.4618 192.496 94.5161 192.496 94.5161" stroke="#006B99" stroke-width="3.704" stroke-linecap="round" stroke-linejoin="round"/>
<path d="M201.085 200.868L201.042 200.854V200.861C201.085 201.032 202.042 204.79 202.68 208.237C203.052 209.879 203.229 211.56 203.209 213.244" stroke="#006B99" stroke-width="3.704" stroke-linecap="round" stroke-linejoin="round"/>
<path d="M165.097 165.563C164.981 166.151 164.932 166.751 164.952 167.35C164.952 167.537 164.963 167.722 164.977 167.908C165.098 169.251 165.592 170.534 166.401 171.611C168.025 173.77 170.769 177.206 172.334 177.942C172.334 177.942 187.832 197.423 194.979 199.295C199.664 200.523 200.814 200.81 201.044 200.861C201.058 200.865 201.071 200.867 201.084 200.869C201.089 200.87 201.094 200.87 201.099 200.869" stroke="#006B99" stroke-width="3.704" stroke-linecap="round" stroke-linejoin="round"/>
<path d="M164.952 167.908C164.952 167.908 156.809 166.963 152.434 165.563C152.434 165.563 145.464 163.728 143.522 162.887C143.522 162.887 131.345 158.347 128.268 156.559C125.191 154.772 126.645 147.279 132.805 149.07C136.433 150.122 139.63 151.189 139.779 151.24" stroke="#006B99" stroke-width="3.704" stroke-linecap="round" stroke-linejoin="round"/>
<path d="M142.565 155.15C142.565 155.15 142.138 157.08 142.033 158.045" stroke="#006B99" stroke-width="3.704" stroke-linecap="round" stroke-linejoin="round"/>
<path d="M153.801 156.971C153.801 156.971 153.373 159.992 153.267 160.958" stroke="#006B99" stroke-width="3.704" stroke-linecap="round" stroke-linejoin="round"/>
<path d="M201.042 200.854C201.042 200.854 203.05 200.887 204.326 200.854L202.684 208.235" stroke="#006B99" stroke-width="3.704" stroke-linecap="round" stroke-linejoin="round"/>
<path d="M135.987 128.321C135.987 128.321 127.383 126.158 124.517 128.321C121.65 130.483 121.646 136.964 127.025 137.863C132.403 138.762 136.357 139.443 136.357 139.443" stroke="#006B99" stroke-width="3.704" stroke-linecap="round" stroke-linejoin="round"/>
<path d="M167.282 152.776C166.829 153.645 166.494 154.571 166.286 155.529C166.15 156.121 166.064 156.724 166.03 157.331" stroke="#006B99" stroke-width="3.704" stroke-linecap="round" stroke-linejoin="round"/>
<path d="M153.55 152.776C153.55 152.776 164.053 155.074 166.028 155.514" stroke="#006B99" stroke-width="3.704" stroke-linecap="round" stroke-linejoin="round"/>
<path d="M162.187 103.638C162.187 104.496 161.934 105.334 161.46 106.047C160.985 106.759 160.312 107.315 159.523 107.643C158.735 107.971 157.867 108.056 157.03 107.889C156.193 107.722 155.425 107.309 154.821 106.703C154.218 106.097 153.807 105.325 153.64 104.484C153.474 103.643 153.559 102.772 153.885 101.98C154.211 101.188 154.764 100.511 155.474 100.034C156.183 99.5577 157.017 99.3033 157.87 99.303C158.437 99.303 158.999 99.4149 159.522 99.6329C160.046 99.8505 160.522 100.17 160.923 100.573C161.324 100.975 161.642 101.453 161.859 101.979C162.076 102.505 162.187 103.069 162.187 103.638Z" stroke="#006B99" stroke-width="3.704" stroke-linecap="round" stroke-linejoin="round"/>
<path d="M202.053 72.2334H192.496H186.759H182.21" stroke="#006B99" stroke-width="3.704" stroke-linecap="round" stroke-linejoin="round"/>
<path d="M175.687 76.6645C178.07 76.6645 180.003 74.7227 180.003 72.3279C180.003 69.933 178.07 67.9912 175.687 67.9912C173.303 67.9912 171.37 69.933 171.37 72.3279C171.37 74.7227 173.303 76.6645 175.687 76.6645Z" stroke="#006B99" stroke-width="3.704" stroke-linecap="round" stroke-linejoin="round"/>
<path d="M220.174 133.4H213.451H192.496H186.759H182.21" stroke="#006B99" stroke-width="3.704" stroke-linecap="round" stroke-linejoin="round"/>
<path d="M171.62 134.932C172.056 135.027 172.316 135.089 172.316 135.089C172.601 135.111 172.886 135.111 173.171 135.089C173.366 135.077 173.576 135.063 173.801 135.045C173.874 135.045 173.946 135.038 174.022 135.03C174.066 135.03 174.108 135.03 174.153 135.024C175.018 134.962 175.887 134.974 176.751 135.056C176.998 135.082 177.255 135.118 177.52 135.161C177.664 135.187 177.81 135.217 177.958 135.247C178.077 135.273 178.197 135.302 178.32 135.333C178.411 135.356 178.501 135.381 178.592 135.406C178.777 135.457 178.962 135.512 179.146 135.574C179.155 135.577 179.163 135.58 179.172 135.581C179.257 135.61 179.343 135.639 179.428 135.672V135.668C179.759 135.092 179.953 134.447 179.996 133.784C180.039 133.12 179.929 132.455 179.675 131.841C179.422 131.227 179.031 130.679 178.533 130.241C178.035 129.803 177.443 129.485 176.804 129.313C176.165 129.142 175.495 129.12 174.845 129.25C174.196 129.379 173.585 129.657 173.06 130.062C172.535 130.467 172.11 130.988 171.817 131.584C171.524 132.181 171.372 132.837 171.372 133.502C171.373 133.99 171.457 134.473 171.62 134.932Z" stroke="#006B99" stroke-width="3.704" stroke-linecap="round" stroke-linejoin="round"/>
<path d="M119.49 99.8925H117.732C117.083 99.8925 116.757 98.899 117.219 98.3195L118.461 96.7473L115.184 92.6116L113.942 94.1805C113.481 94.7596 112.698 94.3521 112.698 93.5291V91.3115H108.063V93.5325C108.063 94.3547 107.28 94.7633 106.819 94.1838L105.576 92.615L102.3 96.7473L103.543 98.3195C104.003 98.899 103.677 99.8925 103.03 99.8925H101.27V105.74H103.03C103.679 105.74 104.005 106.73 103.543 107.313L102.3 108.882L105.576 113.018L106.819 111.448C107.28 110.866 108.063 111.277 108.063 112.097V114.317H112.698V112.097C112.698 111.278 113.481 110.866 113.942 111.448L115.184 113.018L118.461 108.882L117.218 107.313C116.757 106.73 117.083 105.74 117.73 105.74H119.488V99.8925H119.49Z" stroke="#006B99" stroke-width="3.704" stroke-linecap="round" stroke-linejoin="round"/>
<path d="M113.129 102.817C113.129 104.731 111.897 106.286 110.382 106.286C108.868 106.286 107.632 104.731 107.632 102.817C107.632 100.902 108.863 99.3428 110.382 99.3428C111.901 99.3428 113.129 100.898 113.129 102.817Z" stroke="#006B99" stroke-width="3.704" stroke-linecap="round" stroke-linejoin="round"/>
<path d="M220.501 67.8316C219.802 67.5143 219.037 67.3726 218.272 67.4197C216.597 67.5287 215.143 68.7347 214.147 70.4785C213.106 72.3777 212.63 74.5371 212.774 76.7006C212.781 76.8129 212.788 76.9297 212.799 77.0439" stroke="#006B99" stroke-width="3.704" stroke-linecap="round" stroke-linejoin="round"/>
<path d="M224.845 75.5245C224.845 75.4111 224.839 75.2987 224.831 75.1812C224.734 73.3139 224.115 71.5119 223.045 69.9823C222.715 69.5237 222.333 69.1059 221.907 68.7371" stroke="#006B99" stroke-width="3.704" stroke-linecap="round" stroke-linejoin="round"/>
<path d="M224.845 75.5245L228.433 75.2913C228.427 75.1786 228.427 75.0655 228.419 74.948C228.263 71.9816 227.282 69.1181 225.589 66.6833C223.643 63.9893 220.899 62.3759 217.963 62.5691C215.14 62.7552 212.708 64.7722 211.12 67.6994C209.635 70.5372 208.967 73.735 209.193 76.9328C209.2 77.0489 209.21 77.162 209.218 77.2761L212.806 77.0437" stroke="#006B99" stroke-width="3.704" stroke-linecap="round" stroke-linejoin="round"/>
<path d="M221.907 68.7379L222.084 68.4101C222.2 68.1821 222.245 67.9241 222.212 67.6702C222.18 67.4159 222.072 67.1779 221.902 66.9862C221.831 66.9069 221.741 66.8468 221.64 66.812C221.54 66.7771 221.432 66.7686 221.327 66.7871C221.222 66.8057 221.124 66.8509 221.041 66.9184C220.959 66.9858 220.895 67.0733 220.855 67.1727L220.5 67.8318L219.048 70.518C218.861 70.4517 218.663 70.4242 218.465 70.438C217.395 70.5077 216.602 71.7384 216.696 73.1842C216.79 74.6304 217.736 75.7514 218.805 75.6817C219.874 75.6124 220.668 74.3824 220.574 72.9355C220.548 72.5255 220.448 72.1232 220.28 71.7484L221.907 68.7379Z" stroke="#006B99" stroke-width="3.704" stroke-linecap="round" stroke-linejoin="round"/>
<path d="M217.96 62.5698L218.272 67.4199" stroke="#006B99" stroke-width="3.704" stroke-linecap="round" stroke-linejoin="round"/>
<path d="M211.142 67.7151L213.766 70.4528" stroke="#006B99" stroke-width="3.704" stroke-linecap="round" stroke-linejoin="round"/>
<path d="M225.455 66.7786L223.258 69.8336" stroke="#006B99" stroke-width="3.704" stroke-linecap="round" stroke-linejoin="round"/>
<path d="M239.289 133.884L241.424 131.161C242.044 131.374 242.716 131.378 243.338 131.174C243.961 130.97 244.5 130.568 244.875 130.028C245.43 129.3 245.773 128.431 245.864 127.52C245.839 127.553 245.814 127.589 245.788 127.625C245.565 127.948 245.268 128.213 244.921 128.395C244.574 128.578 244.188 128.673 243.796 128.673C243.405 128.673 243.019 128.578 242.672 128.395C242.325 128.213 242.028 127.948 241.805 127.625C241.27 126.889 240.982 126.001 240.982 125.089C240.982 124.178 241.27 123.29 241.805 122.554C241.83 122.52 241.859 122.488 241.89 122.458C241.101 122.618 240.399 123.066 239.918 123.715C239.461 124.339 239.145 125.055 238.992 125.814C238.839 126.573 238.852 127.356 239.031 128.11L236.895 130.833" stroke="#006B99" stroke-width="3.704" stroke-linecap="round" stroke-linejoin="round"/>
<path d="M234.494 133.884L231.46 137.746L231.493 137.786C231.18 137.8 230.875 137.885 230.6 138.033C230.324 138.182 230.085 138.391 229.901 138.644C229.466 139.246 229.231 139.97 229.231 140.714C229.231 141.457 229.466 142.182 229.901 142.783C230.083 143.047 230.326 143.263 230.609 143.411C230.892 143.56 231.207 143.638 231.527 143.638C231.846 143.638 232.161 143.56 232.444 143.411C232.727 143.263 232.97 143.047 233.152 142.783C233.589 142.2 233.825 141.49 233.823 140.76L233.856 140.799L235.798 138.328L236.889 136.936" stroke="#006B99" stroke-width="3.704" stroke-linecap="round" stroke-linejoin="round"/>
<path d="M236.889 130.833L234.754 128.11C234.932 127.356 234.944 126.573 234.79 125.813C234.637 125.054 234.32 124.338 233.862 123.715C233.384 123.066 232.684 122.619 231.897 122.458C231.925 122.489 231.951 122.521 231.976 122.554C232.513 123.289 232.802 124.178 232.802 125.089C232.802 126.001 232.513 126.889 231.976 127.625C231.754 127.948 231.456 128.213 231.11 128.395C230.763 128.578 230.378 128.673 229.987 128.673C229.595 128.673 229.21 128.578 228.863 128.395C228.517 128.213 228.219 127.948 227.997 127.625C227.968 127.589 227.946 127.553 227.921 127.52C228.013 128.431 228.354 129.299 228.907 130.028C229.282 130.568 229.822 130.971 230.445 131.175C231.068 131.379 231.74 131.374 232.36 131.161L234.496 133.884L236.888 136.935L239.922 140.797L239.951 140.757C239.95 141.487 240.185 142.197 240.621 142.781C240.803 143.045 241.046 143.26 241.329 143.409C241.612 143.558 241.927 143.636 242.246 143.636C242.566 143.636 242.881 143.558 243.164 143.409C243.447 143.26 243.69 143.045 243.872 142.781C244.31 142.181 244.546 141.455 244.546 140.711C244.546 139.967 244.31 139.242 243.872 138.642C243.689 138.388 243.451 138.179 243.176 138.03C242.901 137.882 242.597 137.798 242.285 137.784L242.314 137.743L239.284 133.881L236.889 130.833Z" stroke="#006B99" stroke-width="3.704" stroke-linecap="round" stroke-linejoin="round"/>
<path d="M234.494 133.884L235.798 138.326" stroke="#006B99" stroke-width="3.704" stroke-linecap="round" stroke-linejoin="round"/>
</g>
<defs>
<clipPath id="clip0_2_1495">
<rect width="354.26" height="238" fill="white" transform="translate(0.677094)"/>
</clipPath>
</defs>
</svg>
